<svg width="105" height="105" viewBox="0 0 105 105" fill="none" xmlns="http://www.w3.org/2000/svg">
<g filter="url(#filter0_d_879_9825)">
<rect x="20" y="19" width="65" height="65" rx="8" fill="url(#paint0_linear_879_9825)" shape-rendering="crispEdges"/>
<path d="M48.4787 74.3139L32.1062 64.8432V43.5431L48.4787 53.009V74.3139Z" fill="#DB284E"/>
<path opacity="0.3" d="M48.4787 74.3139L32.1062 64.8432V43.5431L48.4787 53.009V74.3139Z" fill="#FEF2F2"/>
<path d="M48.4788 74.3139L72.9306 60.1962V38.8734L48.4788 53.009V74.3139Z" fill="#DB284E"/>
<path opacity="0.6" d="M48.4788 74.3139L72.9306 60.1962V38.8734L48.4788 53.009V74.3139Z" fill="#FEF2F2"/>
<path opacity="0.1" d="M32.8395 43.9658L32.1062 44.3886V46.3866L48.4787 55.8526L72.9306 41.717V40.3853L71.6204 39.6293L70.468 40.2958L71.7781 41.0517L48.4787 54.5209L32.683 45.3882L33.9932 44.631L32.8395 43.9658Z" fill="#48081A"/>
<path d="M56.4111 30.0178V31.3482L70.6244 39.5398L71.778 38.8734L56.4111 30.0178Z" fill="#DB284E"/>
<path opacity="0.6" d="M56.4111 30.0178V31.3482L70.6244 39.5398L71.778 38.8734L56.4111 30.0178Z" fill="#FEF2F2"/>
<path opacity="0.15" d="M56.4111 30.0178V31.3482L70.6244 39.5398L71.778 38.8734L56.4111 30.0178Z" fill="#48081A"/>
<path d="M48.4788 53.6742L30.8057 43.4821V44.8138L48.4788 55.0058V53.6742Z" fill="#DB284E"/>
<path opacity="0.6" d="M48.4788 53.6742L30.8057 43.4821V44.8138L48.4788 55.0058V53.6742Z" fill="#FEF2F2"/>
<path d="M57.5637 29.3513L56.4112 28.6861L30.8057 43.4821L48.4811 53.6742L74.0867 38.8734L57.5637 29.3513ZM48.4608 52.3354L33.1118 43.4821L56.4112 30.0177L71.7781 38.8734L48.4608 52.3354Z" fill="#DB284E"/>
<path opacity="0.9" d="M57.5637 29.3513L56.4112 28.6861L30.8057 43.4821L48.4811 53.6742L74.0867 38.8734L57.5637 29.3513ZM48.4608 52.3354L33.1118 43.4821L56.4112 30.0177L71.7781 38.8734L48.4608 52.3354Z" fill="#FEF2F2"/>
<path d="M74.0843 38.8734V40.205L48.4788 55.0058V53.6742L74.0843 38.8734Z" fill="#DB284E"/>
<path opacity="0.75" d="M74.0843 38.8734V40.205L48.4788 55.0058V53.6742L74.0843 38.8734Z" fill="#FEF2F2"/>
<path d="M56.4112 30.0178V31.3482L34.2655 44.1474L33.1118 43.4822L56.4112 30.0178Z" fill="#DB284E"/>
<path opacity="0.75" d="M56.4112 30.0178V31.3482L34.2655 44.1474L33.1118 43.4822L56.4112 30.0178Z" fill="#FEF2F2"/>
<path d="M56.4113 31.3481L70.6246 39.5398L48.4609 52.3354L34.2656 44.1473L56.4113 31.3481Z" fill="#DB284E"/>
<path opacity="0.2" d="M56.4113 31.3481L70.6246 39.5398L48.4609 52.3354L34.2656 44.1473L56.4113 31.3481Z" fill="#48081A"/>
<path opacity="0.1" d="M69.6953 40.0761L55.1812 32.0588L56.4113 30.0178L71.7782 38.8734L69.6953 40.0761Z" fill="#48081A"/>
<path opacity="0.1" d="M40.3779 41.3229L36.3173 43.672C36.0964 43.7998 36.0964 44.0064 36.3173 44.1342L41.2581 46.9742C41.3825 47.0372 41.52 47.07 41.6594 47.07C41.7988 47.07 41.9363 47.0372 42.0607 46.9742L46.1224 44.6227C46.3434 44.4949 46.3434 44.2871 46.1224 44.1605L41.1805 41.3229C41.0561 41.2599 40.9186 41.2271 40.7792 41.2271C40.6398 41.2271 40.5023 41.2599 40.3779 41.3229Z" fill="#48081A"/>
<path d="M40.797 39.8909L37.2703 41.9272L41.0514 44.1127L44.5781 42.0764L40.797 39.8909Z" fill="#FEF2F2"/>
<path d="M37.2703 41.9272V43.9635L41.0514 46.1478V44.1127L37.2703 41.9272Z" fill="#FEF2F2"/>
<path d="M44.5782 42.0765V44.1115L41.0515 46.1478V44.1127L44.5782 42.0765Z" fill="#FEF2F2"/>
<path d="M39.6388 41.2584C38.9987 41.6286 38.9987 42.227 39.6388 42.5972C40.2789 42.9674 41.3168 42.9662 41.9569 42.5972C42.597 42.2282 42.597 41.6286 41.9569 41.2596C41.3168 40.8905 40.2789 40.8894 39.6388 41.2584Z" fill="#FEF2F2"/>
<path d="M40.2549 41.637C39.9551 41.7958 39.9551 42.0538 40.2549 42.2138C40.425 42.2925 40.6102 42.3333 40.7977 42.3333C40.9851 42.3333 41.1703 42.2925 41.3405 42.2138C41.6402 42.055 41.6402 41.797 41.3405 41.6382C41.1704 41.5595 40.9852 41.5186 40.7978 41.5184C40.6104 41.5182 40.4251 41.5586 40.2549 41.637Z" fill="#FEF2F2"/>
<path d="M42.8478 46.0248C42.7523 46.0248 42.6746 45.9806 42.6746 45.9245V44.803L42.1814 44.5152C42.1436 44.4938 42.1135 44.461 42.0953 44.4216C42.0771 44.3822 42.0717 44.3381 42.0799 44.2954C42.0894 44.1892 42.1671 44.1127 42.2292 44.145L42.935 44.5522C42.9614 44.5675 42.9834 44.5894 42.9987 44.6158C43.014 44.6422 43.0221 44.6722 43.0222 44.7027V45.9245C43.0222 45.9806 42.9481 46.0248 42.8478 46.0248Z" fill="#DB284E"/>
<path d="M43.8725 45.4193C43.7769 45.4193 43.6981 45.3739 43.6981 45.319V44.1963L43.2061 43.9097C43.1684 43.8879 43.1383 43.8549 43.1199 43.8154C43.1015 43.7759 43.0958 43.7317 43.1033 43.6888C43.1141 43.5837 43.1917 43.506 43.2538 43.5395L43.9597 43.9467C43.9859 43.9621 44.0077 43.984 44.0228 44.0104C44.0379 44.0369 44.0458 44.0668 44.0456 44.0972V45.319C44.0456 45.3739 43.968 45.4193 43.8725 45.4193Z" fill="#DB284E"/>
<path d="M57.2353 55.8466V69.2585L51.1408 72.7769L51.1396 59.3662L57.2353 55.8466Z" fill="#DB284E"/>
<path opacity="0.25" d="M57.2353 55.8466V69.2585L51.1408 72.7769L51.1396 59.3662L57.2353 55.8466Z" fill="#48081A"/>
<path opacity="0.15" d="M57.2354 55.8466L56.7529 56.1261V68.936L57.2354 69.2585V55.8466Z" fill="#48081A"/>
<path d="M56.7528 68.936L57.2353 69.2585L51.1409 72.7769V72.175L56.7528 68.936Z" fill="#DB284E"/>
<path opacity="0.8" d="M56.7528 68.936L57.2353 69.2585L51.1409 72.7769V72.175L56.7528 68.936Z" fill="#FEF2F2"/>
<path d="M56.7528 68.936L51.1408 72.1749L51.1396 59.3662L56.7528 56.1261V68.936Z" fill="#DB284E"/>
<path opacity="0.95" d="M56.7516 68.936L51.1408 72.1749L51.1396 59.3662L56.7516 56.1261V68.936Z" fill="#FEF2F2"/>
<path opacity="0.1" d="M56.7516 56.1261V57.0648L51.1396 60.3049V59.3662L56.7516 56.1261Z" fill="#48081A"/>
<path d="M54.1887 57.6034L53.9773 57.7252V71.1395L54.1887 71.0165V57.6034Z" fill="#DB284E"/>
<path opacity="0.2" d="M54.1887 57.6034L53.9773 57.7252V71.1395L54.1887 71.0165V57.6034Z" fill="#48081A"/>
<path d="M53.9772 57.7252V71.1394L53.7646 71.0176V57.847L53.9772 57.7252Z" fill="#DB284E"/>
<path opacity="0.4" d="M53.9772 57.7252V71.1394L53.7646 71.0176V57.847L53.9772 57.7252Z" fill="#48081A"/>
<path d="M57.2354 69.2585L57.4408 69.3755V55.7284L57.2354 55.8466V69.2585Z" fill="#DB284E"/>
<path opacity="0.2" d="M57.2354 69.2585L57.4408 69.3755V55.7284L57.2354 55.8466V69.2585Z" fill="#48081A"/>
<path d="M57.4408 69.3755L58.2529 68.9074V54.3215L50.3264 58.8968V73.4827L51.1397 73.0145V59.3662L57.4408 55.7284V69.3755Z" fill="#DB284E"/>
<path d="M58.2528 54.3215L50.3263 58.8968L50.1245 58.7798L58.051 54.2033L58.2528 54.3215Z" fill="#DB284E"/>
<path opacity="0.5" d="M58.2528 54.3215L50.3263 58.8968L50.1245 58.7798L58.051 54.2033L58.2528 54.3215Z" fill="#FEF2F2"/>
<path d="M50.3263 73.4826V58.8968L50.1245 58.7798V73.3668L50.3263 73.4826Z" fill="#DB284E"/>
<path opacity="0.2" d="M50.1245 58.7798V73.3668L50.3263 73.4826V58.8968" fill="#48081A"/>
<path opacity="0.15" d="M54.5696 61.2293L56.3097 60.2249C56.4136 60.164 56.4984 60.2129 56.4984 60.3335V61.5278C56.4945 61.5931 56.4755 61.6566 56.4427 61.7133C56.4099 61.7699 56.3644 61.818 56.3097 61.8539L54.5696 62.8583C54.4657 62.918 54.3821 62.869 54.3821 62.7496V61.5553C54.3853 61.49 54.404 61.4264 54.4366 61.3697C54.4692 61.313 54.5148 61.2649 54.5696 61.2293Z" fill="#48081A"/>
<path d="M54.6367 61.2794L56.3768 60.275C56.4807 60.2153 56.5643 60.2631 56.5643 60.3837V61.578C56.561 61.6433 56.5423 61.7068 56.5097 61.7635C56.4771 61.8202 56.4316 61.8683 56.3768 61.904L54.6367 62.9084C54.5328 62.9681 54.4492 62.9192 54.4492 62.7997V61.6054C54.4525 61.5402 54.4713 61.4766 54.5039 61.4199C54.5364 61.3633 54.582 61.3151 54.6367 61.2794Z" fill="#FAA7B1"/>
<path d="M54.6272 62.3388C54.5946 62.2636 54.5815 62.1815 54.5889 62.0999C54.5857 62.0066 54.5995 61.9136 54.6295 61.8252C54.6513 61.7601 54.6958 61.7049 54.7549 61.67C54.7709 61.6597 54.7888 61.6528 54.8075 61.6497C54.8206 61.6497 54.8266 61.6568 54.8266 61.6783C54.8268 61.7017 54.824 61.725 54.8182 61.7476C54.8182 61.7691 54.8063 61.7798 54.7979 61.781C54.784 61.7827 54.7706 61.7871 54.7585 61.7942C54.7306 61.8142 54.7114 61.8441 54.7048 61.8778C54.6912 61.9324 54.6852 61.9887 54.6869 62.045C54.684 62.0946 54.69 62.1444 54.7048 62.1919C54.7062 62.1977 54.7092 62.2031 54.7133 62.2075C54.7174 62.2119 54.7225 62.2152 54.7282 62.2171C54.7339 62.219 54.74 62.2195 54.7459 62.2184C54.7519 62.2173 54.7574 62.2148 54.7621 62.211C54.7689 62.2068 54.7753 62.202 54.7812 62.1966L54.8027 62.1775C54.8111 62.1775 54.817 62.1775 54.8218 62.1907C54.8263 62.2098 54.8283 62.2295 54.8278 62.2492C54.829 62.2579 54.829 62.2668 54.8278 62.2755C54.8249 62.2844 54.82 62.2926 54.8135 62.2994L54.786 62.3244C54.7746 62.3336 54.7627 62.342 54.7502 62.3495C54.6952 62.3806 54.6522 62.3782 54.6272 62.3388Z" fill="#FEF2F2"/>
<path d="M54.922 62.242C54.9199 62.2338 54.9199 62.2252 54.922 62.217V61.6198C54.923 61.609 54.9268 61.5987 54.9331 61.5899C54.9394 61.5811 54.9479 61.5741 54.9578 61.5697L54.9817 61.5553C55.0056 61.5422 55.0175 61.5458 55.0175 61.5649V62.0725L55.1083 62.0199C55.1092 62.0189 55.1103 62.0181 55.1115 62.0175C55.1128 62.017 55.1141 62.0167 55.1155 62.0167C55.1168 62.0167 55.1182 62.017 55.1194 62.0175C55.1206 62.0181 55.1217 62.0189 55.1226 62.0199C55.1244 62.031 55.1244 62.0423 55.1226 62.0534V62.0832C55.1241 62.0959 55.1241 62.1087 55.1226 62.1214C55.1199 62.1291 55.1149 62.1357 55.1083 62.1405L54.9447 62.2349C54.9316 62.2456 54.9268 62.2456 54.922 62.242Z" fill="#FEF2F2"/>
<path d="M55.1584 61.7846C55.1584 61.5601 55.2122 61.418 55.3185 61.3559C55.371 61.326 55.4104 61.3308 55.4379 61.369C55.4721 61.4412 55.4861 61.5212 55.4785 61.6007C55.4819 61.6951 55.4681 61.7894 55.4379 61.879C55.417 61.9416 55.3747 61.9948 55.3185 62.0294C55.2122 62.0903 55.1584 62.0091 55.1584 61.7846ZM55.3555 61.867C55.366 61.8423 55.3724 61.8161 55.3746 61.7894C55.38 61.7454 55.3824 61.7011 55.3818 61.6568C55.3826 61.6149 55.3802 61.573 55.3746 61.5314C55.374 61.5119 55.3673 61.4932 55.3555 61.4777C55.3503 61.474 55.344 61.472 55.3376 61.472C55.3312 61.472 55.3249 61.474 55.3197 61.4777C55.3043 61.4872 55.2919 61.5009 55.2838 61.5171C55.2729 61.5413 55.266 61.5671 55.2635 61.5935C55.2582 61.6375 55.2558 61.6818 55.2564 61.7261C55.2559 61.766 55.2583 61.8059 55.2635 61.8455C55.2641 61.8652 55.2713 61.8841 55.2838 61.8993C55.2889 61.9033 55.2953 61.9055 55.3018 61.9055C55.3083 61.9055 55.3146 61.9033 55.3197 61.8993C55.334 61.8915 55.3463 61.8805 55.3555 61.867Z" fill="#FEF2F2"/>
<path d="M55.5836 61.8646C55.576 61.8662 55.5682 61.8659 55.5607 61.8638C55.5532 61.8618 55.5463 61.8579 55.5406 61.8527C55.5358 61.8439 55.5333 61.834 55.5335 61.824C55.5334 61.8041 55.5366 61.7844 55.543 61.7655C55.549 61.7428 55.555 61.7297 55.5621 61.7261C55.5645 61.7248 55.5672 61.7242 55.5699 61.7242C55.5726 61.7242 55.5752 61.7248 55.5776 61.7261H55.5932C55.6077 61.7298 55.6232 61.7277 55.6362 61.7201C55.6497 61.7121 55.6609 61.7005 55.6684 61.6867C55.6786 61.6698 55.6836 61.6503 55.6827 61.6306C55.6835 61.6174 55.6811 61.6043 55.6756 61.5923C55.6719 61.5842 55.6656 61.5774 55.6577 61.5732L55.6266 61.5625C55.6129 61.5596 55.5999 61.554 55.5884 61.546C55.5769 61.538 55.5672 61.5278 55.5597 61.5159C55.5428 61.4823 55.5354 61.4447 55.5382 61.4072C55.5373 61.3541 55.5497 61.3016 55.5741 61.2544C55.5943 61.2117 55.6267 61.1759 55.6672 61.1516C55.6812 61.1445 55.696 61.1393 55.7114 61.1361C55.723 61.1322 55.7356 61.1322 55.7472 61.1361C55.7544 61.1361 55.758 61.1493 55.758 61.1624C55.7577 61.1813 55.7553 61.2001 55.7508 61.2185C55.7508 61.24 55.7401 61.252 55.7341 61.2555C55.7282 61.2572 55.722 61.2572 55.7162 61.2555C55.7009 61.2541 55.6856 61.2577 55.6725 61.2656C55.6594 61.2736 55.6491 61.2855 55.6433 61.2997C55.6367 61.3126 55.6334 61.327 55.6338 61.3415C55.6327 61.3495 55.6331 61.3576 55.6352 61.3654C55.6372 61.3732 55.6408 61.3805 55.6457 61.3869C55.6561 61.3966 55.6689 61.4032 55.6827 61.406H55.6971C55.7225 61.4134 55.7442 61.43 55.758 61.4526C55.7721 61.4849 55.7782 61.5201 55.7759 61.5553C55.7758 61.5908 55.771 61.6262 55.7616 61.6604C55.752 61.6952 55.7371 61.7282 55.7174 61.7583C55.6983 61.7871 55.673 61.8112 55.6433 61.8288C55.6261 61.8448 55.6058 61.857 55.5836 61.8646Z" fill="#FEF2F2"/>
<path d="M55.8465 61.7082C55.8417 61.7008 55.8396 61.6919 55.8406 61.6831V61.1039C55.8403 61.0928 55.8424 61.0819 55.8465 61.0716C55.8501 61.0637 55.8559 61.0571 55.8633 61.0525L56.0436 60.9486C56.0496 60.9486 56.0543 60.9486 56.0567 60.9486C56.0593 60.9596 56.0593 60.9711 56.0567 60.982V61.0119C56.059 61.0241 56.059 61.0367 56.0567 61.0489C56.056 61.0529 56.0544 61.0566 56.0522 61.0599C56.0499 61.0632 56.047 61.0659 56.0436 61.068L55.9361 61.1301V61.2675L56.0316 61.2113C56.0376 61.2113 56.0424 61.2113 56.0448 61.2113C56.0467 61.2224 56.0467 61.2337 56.0448 61.2448V61.2746C56.0463 61.2873 56.0463 61.3002 56.0448 61.3129C56.0429 61.3206 56.0382 61.3275 56.0316 61.332L55.9361 61.3869V61.5386L56.0448 61.4765C56.0454 61.4755 56.0463 61.4747 56.0474 61.4741C56.0484 61.4736 56.0496 61.4733 56.0508 61.4733C56.0519 61.4733 56.0531 61.4736 56.0541 61.4741C56.0552 61.4747 56.0561 61.4755 56.0567 61.4765C56.0593 61.4875 56.0593 61.4989 56.0567 61.5099V61.5398C56.059 61.552 56.059 61.5646 56.0567 61.5768C56.0551 61.5844 56.0509 61.5911 56.0448 61.5959L55.8633 61.701C55.8561 61.7118 55.8465 61.713 55.8465 61.7082Z" fill="#FEF2F2"/>
<path d="M56.1342 61.541C56.1317 61.5324 56.1317 61.5233 56.1342 61.5147V60.9319C56.132 60.9217 56.132 60.9111 56.1342 60.9008C56.1375 60.8924 56.1439 60.8855 56.1521 60.8817L56.2716 60.8149C56.3241 60.7838 56.3635 60.7886 56.391 60.8292C56.4219 60.9002 56.4347 60.9778 56.428 61.0549C56.431 61.1459 56.4184 61.2368 56.391 61.3236C56.3704 61.3861 56.328 61.4391 56.2716 61.4729L56.1521 61.5398C56.1438 61.5446 56.1378 61.5446 56.1342 61.541ZM56.2644 61.3511C56.2766 61.3427 56.2871 61.3319 56.2951 61.3194C56.3031 61.3069 56.3085 61.2929 56.311 61.2782C56.3223 61.2229 56.3271 61.1663 56.3253 61.1098C56.328 61.0593 56.3232 61.0085 56.311 60.9594C56.3014 60.9331 56.2859 60.9271 56.2644 60.9391L56.2262 60.9618V61.3738L56.2644 61.3511Z" fill="#FEF2F2"/>
<path d="M55.1536 61.1039C55.1481 61.1028 55.1432 61.0995 55.1401 61.0948C55.137 61.0901 55.1358 61.0844 55.1369 61.0788L55.4951 59.5346C55.4962 59.5298 55.4987 59.5255 55.5023 59.5223C55.506 59.5191 55.5106 59.5171 55.5154 59.5167C55.5202 59.5167 55.5248 59.5182 55.5287 59.521C55.5326 59.5238 55.5354 59.5277 55.5369 59.5322L55.8893 60.6692C55.8902 60.6719 55.8905 60.6748 55.8903 60.6777C55.8901 60.6806 55.8893 60.6834 55.8879 60.686C55.8866 60.6885 55.8848 60.6908 55.8825 60.6926C55.8803 60.6945 55.8777 60.6958 55.8749 60.6967C55.8722 60.6976 55.8693 60.6979 55.8664 60.6977C55.8635 60.6975 55.8607 60.6967 55.8581 60.6953C55.8556 60.694 55.8533 60.6922 55.8515 60.6899C55.8496 60.6877 55.8483 60.6851 55.8475 60.6823L55.519 59.6218L55.1846 61.0884C55.1839 61.0916 55.1824 61.0946 55.1803 61.0972C55.1783 61.0998 55.1757 61.1019 55.1727 61.1034C55.1698 61.1048 55.1665 61.1057 55.1632 61.1058C55.1599 61.1058 55.1566 61.1052 55.1536 61.1039Z" fill="#48081A"/>
<path d="M50.2009 48.8003L50.6452 48.5448V51.0743L50.2009 51.331V48.8003Z" fill="#FAA7B1"/>
<path d="M67.9697 38.5294L68.414 38.2727V40.8153L67.9697 41.0721V38.5294Z" fill="#FAA7B1"/>
<path d="M48.6008 43.6111L68.0175 32.3848C68.0631 32.3518 68.1166 32.3314 68.1726 32.3257C68.2286 32.3201 68.2851 32.3293 68.3364 32.3526L69.1031 32.7992C69.1487 32.8322 69.1848 32.8766 69.2076 32.928C69.2305 32.9794 69.2393 33.0359 69.2333 33.0918V38.5856C69.2246 38.7439 69.1788 38.898 69.0996 39.0353C69.0203 39.1727 68.9098 39.2894 68.7771 39.3762L49.3615 50.6025C49.3158 50.6363 49.2618 50.657 49.2052 50.6624C49.1486 50.6679 49.0916 50.6579 49.0403 50.6335L48.2771 50.1929C48.2306 50.16 48.1937 50.1154 48.1702 50.0635C48.1467 50.0117 48.1374 49.9545 48.1434 49.8979V44.4041C48.1518 44.2453 48.1976 44.0907 48.2771 43.9529C48.3566 43.8151 48.4675 43.698 48.6008 43.6111Z" fill="#FEF2F2"/>
<path d="M49.3625 50.6001C49.3168 50.6339 49.2627 50.6546 49.2062 50.6601C49.1496 50.6655 49.0926 50.6555 49.0412 50.6312L48.2781 50.1905C48.2316 50.1576 48.1947 50.113 48.1711 50.0611C48.1476 50.0093 48.1384 49.9521 48.1443 49.8955V44.4017C48.1501 44.2431 48.1962 44.0886 48.2781 43.9527L49.0401 44.3934L54.0441 47.8974L49.3625 50.6001Z" fill="#FEF2F2"/>
<path d="M68.7783 32.8231L49.3627 44.0494C49.2298 44.1359 49.1191 44.2527 49.0399 44.3901C48.9606 44.5274 48.9149 44.6816 48.9065 44.84V50.3338C48.9065 50.624 49.1107 50.7422 49.3627 50.5965L68.7783 39.3702C68.911 39.2835 69.0215 39.1667 69.1008 39.0293C69.18 38.892 69.2258 38.7379 69.2345 38.5796V33.0858C69.2345 32.7992 69.0303 32.6798 68.7783 32.8231Z" fill="#FEF2F2"/>
<path d="M59.9189 54.0575V64.6533L71.1417 58.1719V47.5797L59.9189 54.0575Z" fill="#DB284E"/>
<path d="M59.9189 54.0575V64.6533L71.1417 58.1719V47.5797L59.9189 54.0575Z" fill="#DB284E"/>
<path d="M70.2756 48.7453L60.4956 54.3931V63.3216L70.2756 57.6726V48.7453Z" fill="#FAA7B1"/>
<path d="M60.4956 62.5262V62.3459L70.2756 56.6981V56.8796L60.4956 62.5262Z" fill="#FEE5E7"/>
<path d="M60.4956 61.4968V61.3164L70.2756 55.6686V55.8502L60.4956 61.4968Z" fill="#FEE5E7"/>
<path d="M60.4956 60.4673V60.287L70.2756 54.6404V54.8207L60.4956 60.4673Z" fill="#FEE5E7"/>
<path d="M60.4956 59.4378V59.2575L70.2756 53.6097V53.7912L60.4956 59.4378Z" fill="#FEE5E7"/>
<path d="M60.4956 58.4084V58.228L70.2756 52.5814V52.7618L60.4956 58.4084Z" fill="#FEE5E7"/>
<path d="M60.4956 57.3789V57.1985L70.2756 51.5519V51.7323L60.4956 57.3789Z" fill="#FEE5E7"/>
<path d="M60.4956 56.3494V56.1691L70.2756 50.5225V50.7028L60.4956 56.3494Z" fill="#FEE5E7"/>
<path d="M60.4956 55.3199V55.1396L70.2756 49.493V49.6733L60.4956 55.3199Z" fill="#FEE5E7"/>
<path d="M70.5649 57.8399L70.2759 57.6727V48.7442L70.5649 48.577V57.8399Z" fill="#DB284E"/>
<path opacity="0.2" d="M70.5649 57.8399L70.2759 57.6727V48.7442L70.5649 48.577V57.8399Z" fill="#48081A"/>
<path d="M59.9189 64.6533L59.6299 64.4861V53.8915L59.9189 54.0575V64.6533Z" fill="#DB284E"/>
<path opacity="0.2" d="M59.9189 64.6533L59.6299 64.4861V53.8915L59.9189 54.0575V64.6533Z" fill="#48081A"/>
<path d="M70.5647 57.8399L70.2768 57.6727L60.4956 63.3217V63.6549L70.5647 57.8399Z" fill="#DB284E"/>
<path opacity="0.5" d="M70.5647 57.8399L70.2768 57.6727L60.4956 63.3217V63.6549L70.5647 57.8399Z" fill="#FEF2F2"/>
<path d="M71.1416 47.5797L70.8538 47.4137L59.6299 53.8916L59.9189 54.06L71.1416 47.5797Z" fill="#DB284E"/>
<path opacity="0.5" d="M71.1416 47.5797L70.8538 47.4137L59.6299 53.8916L59.9189 54.06L71.1416 47.5797Z" fill="#FEF2F2"/>
<path d="M58.948 53.7829V52.4357L61.6698 55.3534L58.948 53.7829Z" fill="#FEF2F2"/>
<path d="M74.5001 48.6236C74.489 48.8248 74.4307 49.0206 74.3299 49.1951C74.229 49.3696 74.0885 49.5179 73.9196 49.628H73.9137C73.5936 49.8131 73.3333 49.6626 73.3333 49.2936V48.6164L74.5001 47.9428V48.6236Z" fill="#FEF2F2"/>
<path d="M72.1676 49.9695C72.1565 50.1709 72.0982 50.3669 71.9974 50.5416C71.8966 50.7163 71.756 50.8648 71.5871 50.9751H71.5812C71.2599 51.1602 71.0007 51.0098 71.0007 50.6395V49.9636L72.1676 49.29V49.9695Z" fill="#FEF2F2"/>
<path d="M69.834 51.3167C69.8234 51.5179 69.7654 51.7138 69.6647 51.8883C69.564 52.0628 69.4236 52.2111 69.2547 52.3211C68.9335 52.5062 68.6743 52.3569 68.6743 51.9867V51.3107L69.8399 50.6371L69.834 51.3167Z" fill="#FEF2F2"/>
<path d="M67.5016 52.6639C67.4908 52.8652 67.4326 53.0611 67.3318 53.2356C67.2309 53.4102 67.0902 53.5584 66.9211 53.6683H66.9152C66.5951 53.8534 66.3359 53.7029 66.3359 53.3339V52.6603L67.5016 51.9867V52.6639Z" fill="#FEF2F2"/>
<path d="M65.169 54.0098C65.1579 54.2109 65.0996 54.4065 64.9987 54.5808C64.8979 54.7551 64.7574 54.9032 64.5886 55.013H64.5826C64.2626 55.1981 64.0034 55.0477 64.0034 54.6774V54.0003L65.169 53.3279V54.0098Z" fill="#FEF2F2"/>
<path d="M62.8365 55.357C62.8257 55.5582 62.7674 55.7541 62.6666 55.9287C62.5657 56.1032 62.4251 56.2515 62.2561 56.3614H62.2501C61.93 56.5465 61.6697 56.3972 61.6697 56.0269V55.3498L62.8365 54.6762V55.357Z" fill="#FEF2F2"/>
<path d="M61.6698 55.3534L74.5 47.9464L71.7782 45.0287L58.948 52.4357L61.6698 55.3534Z" fill="#FEF2F2"/>
<path d="M62.8365 54.6798L60.1147 51.7622L61.2804 51.0898L64.0034 54.0062L62.8365 54.6798Z" fill="#DB284E"/>
<path d="M65.1691 53.3338L62.4473 50.4162L63.6129 49.7426L66.3359 52.6603L65.1691 53.3338Z" fill="#DB284E"/>
<path d="M67.5016 51.9867L64.7798 49.069L65.9454 48.3954L68.6684 51.3131L67.5016 51.9867Z" fill="#DB284E"/>
<path d="M69.8338 50.6395L67.1121 47.7231L68.2789 47.0495L71.0007 49.9671L69.8338 50.6395Z" fill="#DB284E"/>
<path d="M72.1664 49.2936L69.4446 46.3759L70.6114 45.7023L73.3332 48.62L72.1664 49.2936Z" fill="#DB284E"/>
<path d="M73.3331 49.2971C73.3221 49.4984 73.2639 49.6943 73.163 49.8688C73.0622 50.0433 72.9216 50.1916 72.7527 50.3015H72.7467C72.4266 50.4867 72.1663 50.3362 72.1663 49.9659V49.29L73.3331 48.6164V49.2971Z" fill="#DB284E"/>
<path d="M71.0007 50.6431C70.9897 50.8445 70.9314 51.0405 70.8305 51.2152C70.7297 51.3899 70.5891 51.5384 70.4203 51.6487C70.1002 51.8326 69.8398 51.6833 69.8398 51.3131V50.6359L71.0067 49.9623L71.0007 50.6431Z" fill="#DB284E"/>
<path d="M68.6683 51.9903C68.6573 52.1915 68.599 52.3873 68.4981 52.5618C68.3973 52.7363 68.2567 52.8846 68.0879 52.9947H68.0819C67.7618 53.1798 67.5015 53.0305 67.5015 52.6602V51.9831L68.6683 51.3095V51.9903Z" fill="#DB284E"/>
<path d="M66.336 53.341C66.3249 53.5422 66.2665 53.738 66.1657 53.9125C66.0649 54.087 65.9244 54.2353 65.7556 54.3454H65.7496C65.4295 54.5305 65.1692 54.3801 65.1692 54.0098V53.3339L66.336 52.6603V53.341Z" fill="#DB284E"/>
<path d="M64.0035 54.6834C63.9925 54.8848 63.9342 55.0808 63.8333 55.2555C63.7325 55.4302 63.5919 55.5787 63.4231 55.689H63.4171C63.0958 55.8729 62.8367 55.7236 62.8367 55.3534V54.6762L64.0035 54.0026V54.6834Z" fill="#DB284E"/>
<g opacity="0.2">
<path d="M73.3331 49.2971C73.3221 49.4984 73.2639 49.6943 73.163 49.8688C73.0622 50.0433 72.9216 50.1916 72.7527 50.3015H72.7467C72.4266 50.4867 72.1663 50.3362 72.1663 49.9659V49.29L73.3331 48.6164V49.2971Z" fill="#48081A"/>
<path d="M71.0007 50.6431C70.9897 50.8445 70.9314 51.0405 70.8305 51.2152C70.7297 51.3899 70.5891 51.5384 70.4203 51.6487C70.1002 51.8326 69.8398 51.6833 69.8398 51.3131V50.6359L71.0067 49.9623L71.0007 50.6431Z" fill="#48081A"/>
<path d="M68.6683 51.9903C68.6573 52.1915 68.599 52.3873 68.4981 52.5618C68.3973 52.7363 68.2567 52.8846 68.0879 52.9947H68.0819C67.7618 53.1798 67.5015 53.0305 67.5015 52.6602V51.9831L68.6683 51.3095V51.9903Z" fill="#48081A"/>
<path d="M66.336 53.341C66.3249 53.5422 66.2665 53.738 66.1657 53.9125C66.0649 54.087 65.9244 54.2353 65.7556 54.3454H65.7496C65.4295 54.5305 65.1692 54.3801 65.1692 54.0098V53.3339L66.336 52.6603V53.341Z" fill="#48081A"/>
<path d="M64.0035 54.6834C63.9925 54.8848 63.9342 55.0808 63.8333 55.2555C63.7325 55.4302 63.5919 55.5787 63.4231 55.689H63.4171C63.0958 55.8729 62.8367 55.7236 62.8367 55.3534V54.6762L64.0035 54.0026V54.6834Z" fill="#48081A"/>
</g>
<g opacity="0.1">
<path d="M62.8365 54.6798L60.1147 51.7621L61.2804 51.0898L64.0034 54.0062L62.8365 54.6798Z" fill="#48081A"/>
<path d="M65.1691 53.3338L62.4473 50.4162L63.6129 49.7426L66.3359 52.6602L65.1691 53.3338Z" fill="#48081A"/>
<path d="M67.5016 51.9867L64.7798 49.069L65.9454 48.3954L68.6684 51.3131L67.5016 51.9867Z" fill="#48081A"/>
<path d="M69.8338 50.6395L67.1121 47.7231L68.2789 47.0495L71.0007 49.9671L69.8338 50.6395Z" fill="#48081A"/>
<path d="M72.1664 49.2935L69.4446 46.3759L70.6114 45.7023L73.3332 48.62L72.1664 49.2935Z" fill="#48081A"/>
</g>
<path opacity="0.15" d="M63.2009 57.0003L68.088 54.1794V57.7694L63.2009 60.5904V57.0003Z" fill="#48081A"/>
<path d="M63.3381 57.0827L68.224 54.2618V57.8518L63.3381 60.6739V57.0827Z" fill="#DB284E"/>
<path d="M64.0453 57.1926C64.0678 57.1789 64.0924 57.1692 64.1182 57.1639C64.1369 57.1597 64.1565 57.1627 64.1731 57.1723C64.1901 57.1835 64.2024 57.2004 64.2077 57.22C64.2167 57.249 64.2207 57.2793 64.2197 57.3096C64.2205 57.3538 64.214 57.3977 64.2006 57.4398C64.1885 57.4771 64.1703 57.5122 64.1468 57.5437L64.2233 57.7252C64.2238 57.7284 64.2238 57.7316 64.2233 57.7348C64.2244 57.7407 64.2244 57.7468 64.2233 57.7527C64.2211 57.7574 64.2178 57.7615 64.2137 57.7646L64.1289 57.8124C64.1217 57.8124 64.1158 57.8184 64.1122 57.8124C64.1083 57.8088 64.1055 57.8043 64.1038 57.7993L64.0346 57.6357L63.9772 57.6679V57.8793C63.9789 57.8864 63.9789 57.8937 63.9772 57.9008C63.9746 57.9066 63.9705 57.9115 63.9653 57.9151L63.8853 57.9617C63.8853 57.9617 63.8757 57.9617 63.8733 57.9617C63.8709 57.9617 63.8733 57.9533 63.8733 57.9462V57.3311C63.8717 57.324 63.8717 57.3167 63.8733 57.3096C63.8743 57.3065 63.8758 57.3037 63.8778 57.3012C63.8799 57.2988 63.8824 57.2967 63.8853 57.2953L64.0453 57.1926ZM63.9748 57.5222L64.0453 57.4816C64.0628 57.4719 64.0776 57.4579 64.0883 57.441C64.1005 57.4218 64.1063 57.3992 64.105 57.3765C64.105 57.349 64.105 57.3347 64.0883 57.3311C64.0809 57.3295 64.0732 57.3295 64.0658 57.3312C64.0583 57.3328 64.0514 57.3361 64.0453 57.3407L63.9748 57.3813V57.5222Z" fill="#FAA7B1"/>
<path d="M64.6017 57.386C64.6034 57.3847 64.6055 57.384 64.6077 57.384C64.6099 57.384 64.612 57.3847 64.6137 57.386C64.6152 57.3911 64.6152 57.3965 64.6137 57.4016V57.5019C64.6148 57.509 64.6148 57.5163 64.6137 57.5234C64.6109 57.5291 64.6068 57.534 64.6017 57.5377L64.3079 57.7073C64.3062 57.7087 64.3041 57.7094 64.3019 57.7094C64.2998 57.7094 64.2977 57.7087 64.296 57.7073C64.2939 57.7023 64.2939 57.6968 64.296 57.6918V57.0767C64.2943 57.0697 64.2943 57.0623 64.296 57.0552C64.2983 57.0493 64.3025 57.0443 64.3079 57.0409L64.5969 56.8749C64.5976 56.8741 64.5984 56.8735 64.5994 56.8731C64.6003 56.8727 64.6013 56.8725 64.6023 56.8725C64.6033 56.8725 64.6043 56.8727 64.6053 56.8731C64.6062 56.8735 64.607 56.8741 64.6077 56.8749C64.6097 56.8769 64.6113 56.8793 64.6123 56.882C64.6134 56.8847 64.6138 56.8876 64.6137 56.8904V56.9919C64.6132 56.9991 64.6111 57.006 64.6077 57.0122C64.6057 57.018 64.602 57.0231 64.5969 57.0266L64.4059 57.1364V57.2403L64.5826 57.1376C64.5843 57.1363 64.5864 57.1355 64.5886 57.1355C64.5907 57.1355 64.5929 57.1363 64.5945 57.1376C64.5945 57.1376 64.5945 57.146 64.5945 57.1532V57.2535C64.5962 57.2606 64.5962 57.2679 64.5945 57.275C64.5922 57.2809 64.588 57.2859 64.5826 57.2893L64.4059 57.392V57.4983L64.6017 57.386Z" fill="#FAA7B1"/>
<path d="M64.6901 57.275C64.6884 57.2763 64.6863 57.2771 64.6841 57.2771C64.682 57.2771 64.6799 57.2763 64.6782 57.275C64.6766 57.2699 64.6766 57.2645 64.6782 57.2595V57.1627C64.6771 57.1556 64.6771 57.1484 64.6782 57.1412C64.6809 57.1355 64.685 57.1306 64.6901 57.1269L64.886 57.0146C64.8877 57.0133 64.8898 57.0125 64.892 57.0125C64.8941 57.0125 64.8962 57.0133 64.8979 57.0146C64.8997 57.0193 64.8997 57.0244 64.8979 57.029V57.1257C64.8992 57.1324 64.8992 57.1393 64.8979 57.146C64.8948 57.1518 64.8908 57.1571 64.886 57.1615L64.6901 57.275Z" fill="#FAA7B1"/>
<path d="M64.9648 56.9096C64.9672 56.873 64.9724 56.8366 64.9804 56.8009C64.9891 56.7649 65.002 56.7301 65.0186 56.697C65.0344 56.6646 65.0545 56.6345 65.0783 56.6074C65.1009 56.5807 65.128 56.5581 65.1583 56.5405C65.1825 56.5246 65.2106 56.5156 65.2395 56.5143C65.2612 56.5141 65.2822 56.5212 65.2992 56.5346C65.3167 56.5513 65.3294 56.5723 65.3363 56.5955C65.3463 56.6251 65.3515 56.6561 65.3518 56.6874C65.3518 56.7137 65.3518 56.7424 65.3518 56.7722C65.3518 56.8021 65.3518 56.8307 65.3518 56.857C65.3507 56.8937 65.3455 56.9302 65.3363 56.9657C65.3277 57.0019 65.3153 57.0372 65.2992 57.0708C65.2826 57.1027 65.2625 57.1327 65.2395 57.1604C65.2159 57.1865 65.1885 57.2091 65.1583 57.2272C65.1342 57.2424 65.1067 57.2514 65.0783 57.2535C65.0564 57.2544 65.035 57.2466 65.0186 57.232C65.0008 57.2158 64.9876 57.1952 64.9804 57.1723C64.9717 57.1423 64.9665 57.1115 64.9648 57.0803C64.9648 57.0541 64.9648 57.0266 64.9648 56.9967C64.9648 56.9669 64.9648 56.9382 64.9648 56.9096ZM65.2371 56.9179C65.2371 56.906 65.2371 56.894 65.2371 56.8797C65.2371 56.8654 65.2371 56.851 65.2371 56.8367C65.2371 56.8224 65.2371 56.8069 65.2371 56.7937C65.2371 56.7806 65.2371 56.7686 65.2371 56.7579C65.2366 56.7442 65.2346 56.7306 65.2312 56.7173C65.2285 56.7076 65.2231 56.6989 65.2156 56.6922C65.2127 56.6889 65.209 56.6863 65.2048 56.6846C65.2007 56.6829 65.1962 56.6823 65.1918 56.6827C65.1799 56.6823 65.1682 56.6856 65.1583 56.6922C65.1458 56.7001 65.1346 56.7097 65.1249 56.7209C65.1156 56.7323 65.1075 56.7447 65.101 56.7579C65.0948 56.7717 65.09 56.7861 65.0867 56.8009C65.083 56.8166 65.0806 56.8326 65.0795 56.8487C65.0795 56.8606 65.0795 56.8725 65.0795 56.8869V56.9717C65.0795 56.986 65.0795 56.9979 65.0795 57.0087C65.0798 57.0326 65.0873 57.0559 65.101 57.0756C65.1141 57.0899 65.1332 57.0887 65.1583 57.0756C65.1839 57.0609 65.204 57.0382 65.2156 57.0111C65.2273 56.9833 65.2346 56.9539 65.2371 56.9239V56.9179Z" fill="#FAA7B1"/>
<path d="M65.6182 56.285C65.6399 56.2709 65.6643 56.2616 65.6898 56.2575C65.699 56.2555 65.7086 56.2555 65.7178 56.2573C65.727 56.2592 65.7358 56.2629 65.7436 56.2682C65.7602 56.2808 65.7724 56.2984 65.7782 56.3184C65.7867 56.3479 65.7907 56.3785 65.7902 56.4092C65.7899 56.4445 65.7859 56.4798 65.7782 56.5143C65.7703 56.545 65.7587 56.5747 65.7436 56.6026C65.7284 56.6292 65.7104 56.654 65.6898 56.6767C65.6684 56.6979 65.6443 56.7164 65.6182 56.7316L65.5393 56.777V56.9717C65.539 56.9792 65.537 56.9866 65.5334 56.9932C65.5314 56.999 65.5276 57.004 65.5226 57.0075L65.4414 57.0541C65.4397 57.0554 65.4376 57.0562 65.4354 57.0562C65.4333 57.0562 65.4312 57.0554 65.4295 57.0541C65.4285 57.0518 65.428 57.0494 65.428 57.0469C65.428 57.0445 65.4285 57.042 65.4295 57.0398V56.4223C65.4278 56.4152 65.4278 56.4079 65.4295 56.4008C65.4318 56.3949 65.436 56.3899 65.4414 56.3865L65.6182 56.285ZM65.5393 56.6289L65.6146 56.5847C65.6328 56.5749 65.6477 56.5599 65.6576 56.5417C65.67 56.5217 65.6763 56.4984 65.6755 56.4749C65.6755 56.4486 65.6695 56.4319 65.6576 56.4271C65.6504 56.4243 65.6427 56.4236 65.6351 56.4248C65.6276 56.4261 65.6205 56.4293 65.6146 56.4342L65.5393 56.4784V56.6289Z" fill="#FAA7B1"/>
<path d="M66.1589 56.4867C66.1606 56.4854 66.1627 56.4847 66.1649 56.4847C66.1671 56.4847 66.1692 56.4854 66.1709 56.4867C66.1709 56.4867 66.1709 56.4951 66.1709 56.5023V56.6026C66.1726 56.6097 66.1726 56.617 66.1709 56.6241C66.1685 56.63 66.1643 56.635 66.1589 56.6384L65.8651 56.8044C65.8645 56.8052 65.8636 56.8058 65.8627 56.8062C65.8618 56.8066 65.8608 56.8069 65.8598 56.8069C65.8587 56.8069 65.8577 56.8066 65.8568 56.8062C65.8559 56.8058 65.8551 56.8052 65.8544 56.8044C65.8524 56.8024 65.8508 56.8 65.8497 56.7973C65.8487 56.7946 65.8483 56.7918 65.8484 56.7889V56.1738C65.8487 56.1663 65.8508 56.159 65.8544 56.1523C65.8563 56.1465 65.8601 56.1415 65.8651 56.138L66.1542 55.9708C66.1559 55.9695 66.158 55.9687 66.1601 55.9687C66.1623 55.9687 66.1644 55.9695 66.1661 55.9708C66.1682 55.9758 66.1682 55.9814 66.1661 55.9863V56.0879C66.1678 56.0949 66.1678 56.1023 66.1661 56.1094C66.1638 56.1153 66.1596 56.1203 66.1542 56.1237L65.9631 56.2336V56.3375L66.141 56.2348C66.1417 56.234 66.1425 56.2334 66.1434 56.233C66.1444 56.2325 66.1454 56.2323 66.1464 56.2323C66.1474 56.2323 66.1484 56.2325 66.1493 56.233C66.1503 56.2334 66.1511 56.234 66.1518 56.2348C66.1528 56.237 66.1533 56.2395 66.1533 56.2419C66.1533 56.2444 66.1528 56.2468 66.1518 56.2491V56.3506C66.1534 56.3577 66.1534 56.365 66.1518 56.3721C66.1495 56.3777 66.1458 56.3827 66.141 56.3864L65.9631 56.4879V56.5954L66.1589 56.4867Z" fill="#FAA7B1"/>
<path d="M66.5294 56.4258C66.5222 56.4258 66.5163 56.4258 66.5115 56.4258L66.5031 56.4175L66.3622 56.1786V56.4999C66.3633 56.507 66.3633 56.5142 66.3622 56.5214C66.3599 56.5273 66.3557 56.5323 66.3503 56.5357L66.2691 56.5823C66.2674 56.5836 66.2653 56.5844 66.2631 56.5844C66.2609 56.5844 66.2588 56.5836 66.2571 56.5823C66.2571 56.5823 66.2571 56.5751 66.2571 56.5679V55.9517C66.2554 55.9446 66.2554 55.9373 66.2571 55.9302C66.2601 55.9247 66.2642 55.9198 66.2691 55.9159L66.3335 55.8788C66.3361 55.8774 66.339 55.8766 66.3419 55.8766C66.3448 55.8766 66.3477 55.8774 66.3503 55.8788L66.3586 55.8872L66.5007 56.132V55.8096C66.4991 55.8025 66.4991 55.7951 66.5007 55.7881C66.5037 55.7825 66.5078 55.7777 66.5127 55.7737L66.5939 55.7272C66.5946 55.7264 66.5954 55.7258 66.5963 55.7254C66.5973 55.7249 66.5983 55.7247 66.5993 55.7247C66.6003 55.7247 66.6013 55.7249 66.6022 55.7254C66.6032 55.7258 66.604 55.7264 66.6047 55.7272C66.6067 55.7292 66.6083 55.7316 66.6093 55.7343C66.6103 55.737 66.6108 55.7398 66.6106 55.7427V56.3577C66.6103 56.3653 66.6083 56.3726 66.6047 56.3792C66.6027 56.385 66.5989 56.3901 66.5939 56.3936L66.5294 56.4258Z" fill="#FAA7B1"/>
<path d="M66.7144 56.3196C66.7127 56.3209 66.7106 56.3217 66.7084 56.3217C66.7063 56.3217 66.7042 56.3209 66.7025 56.3196C66.7007 56.3145 66.7007 56.3091 66.7025 56.3041V55.689C66.7013 55.6819 66.7013 55.6746 66.7025 55.6675C66.7048 55.6616 66.709 55.6565 66.7144 55.6532L66.7956 55.6066C66.7973 55.6052 66.7994 55.6045 66.8016 55.6045C66.8038 55.6045 66.8059 55.6052 66.8076 55.6066C66.8076 55.6066 66.8076 55.6138 66.8076 55.6209V56.2372C66.8092 56.2442 66.8092 56.2516 66.8076 56.2587C66.8046 56.2642 66.8005 56.2691 66.7956 56.273L66.7144 56.3196Z" fill="#FAA7B1"/>
<path d="M67.1802 56.0508C67.1776 56.0525 67.1744 56.0534 67.1713 56.0534C67.1681 56.0534 67.165 56.0525 67.1623 56.0508L67.154 56.0425L67.013 55.8036V56.1261C67.0127 56.1332 67.0107 56.1402 67.0071 56.1464C67.0051 56.1522 67.0013 56.1572 66.9963 56.1607L66.9151 56.2085C66.9134 56.2098 66.9113 56.2106 66.9091 56.2106C66.907 56.2106 66.9048 56.2098 66.9032 56.2085C66.9011 56.2035 66.9011 56.1979 66.9032 56.193V55.5779C66.9015 55.5708 66.9015 55.5635 66.9032 55.5564C66.9055 55.5505 66.9097 55.5454 66.9151 55.5421L66.9796 55.505C66.9868 55.505 66.9915 55.505 66.9963 55.505C67 55.5068 67.0029 55.5097 67.0047 55.5134L67.1468 55.7523V55.4298C67.1453 55.4231 67.1453 55.4162 67.1468 55.4095C67.1477 55.4064 67.1493 55.4036 67.1513 55.4011C67.1534 55.3987 67.1559 55.3966 67.1587 55.3952L67.2399 55.3486C67.2406 55.3478 67.2414 55.3472 67.2424 55.3468C67.2433 55.3464 67.2443 55.3462 67.2453 55.3462C67.2463 55.3462 67.2473 55.3464 67.2483 55.3468C67.2492 55.3472 67.25 55.3478 67.2507 55.3486C67.2527 55.3506 67.2543 55.353 67.2553 55.3557C67.2564 55.3584 67.2568 55.3613 67.2567 55.3641V55.9804C67.2563 55.9875 67.2543 55.9945 67.2507 56.0007C67.2487 56.0065 67.245 56.0115 67.2399 56.015L67.1802 56.0508Z" fill="#FAA7B1"/>
<path d="M67.5253 55.3259C67.5116 55.3336 67.4995 55.3437 67.4895 55.3558C67.4801 55.3674 67.4725 55.3802 67.4668 55.394C67.4605 55.4077 67.456 55.4221 67.4537 55.437C67.4504 55.4519 67.4484 55.4671 67.4477 55.4824C67.4477 55.4907 67.4477 55.5027 67.4477 55.517V55.5624C67.4477 55.5779 67.4477 55.5935 67.4477 55.6078C67.447 55.6193 67.447 55.6309 67.4477 55.6424C67.4464 55.6551 67.4464 55.6679 67.4477 55.6806C67.4502 55.6908 67.4551 55.7002 67.462 55.7081C67.4649 55.7116 67.4686 55.7144 67.4727 55.7162C67.4769 55.7181 67.4814 55.719 67.4859 55.7189C67.4981 55.7181 67.51 55.7144 67.5205 55.7081C67.5316 55.7016 67.5416 55.6935 67.5504 55.6842C67.5601 55.6745 67.5685 55.6637 67.5755 55.652C67.5832 55.639 67.5888 55.6249 67.5922 55.6102C67.5967 55.593 67.5988 55.5753 67.5982 55.5576L67.5468 55.5875C67.5451 55.5888 67.543 55.5896 67.5408 55.5896C67.5387 55.5896 67.5366 55.5888 67.5349 55.5875C67.5328 55.5825 67.5328 55.5769 67.5349 55.572V55.4704C67.5332 55.4638 67.5332 55.4568 67.5349 55.4501C67.5372 55.4442 67.5414 55.4392 67.5468 55.4358L67.6961 55.3486C67.6978 55.3473 67.6999 55.3465 67.7021 55.3465C67.7042 55.3465 67.7064 55.3473 67.708 55.3486C67.7101 55.3536 67.7101 55.3592 67.708 55.3642V55.4836C67.7082 55.5238 67.7034 55.5639 67.6937 55.603C67.6836 55.6397 67.67 55.6752 67.6531 55.7093C67.6359 55.7407 67.615 55.7699 67.591 55.7965C67.5694 55.8207 67.544 55.8413 67.5158 55.8574C67.492 55.8732 67.4643 55.8823 67.4357 55.8837C67.4139 55.884 67.3926 55.8764 67.376 55.8622C67.3582 55.8455 67.3451 55.8245 67.3378 55.8013C67.3289 55.7718 67.3241 55.7413 67.3235 55.7105C67.3235 55.6854 67.3235 55.6579 67.3235 55.6281C67.3235 55.5982 67.3235 55.5684 67.3235 55.5409C67.3242 55.5043 67.329 55.4678 67.3378 55.4322C67.347 55.3964 67.3598 55.3616 67.376 55.3283C67.392 55.2956 67.4121 55.2651 67.4357 55.2376C67.4587 55.2115 67.4857 55.1893 67.5158 55.1719C67.5392 55.1571 67.5658 55.1481 67.5934 55.1456C67.6144 55.1448 67.6352 55.1502 67.6531 55.1611C67.6691 55.1723 67.6819 55.1876 67.6901 55.2053C67.6994 55.2239 67.7047 55.2442 67.7057 55.265C67.7072 55.2705 67.7072 55.2763 67.7057 55.2817C67.7038 55.2866 67.7005 55.2908 67.6961 55.2937L67.6137 55.3415C67.6081 55.3415 67.6033 55.3415 67.5994 55.3415C67.5955 55.338 67.5923 55.334 67.5898 55.3295C67.5831 55.322 67.575 55.3159 67.5659 55.3116C67.56 55.3104 67.5504 55.3152 67.5253 55.3259Z" fill="#FAA7B1"/>
<path d="M64.2363 58.0811C64.2867 58.0492 64.3441 58.0299 64.4035 58.025C64.449 58.0217 64.4945 58.0312 64.5349 58.0524C64.5715 58.0735 64.6013 58.1046 64.6209 58.142C64.6421 58.1813 64.6536 58.2252 64.6543 58.2698C64.654 58.2835 64.6508 58.2969 64.6448 58.3092C64.6406 58.3197 64.6336 58.3288 64.6245 58.3355L64.4382 58.443C64.4287 58.4494 64.4174 58.4527 64.4059 58.4525C64.3967 58.4506 64.3881 58.4465 64.3809 58.4406L64.3677 58.4263C64.3602 58.4189 64.3513 58.4133 64.3414 58.4095C64.3276 58.4069 64.3135 58.4069 64.2996 58.4095C64.2772 58.4133 64.2557 58.4214 64.2363 58.4334C64.2185 58.4443 64.2013 58.4562 64.185 58.4693C64.1688 58.482 64.154 58.4964 64.1408 58.5122C64.128 58.5277 64.1175 58.545 64.1098 58.5636C64.1016 58.5833 64.0975 58.6044 64.0978 58.6257C64.0966 58.6423 64.1012 58.6588 64.1109 58.6723C64.1172 58.6776 64.1244 58.6816 64.1322 58.6841C64.14 58.6865 64.1482 58.6874 64.1563 58.6866C64.185 58.6854 64.2134 58.681 64.2411 58.6735L64.3713 58.64C64.4154 58.6267 64.4614 58.6207 64.5074 58.6221C64.5432 58.6236 64.5776 58.6366 64.6054 58.6591C64.6335 58.6856 64.6534 58.7196 64.6627 58.7571C64.6771 58.8116 64.6835 58.8679 64.6818 58.9243C64.6819 58.9979 64.671 59.0712 64.6496 59.1416C64.605 59.2845 64.5258 59.4142 64.4191 59.519C64.3666 59.5714 64.3076 59.6168 64.2435 59.654C64.1901 59.687 64.1302 59.7082 64.068 59.7161C64.0207 59.7216 63.9729 59.7129 63.9306 59.691C63.8918 59.6701 63.8604 59.6375 63.841 59.5979C63.818 59.5532 63.8061 59.5036 63.8064 59.4533C63.8067 59.4397 63.81 59.4262 63.816 59.4139C63.8202 59.4035 63.8272 59.3944 63.8363 59.3877L64.0226 59.2814C64.0314 59.2744 64.0424 59.2706 64.0536 59.2706C64.0619 59.2717 64.0697 59.275 64.0763 59.2802C64.0824 59.2861 64.0879 59.2925 64.093 59.2993C64.1022 59.3083 64.1127 59.316 64.1241 59.322C64.1391 59.3287 64.1555 59.3316 64.1719 59.3303C64.1973 59.3265 64.2216 59.3176 64.2435 59.3041C64.29 59.2779 64.3323 59.2449 64.3689 59.2061C64.4008 59.1744 64.4192 59.1316 64.4203 59.0867C64.4213 59.0783 64.42 59.0698 64.4167 59.062C64.4133 59.0543 64.408 59.0475 64.4012 59.0425C64.3841 59.0341 64.365 59.0312 64.3462 59.0342C64.3142 59.0367 64.2826 59.0427 64.2519 59.0521C64.2137 59.0628 64.1683 59.0748 64.1157 59.0867C64.0802 59.101 64.0413 59.105 64.0036 59.0985C63.9658 59.092 63.9306 59.0751 63.9019 59.0497C63.8496 58.9731 63.8259 58.8805 63.8351 58.7881C63.8357 58.7219 63.845 58.6561 63.8625 58.5923C63.882 58.5239 63.9089 58.4578 63.9426 58.3952C63.9779 58.3314 64.0208 58.272 64.0703 58.2185C64.118 58.1642 64.1741 58.1178 64.2363 58.0811Z" fill="#FAA7B1"/>
<path d="M64.7917 58.357C64.7945 58.2724 64.8061 58.1884 64.8263 58.1062C64.8459 58.0235 64.8752 57.9433 64.9135 57.8674C64.9498 57.7933 64.9956 57.7242 65.0496 57.6619C65.1019 57.6002 65.1646 57.5481 65.2347 57.5079C65.2899 57.4726 65.3533 57.452 65.4187 57.4482C65.4687 57.4471 65.5174 57.4641 65.556 57.4959C65.5967 57.5337 65.6267 57.5815 65.6432 57.6345C65.6645 57.7026 65.6761 57.7733 65.6778 57.8447C65.6778 57.9056 65.6778 57.9713 65.6778 58.0393C65.6778 58.1074 65.6778 58.1731 65.6778 58.234C65.6728 58.3158 65.66 58.397 65.6396 58.4764C65.6188 58.5588 65.5895 58.6389 65.5524 58.7153C65.5157 58.7894 65.4695 58.8584 65.4151 58.9207C65.3627 58.9815 65.3005 59.0331 65.2312 59.0736C65.1754 59.1089 65.1118 59.1298 65.0461 59.1345C64.9963 59.1361 64.9477 59.1191 64.9099 59.0867C64.8687 59.0489 64.8386 59.0006 64.8227 58.947C64.8008 58.879 64.7891 58.8082 64.7881 58.7368C64.7881 58.6783 64.7881 58.6174 64.7881 58.5457C64.7881 58.4741 64.7893 58.4155 64.7917 58.357ZM65.4151 58.3749C65.4151 58.3487 65.4151 58.3188 65.4151 58.2866C65.4151 58.2543 65.4151 58.2209 65.4151 58.1874C65.4151 58.154 65.4151 58.1217 65.4151 58.0907C65.4151 58.0596 65.4151 58.0322 65.4151 58.0083C65.4135 57.9771 65.4083 57.9463 65.3996 57.9163C65.3939 57.8938 65.3824 57.8732 65.3661 57.8566C65.3511 57.8427 65.3316 57.8346 65.3112 57.8339C65.284 57.8356 65.2577 57.8442 65.2347 57.859C65.2057 57.8754 65.1798 57.8968 65.1583 57.9223C65.136 57.9482 65.1175 57.9771 65.1034 58.0083C65.0885 58.04 65.0769 58.0733 65.0687 58.1074C65.0609 58.1432 65.0561 58.1795 65.0544 58.2161C65.0544 58.2424 65.0544 58.271 65.0544 58.3033C65.0544 58.3355 65.0544 58.3666 65.0544 58.4C65.0544 58.4334 65.0544 58.4669 65.0544 58.4979C65.0544 58.529 65.0544 58.5589 65.0544 58.5839C65.0526 58.639 65.0699 58.693 65.1034 58.7368C65.132 58.7679 65.1762 58.7667 65.2347 58.7368C65.2929 58.7026 65.3385 58.6507 65.3649 58.5887C65.3952 58.5196 65.4122 58.4455 65.4151 58.3702V58.3749Z" fill="#FAA7B1"/>
<path d="M65.8103 57.7598C65.8137 57.6757 65.8253 57.5921 65.845 57.5102C65.865 57.4276 65.8943 57.3475 65.9322 57.2714C65.9688 57.1975 66.0146 57.1285 66.0683 57.066C66.1206 57.0045 66.1832 56.9528 66.2534 56.9131C66.3084 56.8765 66.3725 56.8558 66.4385 56.8534C66.4883 56.8518 66.5369 56.8688 66.5747 56.9011C66.6164 56.9376 66.6466 56.9853 66.6619 57.0385C66.6836 57.1065 66.6953 57.1773 66.6965 57.2487C66.6965 57.3108 66.6965 57.3753 66.6965 57.4445C66.6965 57.5138 66.6965 57.5771 66.6965 57.638C66.6938 57.7226 66.6822 57.8067 66.6619 57.8888C66.6422 57.9716 66.6129 58.0517 66.5747 58.1277C66.5386 58.2019 66.4928 58.271 66.4385 58.3331C66.3854 58.3936 66.3229 58.4452 66.2534 58.486C66.198 58.522 66.1343 58.543 66.0683 58.5469C66.0186 58.5485 65.97 58.5315 65.9322 58.4991C65.8911 58.4612 65.861 58.4129 65.845 58.3594C65.8237 58.2913 65.812 58.2205 65.8103 58.1492C65.8103 58.0907 65.8103 58.0298 65.8103 57.9581C65.8103 57.8864 65.8092 57.8279 65.8103 57.7598ZM66.4338 57.779C66.4338 57.7515 66.4338 57.7216 66.4338 57.6894C66.4338 57.6571 66.4338 57.6237 66.4338 57.5903C66.4338 57.5568 66.4338 57.5246 66.4338 57.4935C66.4338 57.4625 66.4338 57.4362 66.4338 57.4111C66.432 57.3801 66.4272 57.3493 66.4194 57.3191C66.4126 57.2968 66.4008 57.2764 66.3848 57.2594C66.3776 57.2523 66.369 57.2468 66.3595 57.2431C66.3501 57.2394 66.34 57.2376 66.3299 57.2379C66.3027 57.2387 66.2762 57.2469 66.2534 57.2618C66.2243 57.2786 66.1984 57.3004 66.177 57.3263C66.1549 57.3519 66.1364 57.3805 66.1221 57.4111C66.1072 57.4428 66.096 57.476 66.0886 57.5102C66.0804 57.5464 66.0752 57.5831 66.0731 57.6201C66.0731 57.6448 66.0731 57.6735 66.0731 57.7061V57.902C66.0731 57.933 66.0731 57.9617 66.0731 57.9868C66.0713 58.0418 66.0886 58.0958 66.1221 58.1396C66.1507 58.1719 66.1949 58.1707 66.2534 58.1396C66.312 58.1066 66.3578 58.0549 66.3836 57.9927C66.4127 57.9262 66.4297 57.855 66.4338 57.7825V57.779Z" fill="#FAA7B1"/>
<path d="M67.5086 57.7431C67.4919 57.7527 67.4787 57.7539 67.4692 57.7431C67.4614 57.7384 67.4548 57.7318 67.4501 57.724L67.1252 57.1627V57.902C67.1252 57.9186 67.1211 57.9351 67.1133 57.9498C67.1086 57.9636 67.0993 57.9753 67.087 57.9832L66.9007 58.0907C66.8969 58.0939 66.892 58.0956 66.887 58.0956C66.882 58.0956 66.8771 58.0939 66.8732 58.0907C66.8652 58.081 66.8614 58.0686 66.8625 58.056V56.6456C66.8625 56.6291 66.8661 56.6127 66.8732 56.5978C66.8788 56.5841 66.8884 56.5725 66.9007 56.5644L67.0488 56.4784C67.0545 56.4746 67.0611 56.4726 67.0679 56.4726C67.0747 56.4726 67.0814 56.4746 67.087 56.4784C67.0948 56.4831 67.1014 56.4897 67.1061 56.4975L67.431 57.0552V56.3172C67.4311 56.3003 67.4347 56.2836 67.4417 56.2682C67.4472 56.2548 67.4568 56.2435 67.4692 56.236L67.6543 56.1285C67.6582 56.1253 67.663 56.1235 67.668 56.1235C67.6731 56.1235 67.6779 56.1253 67.6818 56.1285C67.686 56.1333 67.6893 56.139 67.6913 56.1452C67.6934 56.1513 67.6942 56.1578 67.6937 56.1643V57.5759C67.6931 57.5925 67.689 57.6088 67.6818 57.6237C67.6763 57.6374 67.6667 57.6491 67.6543 57.6572L67.5086 57.7431Z" fill="#FAA7B1"/>
<path d="M45.0811 58.074V68.6685L33.8584 62.1883L33.8572 51.5961L45.0811 58.074Z" fill="#DB284E"/>
<path d="M45.0811 58.074V68.6685L33.8584 62.1883L33.8572 51.5961L45.0811 58.074Z" fill="#DB284E"/>
<path opacity="0.1" d="M45.0811 58.074V68.6685L33.8584 62.1883L33.8572 51.5961L45.0811 58.074Z" fill="#48081A"/>
<path d="M34.7231 52.7605L44.5044 58.4095V67.3368L34.7231 61.689V52.7605Z" fill="#FAA7B1"/>
<path d="M44.5044 66.5414V66.3611L34.7231 60.7145V60.8948L44.5044 66.5414Z" fill="#FEE5E7"/>
<path d="M44.5044 65.512V65.3316L34.7231 59.685V59.8654L44.5044 65.512Z" fill="#FEE5E7"/>
<path d="M44.5044 64.4825V64.3022L34.7231 58.6556V58.8359L44.5044 64.4825Z" fill="#FEE5E7"/>
<path d="M44.5044 63.453V63.2727L34.7231 57.6261V57.8064L44.5044 63.453Z" fill="#FEE5E7"/>
<path d="M44.5044 62.4247V62.2432L34.7231 56.5966V56.777L44.5044 62.4247Z" fill="#FEE5E7"/>
<path d="M44.5044 61.3953V61.2137L34.7231 55.5671V55.7475L44.5044 61.3953Z" fill="#FEE5E7"/>
<path d="M44.5044 60.3658V60.1843L34.7231 54.5377V54.718L44.5044 60.3658Z" fill="#FEE5E7"/>
<path d="M44.5044 59.3363V59.1548L34.7231 53.5082V53.6885L44.5044 59.3363Z" fill="#FEE5E7"/>
<path d="M34.4351 61.8551L34.7229 61.6891V52.7606L34.4351 52.5934V61.8551Z" fill="#DB284E"/>
<path opacity="0.35" d="M34.4351 61.8551L34.7229 61.6891V52.7606L34.4351 52.5934V61.8551Z" fill="#48081A"/>
<path d="M45.0811 68.6685L45.3689 68.5025V57.908L45.0811 58.074V68.6685Z" fill="#DB284E"/>
<path opacity="0.35" d="M45.0811 68.6685L45.3689 68.5025V57.908L45.0811 58.074V68.6685Z" fill="#48081A"/>
<path d="M34.4351 61.8551L34.7229 61.6891L44.5041 67.3369V67.6701L34.4351 61.8551Z" fill="#DB284E"/>
<path opacity="0.2" d="M34.4351 61.8551L34.7229 61.6891L44.5041 67.3369V67.6701L34.4351 61.8551Z" fill="#48081A"/>
<path d="M33.8572 51.5962L34.1462 51.4301L45.3689 57.908L45.0799 58.0752L33.8572 51.5962Z" fill="#DB284E"/>
<path opacity="0.5" d="M33.8572 51.5962L34.1462 51.4301L45.3689 57.908L45.0799 58.0752L33.8572 51.5962Z" fill="#FEF2F2"/>
<path d="M46.0509 57.7981V56.4521L43.3291 59.3698L46.0509 57.7981Z" fill="#FEF2F2"/>
<path d="M30.5 52.6387C30.5108 52.8402 30.5689 53.0363 30.6698 53.2111C30.7706 53.3858 30.9113 53.5343 31.0804 53.6443H31.0864C31.4065 53.8295 31.6668 53.6802 31.6668 53.3099V52.6328L30.5 51.9592V52.6387Z" fill="#FEF2F2"/>
<path d="M32.8324 53.9859C32.8434 54.1872 32.9017 54.383 33.0026 54.5575C33.1034 54.732 33.244 54.8803 33.4128 54.9903C33.7329 55.1754 33.9932 55.025 33.9932 54.6559V53.9788L32.8264 53.3052L32.8324 53.9859Z" fill="#FEF2F2"/>
<path d="M35.1648 55.3319C35.1758 55.5333 35.2341 55.7293 35.335 55.904C35.4358 56.0787 35.5763 56.2272 35.7452 56.3375C36.0653 56.5226 36.3256 56.3721 36.3256 56.0019V55.3259L35.1648 54.6547V55.3319Z" fill="#FEF2F2"/>
<path d="M37.4974 56.685C37.5085 56.8864 37.5668 57.0824 37.6676 57.2571C37.7684 57.4318 37.909 57.5803 38.0779 57.6906C38.3979 57.8757 38.6583 57.7264 38.6583 57.3562V56.679L37.4915 56.0054L37.4974 56.685Z" fill="#FEF2F2"/>
<path d="M39.8298 58.0262C39.8409 58.2275 39.8992 58.4233 40 58.5978C40.1009 58.7723 40.2414 58.9206 40.4103 59.0306H40.4162C40.7363 59.2157 40.9967 59.0653 40.9967 58.6962V58.0226L39.8298 57.3491V58.0262Z" fill="#FEF2F2"/>
<path d="M42.1633 59.3722C42.1741 59.5737 42.2323 59.7697 42.3331 59.9445C42.434 60.1192 42.5747 60.2677 42.7438 60.3778H42.7497C43.0698 60.5629 43.329 60.4124 43.329 60.0422V59.3662L42.1633 58.6926V59.3722Z" fill="#FEF2F2"/>
<path d="M43.3291 59.3698L30.5 51.9616L33.2218 49.0439L46.0508 56.4521L43.3291 59.3698Z" fill="#FEF2F2"/>
<path d="M42.1634 58.6962L44.8852 55.7785L43.7184 55.1049L40.9966 58.0226L42.1634 58.6962Z" fill="#DB284E"/>
<path d="M39.8311 57.349L42.5529 54.4314L41.3861 53.7578L38.6643 56.6755L39.8311 57.349Z" fill="#DB284E"/>
<path d="M37.4984 56.0031L40.2201 53.0843L39.0533 52.4119L36.3315 55.3295L37.4984 56.0031Z" fill="#DB284E"/>
<path d="M35.1661 54.6559L37.8879 51.7383L36.7211 51.0647L33.9993 53.9823L35.1661 54.6559Z" fill="#DB284E"/>
<path d="M32.8336 53.3088L35.5554 50.3911L34.3885 49.7175L31.6667 52.6352L32.8336 53.3088Z" fill="#DB284E"/>
<path d="M31.6656 53.3123C31.6765 53.5136 31.7347 53.7095 31.8356 53.884C31.9364 54.0586 32.0771 54.2068 32.2461 54.3167C32.5673 54.5018 32.8265 54.3526 32.8265 53.9823V53.3052L31.6597 52.6316L31.6656 53.3123Z" fill="#DB284E"/>
<path d="M33.9991 54.6547C34.01 54.8559 34.0682 55.0516 34.1688 55.2261C34.2694 55.4006 34.4097 55.5489 34.5784 55.6591C34.8996 55.8442 35.1588 55.6938 35.1588 55.3235V54.6547L33.9932 53.9811L33.9991 54.6547Z" fill="#DB284E"/>
<path d="M36.3315 56.0055C36.3423 56.207 36.4005 56.403 36.5013 56.5778C36.6022 56.7525 36.7429 56.901 36.912 57.0111H36.9179C37.238 57.1962 37.4972 57.0457 37.4972 56.6755V55.9983L36.3315 55.3259V56.0055Z" fill="#DB284E"/>
<path d="M38.6642 57.3526C38.6751 57.554 38.7334 57.75 38.8345 57.9246C38.9356 58.0991 39.0765 58.2473 39.2458 58.357C39.5659 58.5421 39.8251 58.3928 39.8251 58.0226V57.3455L38.6594 56.6719L38.6642 57.3526Z" fill="#DB284E"/>
<path d="M40.9967 58.6998C41.0076 58.9011 41.0659 59.0969 41.1667 59.2714C41.2676 59.4459 41.4082 59.5942 41.5771 59.7042C41.8972 59.8893 42.1575 59.7388 42.1575 59.3686V58.6926L40.9907 58.019L40.9967 58.6998Z" fill="#DB284E"/>
<g opacity="0.2">
<path d="M31.6656 53.3123C31.6765 53.5136 31.7347 53.7095 31.8356 53.884C31.9364 54.0586 32.0771 54.2068 32.2461 54.3167C32.5673 54.5018 32.8265 54.3526 32.8265 53.9823V53.3052L31.6597 52.6316L31.6656 53.3123Z" fill="#48081A"/>
<path d="M33.9991 54.6547C34.01 54.8559 34.0682 55.0516 34.1688 55.2261C34.2694 55.4006 34.4097 55.5489 34.5784 55.6591C34.8996 55.8442 35.1588 55.6938 35.1588 55.3235V54.6547L33.9932 53.9811L33.9991 54.6547Z" fill="#48081A"/>
<path d="M36.3315 56.0055C36.3423 56.207 36.4005 56.403 36.5013 56.5778C36.6022 56.7525 36.7429 56.901 36.912 57.0111H36.9179C37.238 57.1962 37.4972 57.0457 37.4972 56.6755V55.9983L36.3315 55.3259V56.0055Z" fill="#48081A"/>
<path d="M38.6642 57.3526C38.6751 57.554 38.7334 57.75 38.8345 57.9246C38.9356 58.0991 39.0765 58.2473 39.2458 58.357C39.5659 58.5421 39.8251 58.3928 39.8251 58.0226V57.3455L38.6594 56.6719L38.6642 57.3526Z" fill="#48081A"/>
<path d="M40.9967 58.6998C41.0076 58.9011 41.0659 59.0969 41.1667 59.2714C41.2676 59.4459 41.4082 59.5942 41.5771 59.7042C41.8972 59.8893 42.1575 59.7388 42.1575 59.3686V58.6926L40.9907 58.019L40.9967 58.6998Z" fill="#48081A"/>
</g>
<g opacity="0.1">
<path d="M42.1634 58.6962L44.8852 55.7785L43.7184 55.1049L40.9966 58.0226L42.1634 58.6962Z" fill="#48081A"/>
<path d="M39.8311 57.349L42.5529 54.4314L41.3861 53.7578L38.6643 56.6754L39.8311 57.349Z" fill="#48081A"/>
<path d="M37.4984 56.0031L40.2201 53.0842L39.0533 52.4118L36.3315 55.3295L37.4984 56.0031Z" fill="#48081A"/>
<path d="M35.1661 54.6559L37.8879 51.7382L36.7211 51.0647L33.9993 53.9823L35.1661 54.6559Z" fill="#48081A"/>
<path d="M32.8336 53.3088L35.5554 50.3911L34.3885 49.7175L31.6667 52.6352L32.8336 53.3088Z" fill="#48081A"/>
</g>
<path opacity="0.15" d="M41.8612 61.0167L36.9741 58.1958V61.7858L41.8612 64.6079V61.0167Z" fill="#48081A"/>
<path d="M41.7252 61.0991L36.8381 58.2782V61.8694L41.7252 64.6903V61.0991Z" fill="#DB284E"/>
<path d="M37.5463 59.2097C37.573 59.225 37.5975 59.2439 37.6191 59.2658C37.6409 59.2868 37.6595 59.311 37.6741 59.3375C37.6892 59.3654 37.7008 59.3951 37.7087 59.4259C37.717 59.4595 37.721 59.494 37.7206 59.5286C37.7228 59.5658 37.7163 59.603 37.7015 59.6373C37.6966 59.6481 37.6889 59.6574 37.6793 59.6643C37.6697 59.6712 37.6584 59.6755 37.6466 59.6767L37.723 59.949C37.7241 59.9525 37.7241 59.9562 37.723 59.9597C37.7246 59.964 37.7246 59.9686 37.723 59.9729C37.7217 59.974 37.72 59.9747 37.7182 59.9747C37.7165 59.9747 37.7148 59.974 37.7135 59.9729L37.6287 59.9239C37.6208 59.9202 37.6144 59.9139 37.6108 59.906C37.6108 59.8976 37.6108 59.8905 37.6024 59.8833L37.5343 59.6444L37.477 59.6122V59.8164C37.478 59.8187 37.4785 59.8211 37.4785 59.8236C37.4785 59.826 37.478 59.8285 37.477 59.8307C37.4753 59.8321 37.4732 59.8328 37.471 59.8328C37.4689 59.8328 37.4668 59.8321 37.4651 59.8307L37.3838 59.7842C37.3784 59.7808 37.3743 59.7758 37.3719 59.7698C37.3708 59.7627 37.3708 59.7555 37.3719 59.7483V59.1333C37.3702 59.1283 37.3702 59.1228 37.3719 59.1178C37.3736 59.1164 37.3757 59.1157 37.3779 59.1157C37.38 59.1157 37.3822 59.1164 37.3838 59.1178L37.5463 59.2097ZM37.4758 59.4581L37.5463 59.4987C37.5524 59.5031 37.5594 59.5063 37.5668 59.5079C37.5742 59.5095 37.5818 59.5097 37.5893 59.5083C37.6 59.5083 37.606 59.4892 37.606 59.4629C37.6069 59.4399 37.6011 59.417 37.5893 59.3972C37.578 59.3811 37.5633 59.3677 37.5463 59.3578L37.4758 59.3172V59.4581Z" fill="#FAA7B1"/>
<path d="M38.1018 60.0457C38.1072 60.0491 38.1114 60.0541 38.1137 60.0601C38.1154 60.0671 38.1154 60.0745 38.1137 60.0816V60.1819C38.1158 60.1869 38.1158 60.1924 38.1137 60.1974C38.112 60.1988 38.1099 60.1995 38.1077 60.1995C38.1056 60.1995 38.1035 60.1988 38.1018 60.1974L37.8128 60.029C37.8099 60.0275 37.8074 60.0255 37.8053 60.0231C37.8033 60.0206 37.8017 60.0178 37.8008 60.0147C37.7991 60.0076 37.7991 60.0003 37.8008 59.9932V59.3781C37.8008 59.371 37.8008 59.365 37.8008 59.3626C37.8008 59.3602 37.808 59.3626 37.8128 59.3626L38.1006 59.5298C38.106 59.5332 38.1102 59.5382 38.1125 59.5441C38.1142 59.5508 38.1142 59.5578 38.1125 59.5644V59.6707C38.1146 59.6757 38.1146 59.6813 38.1125 59.6863C38.1108 59.6874 38.1087 59.6881 38.1066 59.6881C38.1044 59.6881 38.1024 59.6874 38.1006 59.6863L37.9095 59.5764V59.6707L38.0874 59.7734C38.0929 59.7768 38.097 59.7818 38.0994 59.7878C38.1005 59.7949 38.1005 59.8021 38.0994 59.8093V59.9096C38.101 59.9146 38.101 59.9201 38.0994 59.9251C38.0977 59.9265 38.0956 59.9272 38.0934 59.9272C38.0912 59.9272 38.0891 59.9265 38.0874 59.9251L37.9095 59.8224V59.9287L38.1018 60.0457Z" fill="#FAA7B1"/>
<path d="M38.1912 60.0374C38.1858 60.034 38.1816 60.029 38.1792 60.023C38.1776 60.016 38.1776 60.0086 38.1792 60.0015V59.9096C38.1792 59.9024 38.1792 59.8965 38.1792 59.8941C38.1809 59.8927 38.183 59.892 38.1852 59.892C38.1874 59.892 38.1895 59.8927 38.1912 59.8941L38.3858 60.0063C38.391 60.0105 38.3951 60.0158 38.3978 60.0219C38.3996 60.0285 38.3996 60.0355 38.3978 60.0422V60.1389C38.3998 60.1439 38.3998 60.1494 38.3978 60.1544C38.396 60.1556 38.3939 60.1562 38.3918 60.1562C38.3897 60.1562 38.3876 60.1556 38.3858 60.1544L38.1912 60.0374Z" fill="#FAA7B1"/>
<path d="M38.4659 59.9896C38.4662 59.9583 38.4715 59.9273 38.4814 59.8976C38.4882 59.8748 38.501 59.8542 38.5184 59.8379C38.5354 59.8246 38.5565 59.8174 38.5781 59.8176C38.607 59.8185 38.635 59.8272 38.6593 59.8427C38.6897 59.8607 38.7167 59.8837 38.7394 59.9108C38.7637 59.9374 38.7838 59.9676 38.7991 60.0003C38.8162 60.0332 38.8291 60.0681 38.8373 60.1042C38.846 60.1399 38.8512 60.1763 38.8528 60.2129C38.8528 60.2404 38.8528 60.2702 38.8528 60.3001C38.8528 60.3299 38.8528 60.3574 38.8528 60.3825C38.8519 60.4137 38.8467 60.4447 38.8373 60.4745C38.8305 60.4979 38.8173 60.5191 38.7991 60.5354C38.791 60.5426 38.7816 60.5482 38.7713 60.5516C38.761 60.5551 38.7502 60.5565 38.7394 60.5557C38.7108 60.5542 38.6832 60.5451 38.6593 60.5294C38.6287 60.5119 38.6012 60.4892 38.5781 60.4625C38.5546 60.4353 38.5345 60.4052 38.5184 60.3729C38.5022 60.3398 38.4898 60.305 38.4814 60.269C38.4721 60.2331 38.4669 60.1963 38.4659 60.1592C38.4659 60.1329 38.4659 60.1054 38.4659 60.0756C38.4659 60.0457 38.4647 60.017 38.4659 59.9896ZM38.7382 60.312C38.7382 60.3001 38.7382 60.2881 38.7382 60.275V60.189C38.7382 60.1747 38.7382 60.1627 38.7382 60.152C38.737 60.1359 38.7346 60.1199 38.731 60.1042C38.7277 60.0895 38.7229 60.075 38.7167 60.0612C38.7106 60.0474 38.7025 60.0345 38.6928 60.023C38.6834 60.0119 38.6721 60.0026 38.6593 59.9955C38.6493 59.9892 38.6378 59.9856 38.6259 59.9848C38.6215 59.9847 38.6171 59.9855 38.613 59.9872C38.6089 59.9888 38.6052 59.9913 38.602 59.9944C38.5949 60.0017 38.59 60.0107 38.5877 60.0206C38.5838 60.0339 38.5814 60.0475 38.5805 60.0612C38.5798 60.0732 38.5798 60.0851 38.5805 60.0971C38.5805 60.1102 38.5805 60.1245 38.5805 60.1389C38.5805 60.1532 38.5805 60.1675 38.5805 60.1819C38.5805 60.1962 38.5805 60.2093 38.5805 60.2213C38.5814 60.2527 38.5887 60.2836 38.602 60.312C38.6133 60.3394 38.6335 60.3621 38.6593 60.3765C38.6844 60.3921 38.7035 60.3921 38.7167 60.3765C38.7299 60.3576 38.7374 60.3352 38.7382 60.312Z" fill="#FAA7B1"/>
<path d="M39.1191 60.1186C39.145 60.1331 39.1688 60.1512 39.1896 60.1723C39.2112 60.1941 39.2293 60.2191 39.2433 60.2464C39.2588 60.2746 39.2704 60.3047 39.278 60.336C39.2863 60.37 39.2904 60.4049 39.2899 60.4399C39.291 60.471 39.287 60.502 39.278 60.5318C39.2723 60.5516 39.2601 60.5689 39.2433 60.5808C39.2357 60.5863 39.2269 60.5901 39.2176 60.5919C39.2084 60.5938 39.1988 60.5936 39.1896 60.5915C39.1646 60.5877 39.1406 60.5788 39.1191 60.5653L39.0391 60.5199V60.7134C39.0391 60.7205 39.0391 60.7265 39.0391 60.7289C39.0374 60.7302 39.0353 60.731 39.0331 60.731C39.031 60.731 39.0289 60.7302 39.0272 60.7289L38.946 60.6823C38.9409 60.6786 38.9368 60.6737 38.934 60.668C38.9329 60.6609 38.9329 60.6536 38.934 60.6465V60.029C38.9325 60.0244 38.9325 60.0194 38.934 60.0147C38.9357 60.0133 38.9378 60.0126 38.94 60.0126C38.9422 60.0126 38.9443 60.0133 38.946 60.0147L39.1191 60.1186ZM39.0391 60.3706L39.1156 60.4148C39.1217 60.4191 39.1288 60.422 39.1362 60.4233C39.1437 60.4245 39.1513 60.4241 39.1585 60.422C39.1705 60.422 39.1753 60.4005 39.1753 60.3742C39.1766 60.3503 39.1708 60.3266 39.1585 60.3061C39.1483 60.2885 39.1334 60.274 39.1156 60.2643L39.0391 60.2201V60.3706Z" fill="#FAA7B1"/>
<path d="M39.6603 60.9451C39.6657 60.9484 39.6699 60.9535 39.6722 60.9594C39.6733 60.9665 39.6733 60.9738 39.6722 60.9809V61.0812C39.674 61.0862 39.674 61.0917 39.6722 61.0967C39.6705 61.0981 39.6684 61.0988 39.6663 61.0988C39.6641 61.0988 39.662 61.0981 39.6603 61.0967L39.3653 60.9283C39.3599 60.925 39.3557 60.9199 39.3533 60.914C39.3517 60.9069 39.3517 60.8996 39.3533 60.8925V60.2774C39.3513 60.2725 39.3513 60.2669 39.3533 60.2619C39.355 60.2606 39.3572 60.2598 39.3593 60.2598C39.3615 60.2598 39.3636 60.2606 39.3653 60.2619L39.6543 60.4291C39.6594 60.4328 39.6635 60.4378 39.6663 60.4435C39.6672 60.4502 39.6672 60.457 39.6663 60.4638V60.5653C39.6678 60.5703 39.6678 60.5757 39.6663 60.5808C39.6646 60.5822 39.6625 60.5829 39.6603 60.5829C39.6581 60.5829 39.656 60.5822 39.6543 60.5808L39.4632 60.4709V60.5748L39.64 60.6763C39.6454 60.6797 39.6496 60.6847 39.6519 60.6907C39.6536 60.6977 39.6536 60.7051 39.6519 60.7122V60.8125C39.654 60.8175 39.654 60.823 39.6519 60.828C39.6502 60.8294 39.6481 60.8301 39.646 60.8301C39.6438 60.8301 39.6417 60.8294 39.64 60.828L39.4632 60.7253V60.8328L39.6603 60.9451Z" fill="#FAA7B1"/>
<path d="M40.0293 61.3117C40.0223 61.3068 40.0165 61.3002 40.0126 61.2926C40.0092 61.2869 40.0064 61.2809 40.0042 61.2746L39.8621 60.865V61.1863C39.8642 61.1912 39.8642 61.1968 39.8621 61.2018C39.8604 61.2031 39.8583 61.2039 39.8561 61.2039C39.854 61.2039 39.8519 61.2031 39.8502 61.2018L39.7689 61.1552C39.7642 61.151 39.7605 61.1457 39.7582 61.1397C39.7544 61.1336 39.7524 61.1266 39.7522 61.1194V60.5067C39.7521 60.5038 39.7525 60.501 39.7535 60.4983C39.7546 60.4956 39.7562 60.4932 39.7582 60.4912C39.7597 60.4899 39.7616 60.4892 39.7636 60.4892C39.7655 60.4892 39.7674 60.4899 39.7689 60.4912L39.8334 60.5282C39.8411 60.5322 39.8473 60.5385 39.8514 60.5461C39.8545 60.5523 39.8573 60.5587 39.8597 60.5652L40.0006 60.9725V60.65C40.0004 60.6473 40.0008 60.6446 40.0019 60.6421C40.0029 60.6396 40.0045 60.6374 40.0066 60.6357C40.0073 60.6349 40.0081 60.6343 40.009 60.6339C40.01 60.6335 40.011 60.6333 40.012 60.6333C40.013 60.6333 40.014 60.6335 40.0149 60.6339C40.0159 60.6343 40.0167 60.6349 40.0174 60.6357L40.0986 60.6823C40.104 60.6857 40.1082 60.6907 40.1105 60.6966C40.1122 60.7037 40.1122 60.711 40.1105 60.7181V61.3332C40.1126 61.3381 40.1126 61.3437 40.1105 61.3487C40.1088 61.35 40.1067 61.3508 40.1045 61.3508C40.1024 61.3508 40.1003 61.35 40.0986 61.3487L40.0293 61.3117Z" fill="#FAA7B1"/>
<path d="M40.2144 61.418C40.209 61.4146 40.2048 61.4096 40.2024 61.4037C40.2008 61.3966 40.2008 61.3892 40.2024 61.3822V60.7671C40.2024 60.7599 40.2024 60.754 40.2024 60.7516C40.2041 60.7502 40.2062 60.7495 40.2084 60.7495C40.2106 60.7495 40.2127 60.7502 40.2144 60.7516L40.2956 60.7982C40.3007 60.8018 40.3048 60.8068 40.3075 60.8125C40.3086 60.8196 40.3086 60.8269 40.3075 60.834V61.4502C40.3091 61.4549 40.3091 61.4599 40.3075 61.4646C40.3058 61.4659 40.3037 61.4667 40.3016 61.4667C40.2994 61.4667 40.2973 61.4659 40.2956 61.4646L40.2144 61.418Z" fill="#FAA7B1"/>
<path d="M40.6789 61.6867C40.6716 61.6826 40.6658 61.6763 40.6622 61.6688C40.6588 61.6631 40.656 61.6571 40.6538 61.6509L40.5117 61.2424V61.5649C40.5138 61.5698 40.5138 61.5754 40.5117 61.5804C40.51 61.5818 40.5079 61.5825 40.5057 61.5825C40.5036 61.5825 40.5014 61.5818 40.4998 61.5804L40.4185 61.5338C40.4135 61.5303 40.4098 61.5253 40.4078 61.5195C40.4064 61.5128 40.4064 61.5059 40.4078 61.4992V60.8829C40.4057 60.878 40.4057 60.8724 40.4078 60.8674C40.4085 60.8667 40.4093 60.866 40.4102 60.8656C40.4111 60.8652 40.4122 60.865 40.4132 60.865C40.4142 60.865 40.4152 60.8652 40.4161 60.8656C40.417 60.866 40.4179 60.8667 40.4185 60.8674L40.483 60.9044C40.4905 60.9093 40.4966 60.9158 40.5009 60.9235C40.5033 60.9297 40.5061 60.9357 40.5093 60.9415L40.6502 61.3499V61.0274C40.6487 61.0224 40.6487 61.017 40.6502 61.0119C40.6519 61.0106 40.654 61.0098 40.6562 61.0098C40.6584 61.0098 40.6605 61.0106 40.6622 61.0119L40.7434 61.0597C40.7488 61.0631 40.753 61.0681 40.7553 61.074C40.757 61.0807 40.757 61.0877 40.7553 61.0943V61.7106C40.7574 61.7156 40.7574 61.7211 40.7553 61.7261C40.7536 61.7275 40.7515 61.7282 40.7494 61.7282C40.7472 61.7282 40.7451 61.7275 40.7434 61.7261L40.6789 61.6867Z" fill="#FAA7B1"/>
<path d="M41.0264 61.3619C41.0156 61.3551 41.0032 61.3514 40.9905 61.3511C40.9862 61.351 40.9818 61.3519 40.9779 61.3538C40.974 61.3556 40.9705 61.3584 40.9679 61.3619C40.9612 61.3699 40.9563 61.3793 40.9535 61.3893C40.9509 61.402 40.9489 61.4147 40.9476 61.4276C40.9476 61.4359 40.9476 61.4467 40.9476 61.461V61.553C40.9476 61.5673 40.9476 61.5792 40.9476 61.5876C40.9476 61.596 40.9476 61.6186 40.9535 61.633C40.9569 61.6478 40.9617 61.6622 40.9679 61.676C40.9735 61.6897 40.9812 61.7026 40.9905 61.7142C41.0005 61.7263 41.0127 61.7364 41.0264 61.744C41.0355 61.7495 41.0457 61.7532 41.0562 61.7548C41.0602 61.7566 41.0644 61.7576 41.0688 61.7576C41.0731 61.7576 41.0774 61.7566 41.0813 61.7548C41.0893 61.7493 41.0952 61.7413 41.098 61.7321C41.1023 61.7174 41.1044 61.7021 41.104 61.6867L41.0515 61.6569C41.0464 61.6534 41.0427 61.6483 41.0407 61.6425C41.0371 61.6364 41.0351 61.6294 41.0347 61.6222V61.5207C41.0346 61.5179 41.035 61.515 41.0361 61.5123C41.0371 61.5096 41.0387 61.5072 41.0407 61.5052C41.0414 61.5044 41.0422 61.5038 41.0431 61.5034C41.0441 61.503 41.0451 61.5028 41.0461 61.5028C41.0471 61.5028 41.0481 61.503 41.049 61.5034C41.05 61.5038 41.0508 61.5044 41.0515 61.5052L41.2019 61.5912C41.2073 61.5946 41.2115 61.5996 41.2139 61.6055C41.215 61.6126 41.215 61.6199 41.2139 61.627V61.7464C41.2151 61.7806 41.2099 61.8146 41.1984 61.8468C41.1913 61.8704 41.1771 61.8912 41.1577 61.9065C41.14 61.9189 41.1185 61.9248 41.0968 61.9232C41.0699 61.921 41.044 61.9119 41.0216 61.8969C40.9916 61.8795 40.9645 61.8573 40.9416 61.8312C40.9179 61.8036 40.8978 61.7731 40.8819 61.7405C40.8656 61.7072 40.8528 61.6724 40.8437 61.6366C40.8351 61.6009 40.8299 61.5645 40.8281 61.5279C40.8281 61.5016 40.8281 61.4729 40.8281 61.4431C40.8281 61.4132 40.8281 61.3846 40.8281 61.3583C40.8285 61.327 40.8337 61.296 40.8437 61.2663C40.8507 61.2433 40.8639 61.2227 40.8819 61.2066C40.8982 61.192 40.9196 61.1843 40.9416 61.1851C40.9701 61.1866 40.9977 61.1957 41.0216 61.2114C41.0511 61.2281 41.0774 61.2499 41.0992 61.2759C41.1219 61.3014 41.1416 61.3294 41.1577 61.3595C41.1735 61.3872 41.1863 61.4164 41.196 61.4467C41.2041 61.4714 41.209 61.4971 41.2103 61.5231C41.2116 61.5251 41.2123 61.5273 41.2123 61.5297C41.2123 61.532 41.2116 61.5343 41.2103 61.5362C41.209 61.5374 41.2073 61.5381 41.2055 61.5381C41.2038 61.5381 41.2021 61.5374 41.2007 61.5362L41.1183 61.4885C41.1118 61.4847 41.1068 61.4788 41.104 61.4717L41.0933 61.4491C41.0872 61.433 41.0792 61.4178 41.0694 61.4037C41.0588 61.3863 41.044 61.3719 41.0264 61.3619Z" fill="#FAA7B1"/>
<path d="M37.7375 60.3193C37.8 60.3556 37.8565 60.4015 37.9047 60.4554C37.9546 60.5108 37.9986 60.5712 38.036 60.6357C38.0711 60.696 38.0999 60.7596 38.122 60.8256C38.1412 60.8786 38.1521 60.9342 38.1543 60.9905C38.1554 61.0007 38.1524 61.011 38.1459 61.0191C38.1428 61.0214 38.139 61.0227 38.1352 61.0227C38.1313 61.0227 38.1275 61.0214 38.1244 61.0191L37.9393 60.9116C37.9268 60.9048 37.9158 60.8954 37.9071 60.8842C37.8974 60.8715 37.889 60.8579 37.882 60.8436L37.8688 60.8137C37.8609 60.7977 37.8521 60.7822 37.8426 60.7671C37.8298 60.7484 37.8154 60.7308 37.7996 60.7146C37.7815 60.6952 37.7605 60.6787 37.7375 60.6656C37.7208 60.6566 37.7037 60.6487 37.6861 60.6417C37.672 60.6365 37.657 60.6337 37.6419 60.6334C37.6358 60.6335 37.6298 60.6352 37.6244 60.6381C37.619 60.641 37.6144 60.6451 37.6109 60.6501C37.601 60.6639 37.5963 60.6809 37.5977 60.6979C37.5978 60.7194 37.6027 60.7406 37.6121 60.76C37.624 60.7843 37.6393 60.8068 37.6575 60.8268C37.6842 60.8566 37.7125 60.8849 37.7422 60.9116L37.8724 61.0311C37.9214 61.074 37.9669 61.1207 38.0086 61.1708C38.0467 61.2165 38.0792 61.2666 38.1053 61.3201C38.1315 61.372 38.1512 61.4269 38.1638 61.4837C38.1772 61.5461 38.1836 61.6098 38.1829 61.6736C38.1854 61.7349 38.1744 61.7961 38.1507 61.8527C38.1326 61.8953 38.1 61.93 38.0587 61.9507C38.0151 61.9696 37.9667 61.9746 37.9202 61.965C37.8583 61.9523 37.7989 61.9293 37.7446 61.8969C37.6793 61.8587 37.6197 61.8112 37.5679 61.756C37.5163 61.7 37.4707 61.6387 37.4317 61.5733C37.3949 61.5104 37.3645 61.444 37.341 61.375C37.3209 61.3157 37.3096 61.2537 37.3075 61.1911C37.3066 61.1812 37.3096 61.1713 37.3159 61.1636C37.3189 61.1611 37.3227 61.1597 37.3266 61.1597C37.3306 61.1597 37.3344 61.1611 37.3374 61.1636L37.5225 61.2711C37.5349 61.2772 37.5458 61.2857 37.5547 61.2962C37.563 61.3077 37.5705 61.3197 37.5774 61.332C37.5774 61.3404 37.5858 61.3535 37.5942 61.3702C37.6029 61.3903 37.6129 61.4099 37.624 61.4288C37.6381 61.4515 37.6545 61.4727 37.673 61.4921C37.6937 61.5148 37.7179 61.5342 37.7446 61.5494C37.781 61.5728 37.8216 61.589 37.8641 61.5972C37.8975 61.5972 37.9142 61.5792 37.9142 61.535C37.9139 61.512 37.9077 61.4894 37.8963 61.4694C37.8802 61.4435 37.8614 61.4195 37.8402 61.3977C37.811 61.3651 37.7795 61.3348 37.7458 61.3069C37.7076 61.2735 37.6622 61.2329 37.6109 61.1875C37.5204 61.1088 37.4476 61.012 37.3971 60.9033C37.3508 60.7963 37.328 60.6806 37.3302 60.5641C37.3286 60.5083 37.3379 60.4527 37.3577 60.4005C37.373 60.3584 37.4009 60.3221 37.4377 60.2966C37.475 60.2719 37.5198 60.2609 37.5643 60.2655C37.6254 60.2698 37.6847 60.2882 37.7375 60.3193Z" fill="#FAA7B1"/>
<path d="M38.2903 61.2317C38.2913 61.1603 38.303 61.0894 38.3249 61.0215C38.3405 60.9684 38.3702 60.9205 38.4109 60.8829C38.4492 60.8514 38.4975 60.8345 38.5471 60.8352C38.6129 60.8384 38.6768 60.859 38.7322 60.8949C38.8021 60.9354 38.8647 60.9875 38.9173 61.0489C38.9713 61.1115 39.0174 61.1805 39.0546 61.2544C39.092 61.3306 39.1209 61.4107 39.1406 61.4932C39.1609 61.5754 39.1725 61.6594 39.1753 61.744C39.1753 61.8085 39.1753 61.8742 39.1753 61.9423C39.1753 62.0103 39.1753 62.0748 39.1753 62.1334C39.1741 62.2047 39.1624 62.2756 39.1406 62.3435C39.125 62.3967 39.0953 62.4445 39.0546 62.4821C39.0168 62.5153 38.9675 62.5324 38.9173 62.5299C38.8515 62.526 38.7878 62.5055 38.7322 62.4701C38.6627 62.4294 38.6002 62.3778 38.5471 62.3173C38.4938 62.2543 38.4481 62.1854 38.4109 62.1119C38.3738 62.0355 38.345 61.9555 38.3249 61.873C38.3048 61.7908 38.2932 61.7068 38.2903 61.6222C38.2903 61.5613 38.2903 61.4968 38.2903 61.4275C38.2903 61.3583 38.2903 61.2938 38.2903 61.2317ZM38.9125 61.9697C38.9125 61.9435 38.9125 61.9148 38.9125 61.8837C38.9125 61.8527 38.9125 61.8193 38.9125 61.7858C38.9125 61.7524 38.9125 61.7201 38.9125 61.6879C38.9125 61.6556 38.9125 61.6282 38.9125 61.6019C38.9114 61.5653 38.9066 61.5289 38.8982 61.4932C38.8906 61.4589 38.879 61.4256 38.8635 61.3941C38.8493 61.3633 38.8313 61.3344 38.8098 61.3081C38.7876 61.2829 38.7613 61.2615 38.7322 61.2448C38.7093 61.23 38.6829 61.2214 38.6557 61.2197C38.6356 61.2201 38.6163 61.2283 38.602 61.2424C38.5853 61.2589 38.5734 61.2795 38.5674 61.3021C38.5585 61.332 38.5533 61.3629 38.5518 61.3941C38.5518 61.418 38.5518 61.4454 38.5518 61.4765V61.6724C38.5518 61.7046 38.5518 61.7345 38.5518 61.7607C38.5553 61.8333 38.5723 61.9046 38.602 61.9709C38.6284 62.0329 38.6741 62.0848 38.7322 62.119C38.7919 62.1525 38.8349 62.1537 38.8635 62.119C38.8961 62.076 38.914 62.0237 38.9149 61.9697H38.9125Z" fill="#FAA7B1"/>
<path d="M39.3116 61.8205C39.3128 61.7487 39.3245 61.6775 39.3462 61.6091C39.3618 61.556 39.392 61.5084 39.4334 61.4717C39.4713 61.4394 39.5198 61.4223 39.5696 61.424C39.6355 61.427 39.6994 61.4476 39.7547 61.4837C39.8243 61.5237 39.8865 61.5754 39.9386 61.6365C39.9928 61.6995 40.0389 61.7689 40.076 61.8432C40.1135 61.9193 40.1424 61.9994 40.1619 62.082C40.1826 62.1641 40.1946 62.2482 40.1978 62.3328C40.1978 62.3961 40.1978 62.463 40.1978 62.5311C40.1978 62.5991 40.1978 62.6624 40.1978 62.721C40.1962 62.7928 40.1841 62.864 40.1619 62.9324C40.146 62.9853 40.1164 63.0331 40.076 63.0709C40.0379 63.1037 39.9888 63.1208 39.9386 63.1187C39.873 63.1149 39.8096 63.0939 39.7547 63.0578C39.6843 63.0184 39.6216 62.9666 39.5696 62.9049C39.515 62.843 39.4692 62.7738 39.4334 62.6995C39.3952 62.6235 39.366 62.5433 39.3462 62.4606C39.3259 62.3785 39.3143 62.2944 39.3116 62.2098C39.3116 62.1489 39.3116 62.0844 39.3116 62.0163C39.3116 61.9483 39.3092 61.8814 39.3116 61.8205ZM39.935 62.5573C39.935 62.5323 39.935 62.5036 39.935 62.4726C39.935 62.4415 39.935 62.4081 39.935 62.3746C39.935 62.3412 39.935 62.3089 39.935 62.2767C39.935 62.2444 39.935 62.2158 39.935 62.1907C39.933 62.1541 39.9278 62.1177 39.9195 62.082C39.9062 62.0138 39.8758 61.9501 39.8311 61.8969C39.8093 61.8717 39.7835 61.8503 39.7547 61.8336C39.732 61.8185 39.7055 61.8098 39.6783 61.8085C39.6578 61.8083 39.6382 61.816 39.6233 61.83C39.6071 61.8473 39.5952 61.8682 39.5887 61.8909C39.5802 61.9209 39.5754 61.9518 39.5744 61.9829C39.573 62.0099 39.573 62.0371 39.5744 62.0641C39.5744 62.0952 39.5744 62.1274 39.5744 62.1608C39.5744 62.1943 39.5744 62.2277 39.5744 62.26C39.5744 62.2922 39.5744 62.3221 39.5744 62.3495C39.5776 62.422 39.5942 62.4933 39.6233 62.5597C39.6502 62.6218 39.6962 62.6737 39.7547 62.7078C39.8132 62.7413 39.8562 62.7425 39.8849 62.7078C39.9176 62.6645 39.9352 62.6116 39.935 62.5573Z" fill="#FAA7B1"/>
<path d="M41.0087 63.76C40.9921 63.7495 40.9789 63.7346 40.9705 63.717C40.9622 63.704 40.9557 63.6899 40.9513 63.6752L40.6265 62.7401V63.4793C40.6269 63.4856 40.626 63.4919 40.624 63.4978C40.6219 63.5038 40.6187 63.5092 40.6146 63.5139C40.6107 63.5172 40.6058 63.5189 40.6008 63.5189C40.5958 63.5189 40.5909 63.5172 40.5871 63.5139L40.402 63.4065C40.3893 63.3987 40.3796 63.387 40.3745 63.373C40.3677 63.358 40.364 63.3417 40.3638 63.3253V61.916C40.3631 61.9098 40.3638 61.9035 40.3656 61.8976C40.3675 61.8916 40.3705 61.8861 40.3745 61.8814C40.3782 61.8779 40.3831 61.876 40.3882 61.876C40.3933 61.876 40.3982 61.8779 40.402 61.8814L40.5489 61.9662C40.566 61.9762 40.5798 61.9912 40.5883 62.0091C40.5958 62.0225 40.6022 62.0365 40.6074 62.0509L40.9322 62.9861V62.2468C40.9316 62.2405 40.9324 62.2342 40.9344 62.2282C40.9365 62.2222 40.9398 62.2168 40.9442 62.2122C40.9478 62.2091 40.9525 62.2074 40.9573 62.2074C40.9621 62.2074 40.9668 62.2091 40.9705 62.2122L41.1568 62.3197C41.1691 62.3278 41.1787 62.3394 41.1842 62.3531C41.1911 62.3681 41.1947 62.3844 41.195 62.4009V63.8125C41.1961 63.825 41.1922 63.8375 41.1842 63.8472C41.1805 63.8506 41.1756 63.8525 41.1705 63.8525C41.1654 63.8525 41.1605 63.8506 41.1568 63.8472L41.0087 63.76Z" fill="#FAA7B1"/>
</g>
<defs>
<filter id="filter0_d_879_9825" x="0" y="0" width="105" height="105" filterUnits="userSpaceOnUse" color-interpolation-filters="sRGB">
<feFlood flood-opacity="0" result="BackgroundImageFix"/>
<feColorMatrix in="SourceAlpha" type="matrix" values="0 0 0 0 0 0 0 0 0 0 0 0 0 0 0 0 0 0 127 0" result="hardAlpha"/>
<feOffset dy="1"/>
<feGaussianBlur stdDeviation="10"/>
<feComposite in2="hardAlpha" operator="out"/>
<feColorMatrix type="matrix" values="0 0 0 0 0.141176 0 0 0 0 0.145098 0 0 0 0 0.156863 0 0 0 0.25 0"/>
<feBlend mode="normal" in2="BackgroundImageFix" result="effect1_dropShadow_879_9825"/>
<feBlend mode="normal" in="SourceGraphic" in2="effect1_dropShadow_879_9825" result="shape"/>
</filter>
<linearGradient id="paint0_linear_879_9825" x1="52.5" y1="19" x2="52.5" y2="84" gradientUnits="userSpaceOnUse">
<stop stop-color="#DC2678"/>
<stop offset="1" stop-color="#FAA7D4"/>
</linearGradient>
</defs>
</svg>
