<svg width="105" height="105" viewBox="0 0 105 105" fill="none" xmlns="http://www.w3.org/2000/svg">
<g filter="url(#filter0_d_848_9639)">
<rect x="20" y="19" width="65" height="65" rx="8" fill="url(#paint0_linear_848_9639)" shape-rendering="crispEdges"/>
<path d="M35.0276 31.8882H70.6283V75.6138C70.6283 75.9802 70.4828 76.3316 70.2237 76.5906C69.9647 76.8497 69.6133 76.9953 69.2469 76.9953H36.409C36.0426 76.9953 35.6913 76.8497 35.4322 76.5906C35.1731 76.3316 35.0276 75.9802 35.0276 75.6138V31.8882Z" fill="#FEF2F2" stroke="#9A183A" stroke-miterlimit="10"/>
<path d="M69.6064 31.8947H36.051V74.958H69.6064V31.8947Z" fill="#FEF2F2" stroke="#9A183A" stroke-miterlimit="10"/>
<path d="M69.6064 71.9895H36.051V74.958H69.6064V71.9895Z" fill="#F67688" stroke="#9A183A" stroke-miterlimit="10"/>
<path d="M43.4828 51.2295C45.8136 51.2295 47.7031 49.34 47.7031 47.0092C47.7031 44.6784 45.8136 42.7889 43.4828 42.7889C41.152 42.7889 39.2625 44.6784 39.2625 47.0092C39.2625 49.34 41.152 51.2295 43.4828 51.2295Z" fill="#9A183A"/>
<path d="M53.2384 51.2295C55.5692 51.2295 57.4587 49.34 57.4587 47.0092C57.4587 44.6784 55.5692 42.7889 53.2384 42.7889C50.9076 42.7889 49.0181 44.6784 49.0181 47.0092C49.0181 49.34 50.9076 51.2295 53.2384 51.2295Z" fill="#9A183A"/>
<path d="M62.9943 51.2295C65.3251 51.2295 67.2146 49.34 67.2146 47.0092C67.2146 44.6784 65.3251 42.7889 62.9943 42.7889C60.6634 42.7889 58.7739 44.6784 58.7739 47.0092C58.7739 49.34 60.6634 51.2295 62.9943 51.2295Z" fill="#9A183A"/>
<path d="M40.5806 45.9323C40.5806 45.9323 42.4413 40.852 43.5345 40.852C44.6276 40.852 46.5483 45.8723 46.5483 45.8723L46.2244 45.9015C46.2244 45.9015 44.3345 41.4998 43.7725 41.2342C43.2106 40.9686 42.1774 42.5638 40.9077 45.9306L40.5806 45.9323Z" fill="#FEF2F2" stroke="#9A183A" stroke-linecap="round" stroke-linejoin="round"/>
<path d="M40.8384 45.6375H46.2912C46.4767 45.6375 46.6547 45.7112 46.7859 45.8424C46.9171 45.9736 46.9908 46.1516 46.9908 46.3371V49.2165C46.9908 49.3651 46.9318 49.5077 46.8267 49.6128C46.7216 49.7178 46.5791 49.7769 46.4305 49.7769H40.6975C40.5489 49.7769 40.4064 49.7178 40.3013 49.6128C40.1962 49.5077 40.1372 49.3651 40.1372 49.2165V46.3371C40.1372 46.2451 40.1554 46.154 40.1906 46.069C40.2259 45.984 40.2776 45.9068 40.3427 45.8419C40.4078 45.7769 40.4851 45.7254 40.5702 45.6903C40.6553 45.6552 40.7464 45.6373 40.8384 45.6375Z" fill="#FEF2F2" stroke="#9A183A" stroke-linecap="round" stroke-linejoin="round"/>
<path d="M40.1968 47.853H46.401" stroke="#9A183A" stroke-linecap="round" stroke-linejoin="round"/>
<path d="M46.6667 45.7849C46.6667 45.7849 46.5194 45.9631 46.5194 46.4651C46.5194 46.9671 46.3412 49.6263 46.372 49.7445C46.4028 49.8627 46.5777 49.7737 46.5777 49.7737" fill="#FEF2F2"/>
<path d="M46.6667 45.7849C46.6667 45.7849 46.5194 45.9631 46.5194 46.4651C46.5194 46.9671 46.3412 49.6263 46.372 49.7445C46.4028 49.8627 46.5777 49.7737 46.5777 49.7737" stroke="#9A183A" stroke-linecap="round" stroke-linejoin="round"/>
<path d="M43.5364 47.2618H43.0635V48.3258H43.5364V47.2618Z" fill="#FEF2F2" stroke="#9A183A" stroke-linecap="round" stroke-linejoin="round"/>
<path d="M49.5427 44.5395C49.5427 44.5395 51.5169 44.3679 53.8327 44.3679C56.1485 44.3679 57.2336 44.512 57.2643 44.6545C57.2951 44.797 56.9502 46.6562 56.9502 46.8278C56.9502 46.9995 56.9502 49.4012 56.8919 49.5437C56.8336 49.6862 56.5777 49.8012 56.4643 49.8303C56.351 49.8595 50.3444 49.9162 50.1727 49.9162C50.0868 49.9088 50.0068 49.8695 49.9486 49.8058C49.8904 49.7422 49.8582 49.659 49.8585 49.5728C49.8585 49.4012 49.9444 47.5145 49.8002 46.8278C49.6561 46.1412 49.5427 44.5395 49.5427 44.5395Z" fill="#FEF2F2" stroke="#9A183A" stroke-linecap="round" stroke-linejoin="round"/>
<path d="M51.6579 45.4918C51.6579 45.4918 51.6288 43.2326 51.8587 42.4601C51.9569 42.1331 52.1568 41.8459 52.4294 41.6402C52.702 41.4346 53.0331 41.3213 53.3746 41.3168C53.8184 41.3452 54.242 41.5123 54.5858 41.7944C54.9295 42.0766 55.176 42.4595 55.2904 42.8893C55.5754 44.0051 55.3471 45.4059 55.3179 45.5484C55.2888 45.691 54.9746 46.0926 54.9179 45.3201C54.8612 44.5476 54.9746 42.7468 54.7463 42.2318C54.6153 41.9611 54.3984 41.7415 54.1295 41.607C53.8605 41.4726 53.5547 41.4309 53.2596 41.4884C52.6588 41.6309 52.3446 41.8884 52.2296 42.6318C52.1146 43.3751 52.3446 45.0918 52.2021 45.4626C52.0596 45.8335 51.7162 45.9987 51.6579 45.4918Z" fill="#FEF2F2" stroke="#9A183A" stroke-linecap="round" stroke-linejoin="round"/>
<path d="M50.0869 44.5687C50.0869 44.5687 49.9444 46.0845 49.9444 46.6562C49.9444 47.2278 49.9153 47.6003 49.9153 47.6003" fill="#FEF2F2"/>
<path d="M50.0869 44.5687C50.0869 44.5687 49.9444 46.0845 49.9444 46.6562C49.9444 47.2278 49.9153 47.6003 49.9153 47.6003" stroke="#9A183A" stroke-linecap="round" stroke-linejoin="round"/>
<path d="M56.7788 44.5978C56.7788 44.5978 56.8355 46.112 56.8355 46.9995" stroke="#9A183A" stroke-linecap="round" stroke-linejoin="round"/>
<path d="M64.1507 44.308C64.1163 44.3062 64.0835 44.2927 64.0579 44.2697C64.0323 44.2467 64.0153 44.2156 64.0098 44.1816C63.728 42.418 63.3733 40.4763 63.2 39.8447C62.9328 40.4407 62.3466 42.3371 61.8607 44.0553C61.85 44.0935 61.8245 44.1259 61.7899 44.1454C61.7553 44.1648 61.7143 44.1697 61.6761 44.159C61.6379 44.1482 61.6055 44.1227 61.5861 44.0881C61.5666 44.0535 61.5617 44.0126 61.5725 43.9743C61.5725 43.963 61.885 42.865 62.2203 41.767C62.9263 39.4803 63.0575 39.435 63.1644 39.3977C63.191 39.3868 63.22 39.3831 63.2485 39.3871C63.2769 39.3911 63.3038 39.4026 63.3264 39.4204C63.4041 39.4771 63.5094 39.5548 63.9304 41.8788C64.1329 43.001 64.3126 44.1169 64.3142 44.1282C64.3203 44.1675 64.3106 44.2076 64.2872 44.2397C64.2639 44.2719 64.2288 44.2935 64.1895 44.2999L64.1507 44.308Z" fill="#FEF2F2" stroke="#9A183A" stroke-linecap="round" stroke-linejoin="round"/>
<path d="M59.4119 43.8172C59.4119 43.8172 62.3188 43.6375 63.3213 43.678C64.3237 43.7185 66.1035 43.8286 66.0986 43.9387C66.0938 44.0488 66.0565 47.7299 65.9513 48.4732C65.846 49.2165 65.3278 50.1218 64.8743 50.2886C64.4209 50.4554 62.9002 50.3939 62.1212 50.3631C61.3423 50.3324 60.6394 50.2287 60.288 49.7315C59.9366 49.2344 59.6856 47.1404 59.6856 47.1404L59.4119 43.8172Z" fill="#FEF2F2" stroke="#9A183A" stroke-linecap="round" stroke-linejoin="round"/>
<path d="M61.7214 44.6173C61.7239 44.5583 61.7089 44.5 61.6783 44.4496C61.6476 44.3992 61.6027 44.3591 61.5491 44.3342C61.4956 44.3094 61.436 44.301 61.3777 44.3101C61.3194 44.3192 61.2652 44.3454 61.2218 44.3854C61.1784 44.4254 61.1479 44.4773 61.134 44.5346C61.1202 44.592 61.1237 44.6521 61.1441 44.7075C61.1645 44.7628 61.2008 44.8109 61.2485 44.8456C61.2962 44.8803 61.3532 44.9 61.4121 44.9023C61.4512 44.904 61.4902 44.898 61.5269 44.8846C61.5636 44.8712 61.5973 44.8507 61.6261 44.8242C61.6548 44.7977 61.6781 44.7657 61.6944 44.7302C61.7108 44.6947 61.72 44.6563 61.7214 44.6173Z" fill="#FEF2F2" stroke="#9A183A" stroke-linecap="round" stroke-linejoin="round"/>
<path d="M64.5034 44.7662C64.5059 44.7073 64.4909 44.649 64.4602 44.5986C64.4296 44.5482 64.3846 44.5081 64.3311 44.4832C64.2776 44.4584 64.218 44.45 64.1597 44.4591C64.1014 44.4682 64.0471 44.4944 64.0038 44.5344C63.9604 44.5744 63.9299 44.6263 63.916 44.6836C63.9022 44.741 63.9057 44.8011 63.9261 44.8565C63.9464 44.9118 63.9828 44.9599 64.0305 44.9946C64.0782 45.0292 64.1352 45.049 64.1941 45.0513C64.2331 45.053 64.2722 45.047 64.3089 45.0336C64.3456 45.0202 64.3793 44.9996 64.4081 44.9731C64.4368 44.9467 64.4601 44.9147 64.4764 44.8792C64.4928 44.8437 64.502 44.8053 64.5034 44.7662Z" fill="#FEF2F2" stroke="#9A183A" stroke-linecap="round" stroke-linejoin="round"/>
<path d="M59.9172 48.708C59.9172 48.708 62.0063 48.5315 65.8267 48.7242L59.9172 48.708Z" fill="#FEF2F2"/>
<path d="M59.9172 48.708C59.9172 48.708 62.0063 48.5315 65.8267 48.7242" stroke="#9A183A" stroke-linecap="round" stroke-linejoin="round"/>
<path d="M67.4706 36.7094H38.6311V39.0544H67.4706V36.7094Z" fill="#9A183A"/>
<path d="M52.6199 38.0439H55.4782" stroke="#FEF2F2" stroke-width="2" stroke-miterlimit="10"/>
<path d="M58.7866 38.0439H61.645" stroke="#FEF2F2" stroke-width="2" stroke-miterlimit="10"/>
<path d="M66.5685 37.3183C66.5628 37.3108 66.5554 37.3047 66.547 37.3005C66.5386 37.2963 66.5293 37.2941 66.5199 37.294H64.9523L64.8923 37.1126C64.8879 37.1006 64.88 37.0902 64.8696 37.0827C64.8592 37.0753 64.8468 37.071 64.834 37.0705H64.4373C64.4292 37.0705 64.4212 37.0721 64.4137 37.0752C64.4063 37.0783 64.3995 37.0828 64.3938 37.0886C64.388 37.0943 64.3835 37.101 64.3804 37.1085C64.3773 37.116 64.3757 37.124 64.3757 37.1321C64.3757 37.1401 64.3773 37.1481 64.3804 37.1556C64.3835 37.1631 64.388 37.1699 64.3938 37.1756C64.3995 37.1813 64.4063 37.1858 64.4137 37.1889C64.4212 37.192 64.4292 37.1936 64.4373 37.1936H64.7903L65.1725 38.3418C65.1768 38.3539 65.1847 38.3644 65.1951 38.372C65.2055 38.3795 65.218 38.3837 65.2308 38.3839H65.2616C65.2395 38.417 65.2277 38.4559 65.2276 38.4957C65.225 38.5247 65.2285 38.5541 65.2379 38.5817C65.2473 38.6094 65.2623 38.6348 65.282 38.6563C65.3018 38.6778 65.3258 38.695 65.3525 38.7068C65.3792 38.7186 65.4081 38.7246 65.4373 38.7246C65.4665 38.7246 65.4954 38.7186 65.5221 38.7068C65.5488 38.695 65.5728 38.6778 65.5925 38.6563C65.6123 38.6348 65.6273 38.6094 65.6367 38.5817C65.6461 38.5541 65.6496 38.5247 65.647 38.4957C65.6469 38.4559 65.6351 38.417 65.613 38.3839H65.9061C65.8841 38.417 65.8722 38.4559 65.8721 38.4957C65.8696 38.5247 65.8731 38.5541 65.8825 38.5817C65.8918 38.6094 65.9069 38.6348 65.9266 38.6563C65.9463 38.6778 65.9703 38.695 65.997 38.7068C66.0238 38.7186 66.0526 38.7246 66.0818 38.7246C66.111 38.7246 66.1399 38.7186 66.1667 38.7068C66.1934 38.695 66.2174 38.6778 66.2371 38.6563C66.2568 38.6348 66.2718 38.6094 66.2812 38.5817C66.2906 38.5541 66.2941 38.5247 66.2916 38.4957C66.2914 38.4559 66.2796 38.417 66.2576 38.3839H66.3045C66.3126 38.3839 66.3206 38.3823 66.3281 38.3792C66.3355 38.3761 66.3423 38.3716 66.348 38.3659C66.3537 38.3602 66.3583 38.3534 66.3614 38.3459C66.3645 38.3385 66.3661 38.3305 66.3661 38.3224C66.3661 38.3143 66.3645 38.3063 66.3614 38.2988C66.3583 38.2914 66.3537 38.2846 66.348 38.2789C66.3423 38.2731 66.3355 38.2686 66.3281 38.2655C66.3206 38.2624 66.3126 38.2608 66.3045 38.2608H65.2826L65.2162 38.06H66.3499C66.363 38.0602 66.3759 38.0559 66.3864 38.048C66.397 38.0401 66.4046 38.029 66.4082 38.0163L66.5814 37.3685C66.5831 37.3597 66.5827 37.3506 66.5805 37.342C66.5783 37.3333 66.5742 37.3252 66.5685 37.3183ZM65.4349 38.5831C65.4117 38.5831 65.3894 38.5739 65.373 38.5575C65.3566 38.5411 65.3474 38.5189 65.3474 38.4957C65.3474 38.4725 65.3566 38.4502 65.373 38.4338C65.3894 38.4174 65.4117 38.4082 65.4349 38.4082C65.4581 38.4082 65.4803 38.4174 65.4967 38.4338C65.5131 38.4502 65.5223 38.4725 65.5223 38.4957C65.5223 38.5189 65.5131 38.5411 65.4967 38.5575C65.4803 38.5739 65.4581 38.5831 65.4349 38.5831ZM66.0827 38.5831C66.0654 38.5828 66.0487 38.5774 66.0345 38.5676C66.0203 38.5578 66.0094 38.544 66.003 38.528C65.9966 38.512 65.9951 38.4945 65.9987 38.4776C66.0023 38.4608 66.0107 38.4453 66.023 38.4333C66.0353 38.4212 66.0509 38.413 66.0678 38.4098C66.0847 38.4065 66.1022 38.4084 66.1181 38.415C66.134 38.4217 66.1475 38.4329 66.1571 38.4472C66.1666 38.4616 66.1717 38.4784 66.1717 38.4957C66.1719 38.5083 66.1693 38.5209 66.1641 38.5324C66.1589 38.544 66.1513 38.5543 66.1417 38.5626C66.1322 38.5709 66.1209 38.577 66.1088 38.5806C66.0966 38.5841 66.0838 38.585 66.0713 38.5831H66.0827ZM66.2446 37.9353H66.0195V37.4122H66.2333L66.2446 37.9353ZM65.6713 37.4122H65.8964V37.9353H65.6713V37.4122ZM65.5498 37.9353H65.3247V37.4122H65.5498V37.9353ZM65.0008 37.4122H65.2033V37.9353H65.1757L65.0008 37.4122ZM66.3661 37.7199V37.4122H66.4486L66.3661 37.7199Z" fill="#FEF2F2"/>
<path d="M50.2636 38.5847H39.7079C39.6155 38.585 39.5239 38.5669 39.4384 38.5317C39.353 38.4965 39.2753 38.4447 39.2098 38.3795C39.1444 38.3142 39.0925 38.2366 39.0571 38.1512C39.0217 38.0659 39.0034 37.9743 39.0034 37.8819C39.0034 37.6951 39.0776 37.5159 39.2098 37.3838C39.3419 37.2516 39.5211 37.1774 39.7079 37.1774H50.2636C50.356 37.1774 50.4475 37.1957 50.5329 37.2311C50.6183 37.2665 50.6958 37.3184 50.7611 37.3839C50.8264 37.4493 50.8782 37.527 50.9134 37.6124C50.9486 37.6979 50.9666 37.7895 50.9664 37.8819C50.9664 38.0683 50.8924 38.2471 50.7606 38.3789C50.6288 38.5107 50.45 38.5847 50.2636 38.5847Z" fill="#FEF2F2"/>
<path d="M41.3145 52.5446H45.6368" stroke="#9A183A" stroke-width="2" stroke-linecap="round" stroke-linejoin="round"/>
<path d="M41.3145 53.364H45.6368" stroke="#9A183A" stroke-width="2" stroke-linecap="round" stroke-linejoin="round"/>
<path d="M51.0764 52.5446H55.3988" stroke="#9A183A" stroke-width="2" stroke-linecap="round" stroke-linejoin="round"/>
<path d="M51.0764 53.364H55.3988" stroke="#9A183A" stroke-width="2" stroke-linecap="round" stroke-linejoin="round"/>
<path d="M60.8386 52.5446H65.161" stroke="#9A183A" stroke-width="2" stroke-linecap="round" stroke-linejoin="round"/>
<path d="M60.8386 53.364H65.161" stroke="#9A183A" stroke-width="2" stroke-linecap="round" stroke-linejoin="round"/>
<path d="M69.6064 31.8947H36.051V37.571H69.6064V31.8947Z" fill="#F67688" stroke="#9A183A" stroke-miterlimit="10"/>
<path d="M35.0276 35.8948C35.0697 35.8948 35.1102 35.8948 35.1523 35.8948C35.5992 35.8944 36.0349 35.7554 36.3995 35.4969C36.7641 35.2385 37.0396 34.8734 37.188 34.4519C37.3566 34.9332 37.6903 35.3393 38.1298 35.5981C38.5693 35.857 39.0863 35.9518 39.5891 35.8658C40.0918 35.7799 40.5479 35.5187 40.8765 35.1285C41.205 34.7384 41.3848 34.2445 41.384 33.7344C41.384 33.6988 41.384 33.6648 41.384 33.6308H41.405C41.405 33.6648 41.405 33.6988 41.405 33.7344C41.405 34.3074 41.6327 34.8569 42.0378 35.262C42.443 35.6672 42.9925 35.8948 43.5654 35.8948C44.1384 35.8948 44.6879 35.6672 45.093 35.262C45.4982 34.8569 45.7258 34.3074 45.7258 33.7344C45.7258 33.6988 45.7258 33.6648 45.7258 33.6308H45.7452C45.7452 33.6648 45.7452 33.6988 45.7452 33.7344C45.7373 34.023 45.7873 34.3102 45.8923 34.5792C45.9973 34.8481 46.1551 35.0932 46.3564 35.3001C46.5577 35.507 46.7985 35.6715 47.0644 35.7838C47.3303 35.8961 47.6161 35.9539 47.9048 35.9539C48.1935 35.9539 48.4792 35.8961 48.7452 35.7838C49.0111 35.6715 49.2518 35.507 49.4532 35.3001C49.6545 35.0932 49.8123 34.8481 49.9173 34.5792C50.0222 34.3102 50.0722 34.023 50.0643 33.7344C50.0643 33.6988 50.0643 33.6648 50.0643 33.6308H50.0838C50.0838 33.6648 50.0838 33.6988 50.0838 33.7344C50.0759 34.023 50.1259 34.3102 50.2309 34.5792C50.3358 34.8481 50.4936 35.0932 50.695 35.3001C50.8963 35.507 51.137 35.6715 51.403 35.7838C51.6689 35.8961 51.9546 35.9539 52.2433 35.9539C52.532 35.9539 52.8178 35.8961 53.0837 35.7838C53.3497 35.6715 53.5904 35.507 53.7917 35.3001C53.993 35.0932 54.1508 34.8481 54.2558 34.5792C54.3608 34.3102 54.4108 34.023 54.4029 33.7344C54.4029 33.6988 54.4029 33.6648 54.4029 33.6308H54.4741C54.4741 33.6648 54.4741 33.6988 54.4741 33.7344C54.4662 34.023 54.5163 34.3102 54.6212 34.5792C54.7262 34.8481 54.884 35.0932 55.0853 35.3001C55.2866 35.507 55.5274 35.6715 55.7933 35.7838C56.0593 35.8961 56.345 35.9539 56.6337 35.9539C56.9224 35.9539 57.2081 35.8961 57.4741 35.7838C57.74 35.6715 57.9808 35.507 58.1821 35.3001C58.3834 35.0932 58.5412 34.8481 58.6462 34.5792C58.7512 34.3102 58.8012 34.023 58.7933 33.7344C58.7933 33.6988 58.7933 33.6648 58.7933 33.6308H58.8127C58.8127 33.6648 58.8127 33.6988 58.8127 33.7344C58.8127 34.3074 59.0403 34.8569 59.4455 35.262C59.8506 35.6672 60.4001 35.8948 60.9731 35.8948C61.546 35.8948 62.0955 35.6672 62.5007 35.262C62.9058 34.8569 63.1334 34.3074 63.1334 33.7344C63.1334 33.6988 63.1334 33.6648 63.1334 33.6308H63.3602C63.3602 33.6648 63.3602 33.6988 63.3602 33.7344C63.3523 34.023 63.4023 34.3102 63.5072 34.5792C63.6122 34.8481 63.77 35.0932 63.9713 35.3001C64.1727 35.507 64.4134 35.6715 64.6793 35.7838C64.9453 35.8961 65.231 35.9539 65.5197 35.9539C65.8084 35.9539 66.0942 35.8961 66.3601 35.7838C66.626 35.6715 66.8668 35.507 67.0681 35.3001C67.2694 35.0932 67.4272 34.8481 67.5322 34.5792C67.6372 34.3102 67.6872 34.023 67.6793 33.7344C67.6793 33.6988 67.6793 33.6648 67.6793 33.6308H67.6987C67.6987 33.6648 67.6987 33.6988 67.6987 33.7344C67.6984 34.0912 67.7866 34.4425 67.9553 34.7568C68.124 35.0712 68.3679 35.3389 68.6654 35.5359C68.9628 35.7329 69.3045 35.8531 69.6597 35.8858C70.015 35.9185 70.3728 35.8626 70.7012 35.7231V31.8882H35.0276V35.8948Z" fill="#9A183A"/>
<path d="M33 32.7336C33 32.7806 33 32.8292 33 32.8761C33 33.4491 33.2276 33.9986 33.6328 34.4037C34.0379 34.8089 34.5874 35.0365 35.1604 35.0365C35.7333 35.0365 36.2828 34.8089 36.688 34.4037C37.0931 33.9986 37.3207 33.4491 37.3207 32.8761C37.3207 32.8292 37.3207 32.7806 37.3207 32.7336H33Z" fill="#FEF2F2" stroke="#9A183A" stroke-linecap="round" stroke-linejoin="round"/>
<path d="M37.0713 32.7336C37.0713 32.7806 37.0632 32.8292 37.0632 32.8761C37.0632 33.4491 37.2908 33.9986 37.696 34.4037C38.1011 34.8089 38.6506 35.0365 39.2236 35.0365C39.7966 35.0365 40.3461 34.8089 40.7512 34.4037C41.1564 33.9986 41.384 33.4491 41.384 32.8761C41.384 32.8292 41.384 32.7806 41.3759 32.7336H37.0713Z" fill="#F67688" stroke="#9A183A" stroke-linecap="round" stroke-linejoin="round"/>
<path d="M41.4001 32.7336C41.4001 32.7806 41.4001 32.8292 41.4001 32.8761C41.4001 33.4491 41.6278 33.9986 42.0329 34.4037C42.4381 34.8089 42.9875 35.0365 43.5605 35.0365C44.1335 35.0365 44.683 34.8089 45.0881 34.4037C45.4933 33.9986 45.7209 33.4491 45.7209 32.8761C45.7209 32.8292 45.7209 32.7806 45.7209 32.7336H41.4001Z" fill="#FEF2F2" stroke="#9A183A" stroke-linecap="round" stroke-linejoin="round"/>
<path d="M45.7291 32.7336C45.7291 32.7806 45.7291 32.8292 45.7291 32.8761C45.7212 33.1647 45.7712 33.4519 45.8762 33.7208C45.9811 33.9898 46.1389 34.2349 46.3403 34.4418C46.5416 34.6487 46.7823 34.8132 47.0483 34.9255C47.3142 35.0378 47.6 35.0956 47.8886 35.0956C48.1773 35.0956 48.4631 35.0378 48.729 34.9255C48.995 34.8132 49.2357 34.6487 49.437 34.4418C49.6383 34.2349 49.7961 33.9898 49.9011 33.7208C50.0061 33.4519 50.0561 33.1647 50.0482 32.8761C50.0482 32.8292 50.0482 32.7806 50.0482 32.7336H45.7291Z" fill="#F67688" stroke="#9A183A" stroke-linecap="round" stroke-linejoin="round"/>
<path d="M50.0577 32.7336C50.0577 32.7806 50.0577 32.8292 50.0577 32.8761C50.0498 33.1647 50.0998 33.4519 50.2048 33.7208C50.3098 33.9898 50.4676 34.2349 50.6689 34.4418C50.8702 34.6487 51.1109 34.8132 51.3769 34.9255C51.6428 35.0378 51.9286 35.0956 52.2173 35.0956C52.5059 35.0956 52.7917 35.0378 53.0576 34.9255C53.3236 34.8132 53.5643 34.6487 53.7656 34.4418C53.967 34.2349 54.1248 33.9898 54.2297 33.7208C54.3347 33.4519 54.3847 33.1647 54.3768 32.8761C54.3768 32.8292 54.3768 32.7806 54.3768 32.7336H50.0577Z" fill="#FEF2F2" stroke="#9A183A" stroke-linecap="round" stroke-linejoin="round"/>
<path d="M54.4386 32.7336C54.4386 32.7806 54.4386 32.8292 54.4386 32.8761C54.4307 33.1647 54.4807 33.4519 54.5856 33.7208C54.6906 33.9898 54.8484 34.2349 55.0497 34.4418C55.251 34.6487 55.4918 34.8132 55.7577 34.9255C56.0237 35.0378 56.3094 35.0956 56.5981 35.0956C56.8868 35.0956 57.1725 35.0378 57.4385 34.9255C57.7044 34.8132 57.9452 34.6487 58.1465 34.4418C58.3478 34.2349 58.5056 33.9898 58.6106 33.7208C58.7156 33.4519 58.7656 33.1647 58.7577 32.8761C58.7577 32.8292 58.7577 32.7806 58.7577 32.7336H54.4386Z" fill="#F67688" stroke="#9A183A" stroke-linecap="round" stroke-linejoin="round"/>
<path d="M58.7691 32.7336C58.7691 32.7806 58.761 32.8292 58.761 32.8761C58.761 33.4491 58.9886 33.9986 59.3937 34.4037C59.7989 34.8089 60.3484 35.0365 60.9214 35.0365C61.4943 35.0365 62.0438 34.8089 62.449 34.4037C62.8541 33.9986 63.0817 33.4491 63.0817 32.8761C63.0817 32.8292 63.0817 32.7806 63.0736 32.7336H58.7691Z" fill="#FEF2F2" stroke="#9A183A" stroke-linecap="round" stroke-linejoin="round"/>
<path d="M63.3035 32.7336C63.3035 32.7806 63.3035 32.8292 63.3035 32.8761C63.2956 33.1647 63.3457 33.4519 63.4506 33.7208C63.5556 33.9898 63.7134 34.2349 63.9147 34.4418C64.116 34.6487 64.3568 34.8132 64.6227 34.9255C64.8887 35.0378 65.1744 35.0956 65.4631 35.0956C65.7518 35.0956 66.0375 35.0378 66.3035 34.9255C66.5694 34.8132 66.8102 34.6487 67.0115 34.4418C67.2128 34.2349 67.3706 33.9898 67.4756 33.7208C67.5806 33.4519 67.6306 33.1647 67.6227 32.8761C67.6227 32.8292 67.6227 32.7806 67.6227 32.7336H63.3035Z" fill="#F67688" stroke="#9A183A" stroke-linecap="round" stroke-linejoin="round"/>
<path d="M67.6324 32.7336C67.6324 32.7806 67.6324 32.8292 67.6324 32.8761C67.6245 33.1647 67.6745 33.4519 67.7795 33.7208C67.8845 33.9898 68.0423 34.2349 68.2436 34.4418C68.4449 34.6487 68.6856 34.8132 68.9516 34.9255C69.2175 35.0378 69.5033 35.0956 69.792 35.0956C70.0806 35.0956 70.3664 35.0378 70.6323 34.9255C70.8983 34.8132 71.139 34.6487 71.3403 34.4418C71.5417 34.2349 71.6995 33.9898 71.8044 33.7208C71.9094 33.4519 71.9594 33.1647 71.9515 32.8761C71.9515 32.8292 71.9515 32.7806 71.9515 32.7336H67.6324Z" fill="#FEF2F2" stroke="#9A183A" stroke-linecap="round" stroke-linejoin="round"/>
<path d="M36.8333 26.0047L33 32.7725H72L68.3497 26.0047H36.8333Z" fill="#FEF2F2" stroke="#9A183A" stroke-linecap="round" stroke-linejoin="round"/>
<path d="M36.8333 26.0047L33 32.7725H67.6015L64.795 26.0047H36.8333Z" fill="#F67688" stroke="#9A183A" stroke-linecap="round" stroke-linejoin="round"/>
<path d="M36.8333 26.0047L33 32.7725H63.1674L61.2127 26.0047H36.8333Z" fill="#FEF2F2" stroke="#9A183A" stroke-linecap="round" stroke-linejoin="round"/>
<path d="M36.8333 26.0047L33 32.7725H58.8354L57.7114 26.0047H36.8333Z" fill="#F67688" stroke="#9A183A" stroke-linecap="round" stroke-linejoin="round"/>
<path d="M36.8333 26.0047L33 32.7725H54.3818L54.113 26.0047H36.8333Z" fill="#FEF2F2" stroke="#9A183A" stroke-linecap="round" stroke-linejoin="round"/>
<path d="M36.8333 26.0047L33 32.7725H50.0028L50.5745 26.0047H36.8333Z" fill="#F67688" stroke="#9A183A" stroke-linecap="round" stroke-linejoin="round"/>
<path d="M36.8333 26.0047L33 32.7725H45.7306L47.1218 26.0047H36.8333Z" fill="#FEF2F2" stroke="#9A183A" stroke-linecap="round" stroke-linejoin="round"/>
<path d="M36.8333 26.0047L33 32.7725H41.4212L43.6383 26.0047H36.8333Z" fill="#F67688" stroke="#9A183A" stroke-linecap="round" stroke-linejoin="round"/>
<path d="M36.8333 26.0047L33 32.7725H37.1345L40.1742 26.0047H36.8333Z" fill="#FEF2F2" stroke="#9A183A" stroke-linecap="round" stroke-linejoin="round"/>
<path d="M48.5922 61.4241C48.3016 61.4422 48.0122 61.3728 47.7614 61.2249C47.5687 61.0923 47.4298 60.8954 47.3695 60.6694C47.2943 60.3974 47.2589 60.1159 47.2642 59.8338H48.2148C48.2123 59.9922 48.2242 60.1504 48.2505 60.3067C48.2632 60.4129 48.3078 60.5128 48.3784 60.5933C48.4155 60.6272 48.4594 60.6526 48.5072 60.668C48.5549 60.6834 48.6055 60.6883 48.6553 60.6824C48.7086 60.6848 48.7615 60.673 48.8088 60.6483C48.856 60.6235 48.8958 60.5867 48.9242 60.5415C48.9872 60.4237 49.0222 60.2929 49.0262 60.1593C49.0391 59.993 49.0456 59.7971 49.0456 59.5714C49.0468 59.4089 49.0359 59.2465 49.0132 59.0856C48.9998 58.9663 48.957 58.8522 48.8885 58.7536C48.8545 58.7121 48.8109 58.6795 48.7616 58.6583C48.7123 58.6372 48.6586 58.6282 48.6051 58.6321C48.5517 58.6306 48.4985 58.6407 48.4493 58.6617C48.4001 58.6826 48.356 58.714 48.3201 58.7536C48.2371 58.8526 48.1813 58.9715 48.1581 59.0985H47.3144L47.384 56.1624H49.7598V57.011H48.1954L48.1387 58.1544C48.2088 58.0787 48.2976 58.0228 48.3962 57.9924C48.5223 57.9446 48.6551 57.9167 48.7897 57.9098C49.0246 57.8785 49.2626 57.9363 49.457 58.0718C49.6441 58.214 49.7813 58.4119 49.8489 58.637C49.9411 58.9308 49.9843 59.2377 49.9768 59.5455C49.9784 59.799 49.9616 60.0523 49.9266 60.3034C49.8995 60.5139 49.8325 60.7173 49.729 60.9026C49.6293 61.072 49.4824 61.2087 49.3063 61.2962C49.0816 61.3942 48.837 61.438 48.5922 61.4241Z" fill="#9A183A"/>
<path d="M51.9251 61.4241C51.6545 61.4343 51.3867 61.3674 51.1526 61.2314C50.9501 61.1058 50.7899 60.9225 50.6927 60.705C50.5862 60.4605 50.5337 60.1959 50.5388 59.9293V57.6118C50.5327 57.3395 50.5829 57.0688 50.6862 56.8167C50.7774 56.5957 50.9361 56.4092 51.1397 56.2839C51.378 56.1468 51.6503 56.08 51.9251 56.0912C52.1967 56.0804 52.4658 56.1472 52.7008 56.2839C52.9027 56.4103 53.06 56.5966 53.151 56.8167C53.2536 57.069 53.3037 57.3395 53.2984 57.6118V59.9293C53.3036 60.1959 53.2511 60.4605 53.1446 60.705C53.0473 60.9225 52.8871 61.1058 52.6846 61.2314C52.4549 61.3665 52.1914 61.4333 51.9251 61.4241ZM51.9251 60.5544C51.9724 60.5587 52.0201 60.551 52.0637 60.532C52.1072 60.5131 52.1454 60.4835 52.1745 60.4459C52.2267 60.3684 52.2615 60.2806 52.2765 60.1884C52.2939 60.0949 52.3036 60.0001 52.3057 59.905V57.6378C52.305 57.5396 52.2974 57.4417 52.283 57.3446C52.2697 57.25 52.236 57.1594 52.1842 57.079C52.1541 57.0407 52.115 57.0104 52.0703 56.9909C52.0257 56.9714 51.9769 56.9633 51.9283 56.9673C51.8793 56.9632 51.83 56.9713 51.7848 56.9907C51.7396 57.0102 51.6999 57.0406 51.6692 57.079C51.6144 57.1581 51.5794 57.2492 51.5672 57.3446C51.5528 57.4417 51.5452 57.5396 51.5445 57.6378V59.905C51.5458 59.9984 51.5544 60.0915 51.5704 60.1836C51.5853 60.2769 51.6225 60.3652 51.6789 60.4411C51.7079 60.4782 51.7454 60.5077 51.7883 60.5272C51.8311 60.5466 51.8781 60.5554 51.9251 60.5528V60.5544Z" fill="#9A183A"/>
<path d="M55.0927 59.0613C54.6749 59.0613 54.3769 58.9485 54.1987 58.7228C54.0206 58.4972 53.9294 58.163 53.925 57.7204V57.458C53.925 57.0067 54.0125 56.6758 54.1874 56.4653C54.3607 56.2547 54.6619 56.1495 55.0878 56.1495C55.5137 56.1495 55.8198 56.2515 55.9947 56.4588C56.1696 56.6661 56.2555 56.9916 56.2555 57.4305V57.7301C56.2555 58.1657 56.168 58.4945 55.9899 58.718C55.8117 58.9414 55.517 59.0613 55.0927 59.0613ZM55.0927 58.4281C55.137 58.4322 55.1817 58.4263 55.2234 58.4109C55.2652 58.3955 55.303 58.3709 55.334 58.339C55.3916 58.2657 55.425 58.1762 55.4295 58.0831C55.4435 57.954 55.45 57.8243 55.449 57.6944V57.4758C55.455 57.3039 55.4392 57.132 55.402 56.9641C55.3696 56.8491 55.266 56.7924 55.0927 56.7924C54.9194 56.7924 54.819 56.8491 54.785 56.9544C54.7447 57.1251 54.7278 57.3005 54.7348 57.4758V57.7058C54.733 57.8346 54.7406 57.9635 54.7575 58.0912C54.7651 58.1832 54.7994 58.271 54.8562 58.3439C54.8869 58.3746 54.924 58.3981 54.9649 58.4127C55.0058 58.4273 55.0495 58.4325 55.0927 58.4281ZM55.7178 61.3334L57.2692 56.1624H57.8506L56.2992 61.3334H55.7178ZM58.4709 61.3463C58.0498 61.3463 57.7502 61.2346 57.5737 61.0079C57.3972 60.7812 57.3097 60.4508 57.3097 60.0119V59.7431C57.3097 59.2961 57.3956 58.9657 57.5672 58.752C57.7389 58.5382 58.0401 58.4302 58.4709 58.4281C58.9017 58.4281 59.2029 58.5317 59.3778 58.7374C59.5527 58.9431 59.6401 59.2718 59.6401 59.7188V60.0119C59.6401 60.454 59.5511 60.7876 59.3713 61.0079C59.1916 61.2281 58.8968 61.3463 58.4758 61.3463H58.4709ZM58.4709 60.7148C58.515 60.7189 58.5594 60.713 58.6009 60.6976C58.6424 60.6821 58.6799 60.6576 58.7106 60.6257C58.7649 60.5518 58.798 60.4644 58.8061 60.373C58.8229 60.2469 58.8305 60.1197 58.8288 59.9925V59.756C58.8352 59.5834 58.8184 59.4107 58.7786 59.2427C58.743 59.1293 58.6409 59.0807 58.4709 59.0807C58.3008 59.0807 58.1988 59.1374 58.1648 59.2524C58.1254 59.4194 58.1085 59.591 58.1146 59.7625V59.9989C58.1132 60.126 58.1191 60.2531 58.1324 60.3795C58.1393 60.4717 58.1737 60.5597 58.2312 60.6322C58.2637 60.6626 58.3023 60.6858 58.3445 60.7C58.3867 60.7143 58.4315 60.7193 58.4758 60.7148H58.4709Z" fill="#9A183A"/>
<path d="M49.2496 69.7935C48.8098 69.8149 48.3727 69.7128 47.988 69.4987C47.674 69.3012 47.4369 69.0024 47.3159 68.6518C47.1721 68.2309 47.1035 67.7879 47.1135 67.3432V64.5513C47.1023 64.1107 47.1709 63.6718 47.3159 63.2557C47.4385 62.9114 47.6758 62.6198 47.988 62.4298C48.3847 62.2421 48.818 62.1447 49.2568 62.1447C49.6957 62.1447 50.129 62.2421 50.5257 62.4298C50.837 62.6212 51.0745 62.9123 51.1994 63.2557C51.347 63.6713 51.4172 64.1104 51.4067 64.5513V67.3546C51.4159 67.7954 51.3457 68.2342 51.1994 68.6501C51.0737 68.9987 50.837 69.2962 50.5257 69.4971C50.1371 69.7152 49.6945 69.818 49.2496 69.7935ZM49.2496 68.7894C49.4295 68.8049 49.6086 68.7523 49.7516 68.642C49.865 68.5335 49.941 68.3917 49.9686 68.2372C50.0069 68.0523 50.0253 67.864 50.0237 67.6752V64.2371C50.0258 64.0483 50.0074 63.8599 49.9686 63.6751C49.9406 63.5249 49.8644 63.3879 49.7516 63.2848C49.6075 63.1771 49.4289 63.1258 49.2496 63.1407C49.0756 63.1289 48.9031 63.1801 48.7637 63.2848C48.6489 63.387 48.5709 63.5242 48.5418 63.6751C48.5039 63.86 48.4854 64.0484 48.4868 64.2371V67.6785C48.4857 67.867 48.5031 68.0552 48.5386 68.2404C48.5629 68.3957 48.6388 68.5384 48.754 68.6453C48.896 68.7523 49.0723 68.8036 49.2496 68.7894Z" fill="#9A183A"/>
<path d="M52.4109 69.6931V62.2289H55.4782V63.1682H53.7745V65.3432H55.1656V66.2922H53.7745V69.6931H52.4109Z" fill="#9A183A"/>
<path d="M56.1924 69.6931V62.2289H59.2613V63.1682H57.5527V65.3432H58.9455V66.2922H57.5527V69.6931H56.1924Z" fill="#9A183A"/>
</g>
<defs>
<filter id="filter0_d_848_9639" x="0" y="0" width="105" height="105" filterUnits="userSpaceOnUse" color-interpolation-filters="sRGB">
<feFlood flood-opacity="0" result="BackgroundImageFix"/>
<feColorMatrix in="SourceAlpha" type="matrix" values="0 0 0 0 0 0 0 0 0 0 0 0 0 0 0 0 0 0 127 0" result="hardAlpha"/>
<feOffset dy="1"/>
<feGaussianBlur stdDeviation="10"/>
<feComposite in2="hardAlpha" operator="out"/>
<feColorMatrix type="matrix" values="0 0 0 0 0.141176 0 0 0 0 0.145098 0 0 0 0 0.156863 0 0 0 0.25 0"/>
<feBlend mode="normal" in2="BackgroundImageFix" result="effect1_dropShadow_848_9639"/>
<feBlend mode="normal" in="SourceGraphic" in2="effect1_dropShadow_848_9639" result="shape"/>
</filter>
<linearGradient id="paint0_linear_848_9639" x1="52.5" y1="19" x2="52.5" y2="84" gradientUnits="userSpaceOnUse">
<stop stop-color="#DC2678"/>
<stop offset="1" stop-color="#FAA7D4"/>
</linearGradient>
</defs>
</svg>
