<svg width="105" height="105" viewBox="0 0 105 105" fill="none" xmlns="http://www.w3.org/2000/svg">
<g filter="url(#filter0_d_879_10460)">
<rect x="20" y="19" width="65" height="65" rx="8" fill="url(#paint0_linear_879_10460)" shape-rendering="crispEdges"/>
<path d="M30.5 44.9521L51.8778 57.2941L67.2432 48.4235L45.8654 36.0814L30.5 44.9521Z" fill="#841738"/>
<path d="M51.8778 76.5789V57.2941L30.5 44.952V64.2369L51.8778 76.5789Z" fill="#841738"/>
<path d="M51.8779 76.579L67.2433 67.7083V48.4235L51.8779 57.2941V76.579Z" fill="#48081A"/>
<path d="M45.7067 70.6581C45.5859 70.5734 45.487 70.4611 45.4182 70.3306C45.3494 70.2001 45.3126 70.0551 45.311 69.9075V68.7629L46.1155 69.2355L46.1678 69.2257V69.3025V70.3294C46.1736 70.3967 46.1615 70.4643 46.1328 70.5255C46.1041 70.5866 46.0598 70.6391 46.0043 70.6777C45.9658 70.6989 45.9225 70.7102 45.8784 70.7104C45.8177 70.7075 45.7587 70.6895 45.7067 70.6581ZM45.7967 69.4219L45.7378 69.8241H45.4402V69.9075C45.4425 70.032 45.4731 70.1542 45.5298 70.265C45.5864 70.3758 45.6677 70.4722 45.7672 70.5469C45.7921 70.5646 45.8211 70.5756 45.8515 70.5787C45.8819 70.5819 45.9126 70.5771 45.9406 70.5649C45.9749 70.5368 46.0015 70.5005 46.0178 70.4592C46.0341 70.418 46.0396 70.3733 46.0338 70.3294V69.3778L45.7967 69.4219ZM45.6822 69.3107L45.9193 69.2682L45.4402 68.9853V69.695H45.6266L45.6822 69.3107Z" fill="#E0E0E0"/>
<path d="M45.7396 71.5296C45.7481 71.5296 45.7565 71.5279 45.7644 71.5246C45.7722 71.5213 45.7793 71.5164 45.7853 71.5103C45.7912 71.5042 45.7959 71.497 45.799 71.4891C45.8021 71.4812 45.8036 71.4727 45.8033 71.4642V70.6025C45.8033 70.5856 45.7966 70.5693 45.7847 70.5574C45.7727 70.5454 45.7565 70.5387 45.7396 70.5387C45.7227 70.5387 45.7064 70.5454 45.6945 70.5574C45.6825 70.5693 45.6758 70.5856 45.6758 70.6025V71.4642C45.6756 71.4727 45.6771 71.4812 45.6802 71.4891C45.6833 71.497 45.6879 71.5042 45.6939 71.5103C45.6998 71.5164 45.7069 71.5213 45.7148 71.5246C45.7226 71.5279 45.7311 71.5296 45.7396 71.5296Z" fill="#E0E0E0"/>
<path d="M46.1139 71.7455C46.1253 71.7456 46.1365 71.7427 46.1463 71.7369C46.1561 71.7311 46.1641 71.7228 46.1695 71.7128C46.1739 71.7055 46.1768 71.6974 46.178 71.689C46.1792 71.6806 46.1788 71.672 46.1766 71.6638C46.1745 71.6556 46.1707 71.6479 46.1656 71.6411C46.1604 71.6344 46.154 71.6287 46.1466 71.6245L45.3944 71.1912C45.3873 71.1866 45.3794 71.1835 45.371 71.1822C45.3627 71.1808 45.3542 71.1812 45.346 71.1834C45.3379 71.1856 45.3302 71.1894 45.3237 71.1947C45.3171 71.2 45.3117 71.2066 45.3078 71.2141C45.3034 71.2213 45.3005 71.2294 45.2993 71.2378C45.298 71.2462 45.2985 71.2548 45.3006 71.263C45.3028 71.2712 45.3065 71.279 45.3117 71.2857C45.3168 71.2925 45.3233 71.2981 45.3307 71.3023L46.0812 71.7357C46.0912 71.7414 46.1024 71.7448 46.1139 71.7455Z" fill="#E0E0E0"/>
<path d="M48.3623 73.0781C48.3869 73.0787 48.4113 73.0725 48.4326 73.0601C48.4587 73.044 48.4797 73.0209 48.4933 72.9934C48.5069 72.966 48.5125 72.9352 48.5095 72.9047V72.7282C48.507 72.7128 48.4992 72.6988 48.4873 72.6887C48.4755 72.6786 48.4604 72.6731 48.4449 72.6731C48.4293 72.6731 48.4143 72.6786 48.4024 72.6887C48.3906 72.6988 48.3827 72.7128 48.3803 72.7282V72.9047C48.3803 72.9309 48.3803 72.9456 48.3672 72.9489C48.3526 72.9506 48.3379 72.9465 48.3263 72.9374C48.2863 72.9002 48.2548 72.8548 48.234 72.8043C48.2131 72.7538 48.2033 72.6994 48.2053 72.6448V71.5002C48.2055 71.4917 48.2041 71.4832 48.2009 71.4753C48.1978 71.4673 48.1932 71.4601 48.1872 71.454C48.1813 71.4479 48.1742 71.4431 48.1663 71.4398C48.1585 71.4365 48.1501 71.4348 48.1416 71.4348C48.1242 71.4348 48.1076 71.4416 48.0953 71.4539C48.083 71.4662 48.0761 71.4828 48.0761 71.5002V72.6448C48.0728 72.7217 48.0877 72.7984 48.1195 72.8686C48.1513 72.9387 48.1992 73.0004 48.2593 73.0486C48.2905 73.0671 48.326 73.0773 48.3623 73.0781Z" fill="#E0E0E0"/>
<path d="M47.3256 71.0849V71.0473C47.3059 70.9368 47.3208 70.8229 47.3681 70.7211C47.4155 70.6193 47.493 70.5346 47.5903 70.4785C47.6875 70.4224 47.7996 70.3976 47.9114 70.4075C48.0232 70.4174 48.1293 70.4615 48.2151 70.5338C48.4557 70.6905 48.6558 70.9017 48.7993 71.1503C48.9428 71.3989 49.0256 71.6779 49.0409 71.9646V72.0758L47.3256 71.0849ZM47.6526 70.5943C47.5865 70.6418 47.5336 70.7052 47.4987 70.7787C47.4638 70.8522 47.4481 70.9334 47.4531 71.0146L48.9051 71.8534C48.8731 71.6103 48.7891 71.3769 48.6587 71.1692C48.5284 70.9615 48.3547 70.7844 48.1497 70.6499C48.0513 70.5887 47.9385 70.5543 47.8227 70.5502C47.7641 70.549 47.7063 70.5625 47.6543 70.5894L47.6526 70.5943Z" fill="#E0E0E0"/>
<path d="M50.9538 74.5268C50.9623 74.5268 50.9708 74.5251 50.9786 74.5218C50.9865 74.5185 50.9936 74.5137 50.9995 74.5076C51.0055 74.5015 51.0101 74.4942 51.0132 74.4863C51.0163 74.4784 51.0178 74.4699 51.0176 74.4614V72.2654C51.0178 72.2569 51.0163 72.2484 51.0132 72.2405C51.0101 72.2326 51.0055 72.2254 50.9995 72.2193C50.9936 72.2132 50.9865 72.2083 50.9786 72.205C50.9708 72.2017 50.9623 72.2 50.9538 72.2C50.9365 72.2 50.9199 72.2069 50.9076 72.2192C50.8953 72.2314 50.8884 72.2481 50.8884 72.2654V74.4614C50.8884 74.4788 50.8953 74.4954 50.9076 74.5077C50.9199 74.5199 50.9365 74.5268 50.9538 74.5268Z" fill="#E0E0E0"/>
<path d="M51.1455 72.7658C51.1541 72.7675 51.163 72.7675 51.1716 72.7658C51.1794 72.7624 51.1865 72.7575 51.1923 72.7514C51.1982 72.7453 51.2028 72.7381 51.2058 72.7302C51.2089 72.7222 51.2103 72.7138 51.2101 72.7053C51.2098 72.6968 51.2079 72.6885 51.2043 72.6808L50.9754 72.1494L50.7187 72.4469C50.7076 72.46 50.7022 72.4768 50.7036 72.4939C50.705 72.5109 50.713 72.5266 50.7261 72.5377C50.7391 72.5488 50.7559 72.5542 50.773 72.5528C50.79 72.5514 50.8057 72.5434 50.8168 72.5303L50.9378 72.3897L51.0866 72.7315C51.0922 72.7422 51.1006 72.7511 51.1111 72.7572C51.1215 72.7632 51.1334 72.7662 51.1455 72.7658Z" fill="#E0E0E0"/>
<path d="M50.3604 74.1867C50.3775 74.1863 50.3937 74.1792 50.4056 74.167C50.4175 74.1548 50.4242 74.1384 50.4242 74.1213V71.9253C50.4257 71.916 50.4251 71.9064 50.4226 71.8973C50.42 71.8882 50.4155 71.8798 50.4094 71.8726C50.4032 71.8654 50.3956 71.8596 50.387 71.8556C50.3784 71.8517 50.3691 71.8496 50.3596 71.8496C50.3501 71.8496 50.3408 71.8517 50.3322 71.8556C50.3236 71.8596 50.316 71.8654 50.3098 71.8726C50.3037 71.8798 50.2992 71.8882 50.2966 71.8973C50.2941 71.9064 50.2935 71.916 50.295 71.9253V74.1213C50.295 74.1387 50.3019 74.1553 50.3142 74.1676C50.3264 74.1798 50.3431 74.1867 50.3604 74.1867Z" fill="#E0E0E0"/>
<path d="M50.5485 72.4257C50.5571 72.4272 50.566 72.4272 50.5746 72.4257C50.5824 72.4223 50.5895 72.4174 50.5953 72.4113C50.6012 72.4052 50.6058 72.3979 50.6089 72.39C50.6119 72.3821 50.6133 72.3736 50.6131 72.3652C50.6128 72.3567 50.6109 72.3483 50.6073 72.3406L50.3784 71.8092L50.1217 72.1052C50.1128 72.1184 50.1091 72.1345 50.1112 72.1503C50.1133 72.1661 50.1211 72.1806 50.1332 72.1911C50.1452 72.2015 50.1607 72.2072 50.1767 72.207C50.1926 72.2069 50.208 72.2009 50.2198 72.1902L50.3408 72.0496L50.4896 72.3913C50.4952 72.402 50.5037 72.4109 50.5141 72.417C50.5245 72.4231 50.5364 72.4261 50.5485 72.4257Z" fill="#E0E0E0"/>
<path d="M37.3937 62.8912V66.428C37.3937 66.5637 37.2972 66.6193 37.1795 66.5506L31.6593 63.3621C31.5968 63.322 31.5448 63.2675 31.5075 63.2032C31.4703 63.139 31.4489 63.0668 31.4451 62.9926V59.4541C31.4451 59.3168 31.5415 59.2628 31.6593 59.3299L37.1811 62.5249C37.2426 62.5652 37.2938 62.6193 37.3308 62.6829C37.3677 62.7465 37.3892 62.8178 37.3937 62.8912Z" fill="#FAFAFA"/>
<path d="M31.7869 59.8367L31.9651 59.9397V63.1544L31.7869 63.0514V59.8367Z" fill="#841738"/>
<path d="M32.5129 60.2553L32.8203 60.4368V63.6515L32.5129 63.4716V60.2553Z" fill="#841738"/>
<path d="M33.2388 60.674L33.417 60.777V63.9933L33.2388 63.8903V60.674Z" fill="#841738"/>
<path d="M33.7866 60.9846L34.1431 61.1972V64.4119L33.7866 64.2009V60.9846Z" fill="#841738"/>
<path d="M34.6907 61.5128L34.8689 61.6158V64.8305L34.6907 64.7274V61.5128Z" fill="#841738"/>
<path d="M35.2124 61.8071L35.595 62.0344V65.249L35.2124 65.0234V61.8071Z" fill="#841738"/>
<path d="M36.1428 62.35L36.3211 62.453L36.3194 65.6693L36.1428 65.5647V62.35Z" fill="#841738"/>
<path d="M36.5566 62.5854L36.6449 62.6377V65.8524L36.5566 65.8017V62.5854Z" fill="#841738"/>
<path d="M35.811 62.175L35.901 62.2257V65.442L35.811 65.3897V62.175Z" fill="#841738"/>
<path d="M34.3491 61.3182L34.4391 61.3705V64.5852L34.3491 64.5345V61.3182Z" fill="#841738"/>
<path d="M33.5481 60.8587L33.638 60.911V64.1257L33.5481 64.075V60.8587Z" fill="#841738"/>
<path d="M32.974 60.5415L33.0623 60.5938V63.8085L32.9724 63.7562L32.974 60.5415Z" fill="#841738"/>
<path d="M32.1941 60.0673L32.2824 60.1196V63.3343L32.1941 63.2836V60.0673Z" fill="#841738"/>
<path d="M36.8691 62.7686L37.0457 62.8716V66.0879L36.8674 65.9849L36.8691 62.7686Z" fill="#841738"/>
<path d="M42.5248 71.1797V51.8949L39.853 50.3513V69.6362L42.5248 71.1797Z" fill="#DB284E"/>
<g opacity="0.3">
<path d="M42.5248 71.1797V51.8949L39.853 50.3513V69.6362L42.5248 71.1797Z" fill="#48081A"/>
</g>
<path d="M58.2271 72.9147V53.6298L60.8989 52.0862V71.3711L58.2271 72.9147Z" fill="#DB284E"/>
<g opacity="0.45">
<path d="M58.2271 72.9147V53.6298L60.8989 52.0862V71.3711L58.2271 72.9147Z" fill="#48081A"/>
</g>
<path d="M39.853 50.3514L55.2184 41.4807L57.8903 43.0227L42.5248 51.8949L39.853 50.3514Z" fill="#DB284E"/>
<g opacity="0.15">
<path d="M39.853 50.3514L55.2184 41.4807L57.8903 43.0227L42.5248 51.8949L39.853 50.3514Z" fill="#48081A"/>
</g>
<g opacity="0.15">
<path d="M45.7134 46.9683L48.3983 48.5037L48.8725 48.2306L46.2007 46.687L45.7134 46.9683Z" fill="#48081A"/>
</g>
<path d="M60.8989 52.0863L39.5178 39.7458L36.8459 41.2878L58.227 53.6298L60.8989 52.0863Z" fill="#DB284E"/>
<g opacity="0.15">
<path d="M60.8989 52.0863L39.5178 39.7458L36.8459 41.2878L58.227 53.6298L60.8989 52.0863Z" fill="#48081A"/>
</g>
<path opacity="0.2" d="M50.0449 46.5006C50.0449 46.5006 53.8384 49.8134 60.0339 49.0956C60.0339 49.0956 57.506 50.8942 54.2864 50.51C54.2864 50.51 54.6919 52.2923 57.1986 53.257C57.1986 53.257 50.0841 53.1524 48.8381 47.31L50.0449 46.5006Z" fill="#48081A"/>
<path d="M49.8863 46.1588C49.8863 46.1588 53.6799 49.3081 59.8754 48.5903C59.8754 48.5903 57.2461 50.3121 54.0265 49.9229C54.0265 49.9229 54.4876 51.0969 57.1987 52.5277C57.1987 52.5277 50.4276 52.5882 48.678 46.9682L49.8863 46.1588Z" fill="#DB284E"/>
<path opacity="0.25" d="M49.8863 46.1588C49.8863 46.1588 53.6799 49.3081 59.8754 48.5903C59.8754 48.5903 57.2461 50.3121 54.0265 49.9229C54.0265 49.9229 54.4876 51.0969 57.1987 52.5277C57.1987 52.5277 50.4276 52.5882 48.678 46.9682L49.8863 46.1588Z" fill="white"/>
<path opacity="0.1" d="M49.6198 47.7465C50.9541 48.1014 52.2769 47.5258 52.2769 47.5258L52.0284 47.4162L51.9908 47.3983L51.77 47.2952L51.721 47.2707L51.5199 47.171L51.4692 47.1464L51.286 47.05L51.2353 47.0222L51.0718 46.9306C51.0566 46.9209 51.0407 46.9122 51.0244 46.9044L50.8707 46.8145L50.8282 46.79L50.6876 46.705L50.6483 46.6804L50.5224 46.6036L50.4864 46.579L50.3769 46.5071L50.3442 46.4858L50.2493 46.4221L50.2199 46.4025L50.1414 46.3469L50.1153 46.3289L50.0515 46.2815L50.0302 46.2651L49.9812 46.2308L49.9599 46.2128L49.9321 46.1915L49.9125 46.1752H49.9011L49.8913 46.167L49.4955 46.4319L48.678 46.9747C50.4276 52.5964 57.1971 52.5342 57.1987 52.5342C53.7142 52.3658 50.0548 49.7218 49.6198 47.7465Z" fill="#48081A"/>
<path d="M58.2971 42.0383C58.2971 42.0383 57.5433 41.1586 55.2329 41.5559C53.8381 41.7963 51.472 43.4216 50.3013 46.1343C50.1525 46.4777 49.8205 46.5921 49.6472 46.8227C49.6062 46.8745 49.5614 46.9231 49.5131 46.9682H48.7822C48.7822 44.4403 50.1999 41.8878 51.5423 40.4113C52.8848 38.9348 55.0922 38.2121 56.6685 38.1515C57.2273 38.1264 57.7842 38.2334 58.2938 38.4639C58.719 39.6641 58.8956 40.8495 58.2971 42.0383Z" fill="#DB284E"/>
<path opacity="0.5" d="M58.2971 42.0383C58.2971 42.0383 57.5433 41.1586 55.2329 41.5559C53.8381 41.7963 51.472 43.4216 50.3013 46.1343C50.1525 46.4777 49.8205 46.5921 49.6472 46.8227C49.6062 46.8745 49.5614 46.9231 49.5131 46.9682H48.7822C48.7822 44.4403 50.1999 41.8878 51.5423 40.4113C52.8848 38.9348 55.0922 38.2121 56.6685 38.1515C57.2273 38.1264 57.7842 38.2334 58.2938 38.4639C58.719 39.6641 58.8956 40.8495 58.2971 42.0383Z" fill="white"/>
<path opacity="0.3" d="M50.4635 45.7877C50.4635 45.7877 49.1472 45.3429 49.69 43.2352C49.1224 44.3997 48.8134 45.6731 48.7842 46.9683H49.5151C49.5633 46.9231 49.6081 46.8745 49.6492 46.8227C49.8274 46.5922 50.1593 46.4777 50.3032 46.1343C50.3506 46.0101 50.4062 45.9005 50.4635 45.7877Z" fill="#DB284E"/>
<path opacity="0.1" d="M50.4635 45.7877C50.4635 45.7877 49.1472 45.3429 49.69 43.2352C49.1224 44.3997 48.8134 45.6731 48.7842 46.9683H49.5151C49.5633 46.9231 49.6081 46.8745 49.6492 46.8227C49.8274 46.5922 50.1593 46.4777 50.3032 46.1343C50.3506 46.0101 50.4062 45.9005 50.4635 45.7877Z" fill="#48081A"/>
<path opacity="0.3" d="M58.2973 42.0383C58.2973 42.0383 58.4133 39.2585 56.6621 38.1515C57.2209 38.1264 57.7778 38.2334 58.2874 38.4639C58.7191 39.6641 58.8957 40.8495 58.2973 42.0383Z" fill="#DB284E"/>
<path opacity="0.1" d="M58.2973 42.0383C58.2973 42.0383 58.4133 39.2585 56.6621 38.1515C57.2209 38.1264 57.7778 38.2334 58.2874 38.4639C58.7191 39.6641 58.8957 40.8495 58.2973 42.0383Z" fill="#48081A"/>
<path d="M56.9483 43.6587C57.5026 43.2143 57.9614 42.6626 58.2973 42.0366C58.8974 40.8479 58.7192 39.6624 58.2973 38.4622C59.6529 39.0623 60.4622 40.8234 60.7713 42.2427C60.9348 43.0373 60.9544 43.7306 60.8203 44.0495C60.441 44.9439 58.2139 48.5592 48.6843 46.9666L48.6958 45.9659C51.0733 45.822 55.2412 45.096 56.9483 43.6587Z" fill="#DB284E"/>
<path opacity="0.4" d="M56.9483 43.6587C57.5026 43.2143 57.9614 42.6626 58.2973 42.0366C58.8974 40.8479 58.7192 39.6624 58.2973 38.4622C59.6529 39.0623 60.4622 40.8234 60.7713 42.2427C60.9348 43.0373 60.9544 43.7306 60.8203 44.0495C60.441 44.9439 58.2139 48.5592 48.6843 46.9666L48.6958 45.9659C51.0733 45.822 55.2412 45.096 56.9483 43.6587Z" fill="white"/>
<path opacity="0.2" d="M47.7051 46.5006C47.7051 46.5006 43.9116 49.8134 37.7161 49.0956C37.7161 49.0956 40.244 50.8942 43.4636 50.51C43.4636 50.51 43.0581 52.2923 40.5514 53.257C40.5514 53.257 47.6659 53.1524 48.9119 47.31L47.7051 46.5006Z" fill="#48081A"/>
<path d="M47.8635 46.1588C47.8635 46.1588 44.07 49.3081 37.8728 48.5903C37.8728 48.5903 40.5021 50.3121 43.7217 49.9229C43.7217 49.9229 43.2606 51.0969 40.5495 52.5277C40.5495 52.5277 47.3206 52.5882 49.0702 46.9682L47.8635 46.1588Z" fill="#DB284E"/>
<path opacity="0.25" d="M47.8635 46.1588C47.8635 46.1588 44.07 49.3081 37.8728 48.5903C37.8728 48.5903 40.5021 50.3121 43.7217 49.9229C43.7217 49.9229 43.2606 51.0969 40.5495 52.5277C40.5495 52.5277 47.3206 52.5882 49.0702 46.9682L47.8635 46.1588Z" fill="white"/>
<path opacity="0.1" d="M48.1318 47.7465C46.7959 48.1014 45.473 47.5258 45.473 47.5258L45.7216 47.4162L45.7592 47.3983L45.9799 47.2952L46.029 47.2707L46.2301 47.171L46.2808 47.1464L46.4656 47.05L46.5146 47.0222L46.6781 46.9306L46.7256 46.9044L46.8793 46.8145L46.9218 46.79L47.0624 46.705L47.1016 46.6804L47.2275 46.6036L47.2635 46.579L47.3731 46.5071L47.4058 46.4858L47.5006 46.4221L47.53 46.4025L47.6102 46.3469L47.6347 46.3289L47.6985 46.2815L47.7197 46.2651L47.7688 46.2308L47.79 46.2128L47.8178 46.1915L47.8375 46.1752H47.8489L47.8587 46.167L48.2544 46.4319L49.072 46.9747C47.3224 52.5964 40.5529 52.5342 40.5513 52.5342C44.0358 52.3658 47.6952 49.7218 48.1318 47.7465Z" fill="#48081A"/>
<path d="M39.4542 42.0383C39.4542 42.0383 40.2064 41.1586 42.5168 41.5559C43.9116 41.7963 46.2777 43.4216 47.4501 46.1343C47.5972 46.4777 47.9292 46.5921 48.1041 46.8227C48.1451 46.8745 48.19 46.9231 48.2382 46.9682H48.9691C48.9691 44.4403 47.5514 41.8878 46.209 40.4113C44.8665 38.9348 42.6591 38.2121 41.0828 38.1515C40.524 38.1264 39.9672 38.2334 39.4575 38.4639C39.0307 39.6641 38.8541 40.8495 39.4542 42.0383Z" fill="#DB284E"/>
<path opacity="0.5" d="M39.4542 42.0383C39.4542 42.0383 40.2064 41.1586 42.5168 41.5559C43.9116 41.7963 46.2777 43.4216 47.4501 46.1343C47.5972 46.4777 47.9292 46.5921 48.1041 46.8227C48.1451 46.8745 48.19 46.9231 48.2382 46.9682H48.9691C48.9691 44.4403 47.5514 41.8878 46.209 40.4113C44.8665 38.9348 42.6591 38.2121 41.0828 38.1515C40.524 38.1264 39.9672 38.2334 39.4575 38.4639C39.0307 39.6641 38.8541 40.8495 39.4542 42.0383Z" fill="white"/>
<path opacity="0.3" d="M47.2896 45.7877C47.2896 45.7877 48.5977 45.3429 48.063 43.2352C48.6306 44.3997 48.9396 45.6731 48.9688 46.9683H48.2379C48.1897 46.9231 48.1449 46.8745 48.1039 46.8227C47.9256 46.5922 47.5937 46.4777 47.4498 46.1343C47.3991 46.0101 47.3435 45.9005 47.2896 45.7877Z" fill="#DB284E"/>
<path opacity="0.1" d="M47.2896 45.7877C47.2896 45.7877 48.5977 45.3429 48.063 43.2352C48.6306 44.3997 48.9396 45.6731 48.9688 46.9683H48.2379C48.1897 46.9231 48.1449 46.8745 48.1039 46.8227C47.9256 46.5922 47.5937 46.4777 47.4498 46.1343C47.3991 46.0101 47.3435 45.9005 47.2896 45.7877Z" fill="#48081A"/>
<path opacity="0.3" d="M39.4538 42.0383C39.4538 42.0383 39.3361 39.2585 41.089 38.1515C40.5302 38.1264 39.9733 38.2334 39.4637 38.4639C39.0303 39.6641 38.8537 40.8495 39.4538 42.0383Z" fill="#DB284E"/>
<path opacity="0.1" d="M39.4538 42.0383C39.4538 42.0383 39.3361 39.2585 41.089 38.1515C40.5302 38.1264 39.9733 38.2334 39.4637 38.4639C39.0303 39.6641 38.8537 40.8495 39.4538 42.0383Z" fill="#48081A"/>
<path d="M40.8014 43.6587C40.2471 43.2143 39.7883 42.6626 39.4524 42.0366C38.8523 40.8479 39.0305 39.6624 39.4524 38.4622C38.0952 39.0623 37.2858 40.8234 36.9784 42.2427C36.8149 43.0373 36.7936 43.7306 36.9277 44.0495C37.3071 44.9439 39.5341 48.5592 49.0637 46.9666L49.0539 45.9659C46.6764 45.822 42.5085 45.096 40.8014 43.6587Z" fill="#DB284E"/>
<path opacity="0.4" d="M40.8014 43.6587C40.2471 43.2143 39.7883 42.6626 39.4524 42.0366C38.8523 40.8479 39.0305 39.6624 39.4524 38.4622C38.0952 39.0623 37.2858 40.8234 36.9784 42.2427C36.8149 43.0373 36.7936 43.7306 36.9277 44.0495C37.3071 44.9439 39.5341 48.5592 49.0637 46.9666L49.0539 45.9659C46.6764 45.822 42.5085 45.096 40.8014 43.6587Z" fill="white"/>
<path d="M50.1789 46.3076C50.1687 46.2112 50.133 46.1192 50.0755 46.0411C50.0181 45.9629 49.9409 45.9014 49.8519 45.8629C49.5374 45.7516 49.204 45.7032 48.8708 45.7206C48.5262 45.7038 48.182 45.7595 47.8603 45.8841C47.7784 45.9244 47.7082 45.9849 47.6561 46.0599C47.604 46.1348 47.5719 46.2218 47.5627 46.3125C47.5284 46.6134 47.5071 47.1203 47.705 47.4065C48.0297 47.6855 48.446 47.8351 48.8741 47.8267C49.3004 47.8361 49.7149 47.6863 50.0367 47.4065C50.2329 47.1138 50.2133 46.6085 50.1789 46.3076Z" fill="#DB284E"/>
<path opacity="0.5" d="M50.1789 46.3076C50.1687 46.2112 50.133 46.1192 50.0755 46.0411C50.0181 45.9629 49.9409 45.9014 49.8519 45.8629C49.5374 45.7516 49.204 45.7032 48.8708 45.7206C48.5262 45.7038 48.182 45.7595 47.8603 45.8841C47.7784 45.9244 47.7082 45.9849 47.6561 46.0599C47.604 46.1348 47.5719 46.2218 47.5627 46.3125C47.5284 46.6134 47.5071 47.1203 47.705 47.4065C48.0297 47.6855 48.446 47.8351 48.8741 47.8267C49.3004 47.8361 49.7149 47.6863 50.0367 47.4065C50.2329 47.1138 50.2133 46.6085 50.1789 46.3076Z" fill="white"/>
<path opacity="0.3" d="M50.1985 46.7802C50.1985 46.8979 50.0677 47.086 49.8126 47.2707C49.5977 47.395 49.3574 47.4687 49.1098 47.4863C48.8622 47.5038 48.6138 47.4648 48.3835 47.3721C48.1728 47.3105 47.9834 47.1917 47.8362 47.0289C47.6889 46.8661 47.5897 46.6657 47.5496 46.4499C47.5267 46.7508 47.5349 47.1579 47.7049 47.4048C48.0297 47.6839 48.4459 47.8335 48.8741 47.825C49.3004 47.8345 49.7149 47.6847 50.0366 47.4048C50.1458 47.215 50.2018 46.9992 50.1985 46.7802Z" fill="#DB284E"/>
<path opacity="0.1" d="M50.1985 46.7802C50.1985 46.8979 50.0677 47.086 49.8126 47.2707C49.5977 47.395 49.3574 47.4687 49.1098 47.4863C48.8622 47.5038 48.6138 47.4648 48.3835 47.3721C48.1728 47.3105 47.9834 47.1917 47.8362 47.0289C47.6889 46.8661 47.5897 46.6657 47.5496 46.4499C47.5267 46.7508 47.5349 47.1579 47.7049 47.4048C48.0297 47.6839 48.4459 47.8335 48.8741 47.825C49.3004 47.8345 49.7149 47.6847 50.0366 47.4048C50.1458 47.215 50.2018 46.9992 50.1985 46.7802Z" fill="#48081A"/>
<path d="M48.8708 45.8857C48.8309 45.8861 48.7923 45.8718 48.7621 45.8456C48.732 45.8194 48.7125 45.7831 48.7073 45.7435C47.947 40.2739 51.94 36.9366 55.9298 35.6367C60.0928 34.2811 63.0328 36.0863 63.1571 36.1632C63.1942 36.1864 63.2205 36.2234 63.2303 36.266C63.2401 36.3086 63.2326 36.3534 63.2094 36.3905C63.1862 36.4275 63.1492 36.4539 63.1066 36.4637C63.064 36.4735 63.0192 36.466 62.9821 36.4428C62.9527 36.4248 60.0389 34.6441 56.0328 35.9523C52.1689 37.2113 48.3002 40.4325 49.0344 45.701C49.0376 45.7225 49.0365 45.7444 49.0311 45.7655C49.0258 45.7865 49.0163 45.8063 49.0032 45.8237C48.9901 45.841 48.9737 45.8556 48.9549 45.8666C48.9361 45.8775 48.9153 45.8846 48.8937 45.8874L48.8708 45.8857Z" fill="#841738"/>
<path d="M74.1911 26.421L63.6967 32.4792L61.0249 37.8752L63.6967 40.1905L63.9976 40.3639L74.5001 34.3089V26.5943L74.1911 26.421ZM63.3305 36.8859C63.3423 36.6632 63.4065 36.4465 63.5179 36.2533C63.6293 36.0601 63.7847 35.8959 63.9714 35.774C64.0549 35.7229 64.15 35.6936 64.2478 35.689C64.2919 35.776 64.3139 35.8727 64.3115 35.9702C64.2993 36.1928 64.2349 36.4094 64.1236 36.6026C64.0122 36.7957 63.857 36.96 63.6706 37.0821C63.5857 37.1328 63.4897 37.162 63.391 37.1672C63.3474 37.0788 63.3266 36.981 63.3305 36.8827V36.8859Z" fill="#DB284E"/>
<path d="M63.9975 32.6542L61.3257 38.0502L63.9975 40.3639L74.5 34.309V26.5944L63.9975 32.6542ZM63.9713 37.2522C63.6165 37.4582 63.3304 37.2914 63.3304 36.8827C63.3422 36.66 63.4065 36.4432 63.5178 36.25C63.6292 36.0568 63.7846 35.8926 63.9713 35.7708C64.3245 35.5664 64.6123 35.7332 64.6123 36.1403C64.6003 36.363 64.536 36.5797 64.4247 36.7728C64.3133 36.966 64.158 37.1302 63.9713 37.2522Z" fill="#DB284E"/>
<path opacity="0.3" d="M64.6123 36.1403C64.6003 36.363 64.5361 36.5797 64.4247 36.7728C64.3133 36.966 64.158 37.1302 63.9713 37.2522C63.7146 37.401 63.4939 37.3552 63.3909 37.1639C63.49 37.1597 63.5863 37.1298 63.6705 37.0772C63.8571 36.9556 64.0124 36.7917 64.1238 36.5988C64.2352 36.4059 64.2995 36.1894 64.3115 35.967C64.314 35.8704 64.2921 35.7748 64.2477 35.689C64.292 35.6868 64.3363 35.6936 64.3779 35.7091C64.4195 35.7245 64.4576 35.7483 64.4897 35.7789C64.5332 35.8279 64.5665 35.8851 64.5876 35.9472C64.6086 36.0093 64.6171 36.0749 64.6123 36.1403Z" fill="#48081A"/>
<path opacity="0.6" d="M74.4917 26.5943L74.1909 26.421L63.6965 32.4792L63.9974 32.6542L74.4917 26.5943Z" fill="white"/>
<path opacity="0.15" d="M63.9976 32.6542L61.3258 38.055L61.0249 37.8801L63.6967 32.4792L63.9976 32.6542Z" fill="#48081A"/>
<path opacity="0.3" d="M61.3258 38.0551L63.9976 40.3688L63.6967 40.1955L61.0249 37.8801L61.3258 38.0551Z" fill="#48081A"/>
<path d="M67.5228 33.0773C67.5305 33.0706 67.5404 33.067 67.5506 33.067C67.5608 33.067 67.5707 33.0706 67.5784 33.0773C67.5951 33.098 67.6033 33.1243 67.6013 33.1509V33.63C67.6007 33.6639 67.5929 33.6974 67.5784 33.7281C67.5675 33.7562 67.5481 33.7803 67.5228 33.7968L66.6447 34.3037V34.9217L67.4623 34.4492C67.4702 34.4428 67.48 34.4393 67.4901 34.4393C67.5002 34.4393 67.51 34.4428 67.5179 34.4492C67.5347 34.4692 67.5429 34.4951 67.5408 34.5211V35.0002C67.5401 35.0347 67.5323 35.0686 67.5179 35.1C67.5066 35.1274 67.4872 35.1508 67.4623 35.167L66.6447 35.6412V36.6223C66.6444 36.6568 66.6366 36.6908 66.6219 36.722C66.61 36.7496 66.5907 36.7734 66.5663 36.7907L66.1804 37.0131C66.1725 37.0195 66.1627 37.0229 66.1526 37.0229C66.1425 37.0229 66.1326 37.0195 66.1248 37.0131C66.108 36.993 66.0998 36.9672 66.1019 36.9411V34.0175C66.1026 33.983 66.1104 33.9491 66.1248 33.9178C66.1367 33.8902 66.1559 33.8664 66.1804 33.8491L67.5228 33.0773Z" fill="#FAFAFA"/>
<path d="M68.8604 32.3055C68.9666 32.239 69.0841 32.1924 69.207 32.1682C69.2951 32.1497 69.3868 32.1636 69.4654 32.2074C69.5452 32.2621 69.6031 32.3431 69.6289 32.4363C69.6709 32.574 69.6902 32.7176 69.6861 32.8615C69.6885 33.07 69.6576 33.2775 69.5946 33.4763C69.5384 33.6539 69.4509 33.82 69.3362 33.9668L69.7025 34.8351C69.7083 34.8491 69.7111 34.8641 69.7107 34.8792C69.7104 34.9074 69.7043 34.9353 69.6927 34.961C69.6833 34.9837 69.6674 35.0031 69.6469 35.0166L69.2479 35.2471C69.2087 35.27 69.1809 35.2717 69.1645 35.2471C69.1475 35.2301 69.1336 35.2102 69.1237 35.1883L68.7966 34.4099L68.5268 34.5735V35.5398C68.5263 35.5743 68.5185 35.6083 68.5039 35.6396C68.4921 35.6671 68.4728 35.6909 68.4483 35.7083L68.0641 35.929C68.0561 35.9358 68.046 35.9395 68.0355 35.9395C68.025 35.9395 68.0148 35.9358 68.0069 35.929C67.9901 35.9089 67.9819 35.8831 67.984 35.857V32.9318C67.9845 32.8973 67.9923 32.8633 68.0069 32.832C68.0187 32.804 68.0386 32.7801 68.0641 32.7634L68.8604 32.3055ZM68.5334 33.8654L68.8604 33.6741C68.9395 33.6262 69.007 33.5614 69.0583 33.4845C69.1146 33.3915 69.1425 33.284 69.1384 33.1754C69.1384 33.0479 69.1106 32.9776 69.0583 32.9596C69.0229 32.953 68.9865 32.9537 68.9514 32.9616C68.9162 32.9694 68.8831 32.9843 68.8539 33.0054L68.5268 33.1967L68.5334 33.8654Z" fill="#FAFAFA"/>
<path d="M71.5683 33.1803C71.576 33.1737 71.5859 33.17 71.5961 33.17C71.6063 33.17 71.6162 33.1737 71.6239 33.1803C71.6328 33.1899 71.6396 33.2013 71.6438 33.2137C71.648 33.2261 71.6496 33.2393 71.6484 33.2523V33.7314C71.6479 33.7661 71.6395 33.8002 71.6239 33.8311C71.6131 33.8589 71.5936 33.8824 71.5683 33.8982L70.1784 34.701C70.1707 34.7077 70.1608 34.7114 70.1506 34.7114C70.1404 34.7114 70.1305 34.7077 70.1228 34.701C70.1139 34.6914 70.1071 34.6801 70.1029 34.6677C70.0987 34.6553 70.0971 34.6421 70.0983 34.6291V31.712C70.0986 31.6773 70.107 31.6431 70.1228 31.6122C70.1336 31.584 70.1531 31.56 70.1784 31.5436L71.5454 30.7554C71.5531 30.7488 71.563 30.7451 71.5732 30.7451C71.5834 30.7451 71.5933 30.7488 71.601 30.7554C71.6096 30.7652 71.6161 30.7766 71.62 30.789C71.624 30.8014 71.6253 30.8145 71.6239 30.8274V31.3065C71.6241 31.3411 71.6163 31.3752 71.601 31.4062C71.5891 31.4338 71.5699 31.4575 71.5454 31.4749L70.6412 31.9965V32.487L71.48 31.9965C71.488 31.9897 71.4981 31.986 71.5086 31.986C71.5191 31.986 71.5292 31.9897 71.5372 31.9965C71.554 32.0166 71.5622 32.0424 71.5601 32.0685V32.5475C71.5597 32.5821 71.5519 32.6161 71.5372 32.6473C71.5254 32.6753 71.5054 32.6993 71.48 32.716L70.6412 33.2065V33.7134L71.5683 33.1803Z" fill="#FAFAFA"/>
<path d="M73.5289 32.0554C73.5366 32.0487 73.5465 32.045 73.5567 32.045C73.5669 32.045 73.5768 32.0487 73.5845 32.0554C73.5931 32.0651 73.5996 32.0765 73.6036 32.0889C73.6075 32.1013 73.6088 32.1144 73.6074 32.1273V32.6064C73.6076 32.6405 73.5998 32.6741 73.5845 32.7045C73.5736 32.7327 73.5542 32.7567 73.5289 32.7732L72.1374 33.576C72.1297 33.5827 72.1198 33.5864 72.1096 33.5864C72.0994 33.5864 72.0895 33.5827 72.0818 33.576C72.065 33.556 72.0568 33.5302 72.0589 33.5041V30.5837C72.0594 30.5492 72.0672 30.5153 72.0818 30.484C72.0937 30.4564 72.1129 30.4327 72.1374 30.4153L73.506 29.6255C73.5139 29.6192 73.5237 29.6157 73.5338 29.6157C73.5439 29.6157 73.5537 29.6192 73.5616 29.6255C73.5784 29.6456 73.5866 29.6714 73.5845 29.6975V30.1766C73.5838 30.211 73.576 30.245 73.5616 30.2763C73.5503 30.3038 73.5309 30.3271 73.506 30.3434L72.6018 30.8666V31.3572L73.4406 30.8666C73.4483 30.8599 73.4582 30.8563 73.4684 30.8563C73.4786 30.8563 73.4885 30.8599 73.4962 30.8666C73.5051 30.8762 73.5119 30.8876 73.5161 30.9C73.5204 30.9124 73.5219 30.9255 73.5207 30.9386V31.4177C73.5206 31.4524 73.5122 31.4866 73.4962 31.5174C73.4849 31.5453 73.4655 31.5692 73.4406 31.5861L72.6018 32.0766V32.5819L73.5289 32.0554Z" fill="#FAFAFA"/>
<path d="M62.5406 39.1424C62.3839 39.1421 62.2279 39.1223 62.0762 39.0835C62.0328 39.0731 61.9954 39.0459 61.972 39.0079C61.9487 38.9699 61.9415 38.9241 61.9519 38.8808C61.9623 38.8374 61.9895 38.8 62.0275 38.7767C62.0656 38.7533 62.1113 38.7461 62.1547 38.7565C62.4679 38.8477 62.8037 38.8208 63.0984 38.681C63.3931 38.5412 63.6263 38.2981 63.7538 37.9978C63.9173 37.5988 63.9321 37.0167 63.3957 36.6717C63.3589 36.6481 63.3329 36.6108 63.3236 36.568C63.3142 36.5252 63.3222 36.4805 63.3459 36.4436C63.3695 36.4067 63.4068 36.3808 63.4496 36.3714C63.4924 36.3621 63.5371 36.3701 63.574 36.3937C64.2378 36.8172 64.2951 37.5694 64.0645 38.127C63.9408 38.429 63.7296 38.6871 63.458 38.868C63.1864 39.049 62.8669 39.1446 62.5406 39.1424Z" fill="#841738"/>
</g>
<defs>
<filter id="filter0_d_879_10460" x="0" y="0" width="105" height="105" filterUnits="userSpaceOnUse" color-interpolation-filters="sRGB">
<feFlood flood-opacity="0" result="BackgroundImageFix"/>
<feColorMatrix in="SourceAlpha" type="matrix" values="0 0 0 0 0 0 0 0 0 0 0 0 0 0 0 0 0 0 127 0" result="hardAlpha"/>
<feOffset dy="1"/>
<feGaussianBlur stdDeviation="10"/>
<feComposite in2="hardAlpha" operator="out"/>
<feColorMatrix type="matrix" values="0 0 0 0 0.141176 0 0 0 0 0.145098 0 0 0 0 0.156863 0 0 0 0.25 0"/>
<feBlend mode="normal" in2="BackgroundImageFix" result="effect1_dropShadow_879_10460"/>
<feBlend mode="normal" in="SourceGraphic" in2="effect1_dropShadow_879_10460" result="shape"/>
</filter>
<linearGradient id="paint0_linear_879_10460" x1="52.5" y1="19" x2="52.5" y2="84" gradientUnits="userSpaceOnUse">
<stop stop-color="#DC2678"/>
<stop offset="1" stop-color="#FAA7D4"/>
</linearGradient>
</defs>
</svg>
