<svg width="106" height="105" viewBox="0 0 106 105" fill="none" xmlns="http://www.w3.org/2000/svg">
<g filter="url(#filter0_d_879_9779)">
<rect x="20.5" y="19" width="65" height="65" rx="8" fill="url(#paint0_linear_879_9779)" shape-rendering="crispEdges"/>
<path d="M50.7085 62.9511C52.0015 62.9511 53.0497 61.8995 53.0497 60.6023C53.0497 59.3051 52.0015 58.2535 50.7085 58.2535C49.4154 58.2535 48.3672 59.3051 48.3672 60.6023C48.3672 61.8995 49.4154 62.9511 50.7085 62.9511Z" fill="#48081A"/>
<path d="M47.8764 56.9716C48.0255 57.4507 48.3209 57.8708 48.7209 58.1723C49.1209 58.4739 49.6053 58.6417 50.1055 58.6521C50.7314 58.6521 51.4356 58.4129 52.0887 57.6213C53.8302 55.5116 50.6247 51.7935 54.9427 47.298C59.2606 42.8024 59.7101 34.8334 51.9548 34.3038C46.0325 33.902 43.6096 37.5971 42.9282 39.9099V42.2543L47.0883 43.8922C47.0883 43.8922 48.6797 39.0483 51.2996 39.6653C53.9195 40.2822 51.452 44.626 49.7986 46.277C46.1555 49.9165 47.2091 54.8914 47.8764 56.9716Z" fill="#48081A"/>
<path d="M47.8765 54.0026C48.0266 54.4811 48.3223 54.9005 48.7221 55.2019C49.1219 55.5033 49.6057 55.6716 50.1057 55.6831C50.7316 55.6831 51.4358 55.3981 52.0889 54.6075C53.8304 52.4968 50.4028 50.3992 54.7219 45.9036C59.0409 41.408 59.7135 32.4934 51.9582 31.9671C44.203 31.4407 42.9316 39.9132 42.9316 39.9132L47.0917 41.5511C47.0917 41.5511 48.6798 36.7127 51.2997 37.3274C53.9197 37.9422 51.4521 42.2871 49.7987 43.9392C46.1557 47.5754 47.2093 51.9224 47.8765 54.0026Z" fill="#FEF2F2"/>
<path d="M50.7085 61.4147C52.0015 61.4147 53.0497 60.3631 53.0497 59.0659C53.0497 57.7687 52.0015 56.7171 50.7085 56.7171C49.4154 56.7171 48.3672 57.7687 48.3672 59.0659C48.3672 60.3631 49.4154 61.4147 50.7085 61.4147Z" fill="#FEF2F2"/>
<path d="M41.3727 60.1633C41.6053 59.6639 41.3904 59.0699 40.8927 58.8365C40.3949 58.6032 39.8028 58.8188 39.5702 59.3181C39.3375 59.8175 39.5524 60.4115 40.0502 60.6449C40.548 60.8783 41.1401 60.6626 41.3727 60.1633Z" fill="#48081A"/>
<path d="M38.8172 58.7045C38.9464 58.8741 39.1253 58.9987 39.3287 59.061C39.5321 59.1233 39.7499 59.1201 39.9514 59.0518C40.2018 58.9622 40.4478 58.7624 40.5947 58.3507C40.9844 57.2588 39.1666 56.2356 40.2431 53.8104C41.3196 51.3852 40.3454 48.1323 37.1715 49.0539C34.7464 49.7549 34.3121 51.5839 34.3741 52.6082L34.7127 53.5429L36.6109 53.5909C36.6109 53.5909 36.5456 51.4256 37.682 51.2902C38.8183 51.1548 38.4602 53.2503 38.0379 54.1511C37.1084 56.1363 38.2491 57.9708 38.8172 58.7045Z" fill="#48081A"/>
<path d="M38.3881 57.5175C38.5168 57.6874 38.6955 57.8123 38.8988 57.8746C39.1022 57.9369 39.3199 57.9335 39.5212 57.8648C39.7726 57.7752 40.0121 57.558 40.158 57.1463C40.5487 56.0543 38.8768 55.7104 39.9522 53.2852C41.0276 50.8599 40.0077 47.2008 36.8327 48.1191C33.6577 49.0375 34.3793 52.6081 34.3793 52.6081L36.2776 52.6551C36.2776 52.6551 36.2134 50.4909 37.3486 50.3555C38.4839 50.2201 38.1269 52.3155 37.7046 53.2153C36.7739 55.2004 37.8189 56.7838 38.3881 57.5175Z" fill="#FEF2F2"/>
<path d="M40.6882 60.0238C41.1817 59.7815 41.386 59.1837 41.1444 58.6886C40.9029 58.1935 40.307 57.9886 39.8135 58.2309C39.32 58.4733 39.1157 59.071 39.3573 59.5661C39.5988 60.0612 40.1947 60.2661 40.6882 60.0238Z" fill="#FEF2F2"/>
<path d="M36.0884 69.315C36.1299 69.5078 36.1135 69.7086 36.0413 69.8921C35.969 70.0756 35.8442 70.2335 35.6826 70.3458C35.521 70.4582 35.3298 70.52 35.1332 70.5234C34.9366 70.5269 34.7434 70.4718 34.578 70.3651C34.4126 70.2584 34.2824 70.105 34.2039 69.9241C34.1253 69.7433 34.102 69.5431 34.1368 69.349C34.1716 69.1548 34.2629 68.9754 34.3993 68.8333C34.5357 68.6912 34.711 68.5928 34.9031 68.5506C35.031 68.5224 35.1631 68.5197 35.292 68.5429C35.4209 68.5661 35.544 68.6146 35.6541 68.6856C35.7643 68.7566 35.8594 68.8488 35.9339 68.9568C36.0084 69.0648 36.0609 69.1865 36.0884 69.315Z" fill="#48081A"/>
<path d="M33.6108 68.2809C33.7163 68.4662 33.8772 68.6136 34.0708 68.7022C34.2644 68.7908 34.4808 68.816 34.6895 68.7744C34.9496 68.7187 35.2207 68.5561 35.4188 68.1651C35.9488 67.13 34.2802 65.8797 35.6637 63.6172C37.0471 61.3546 36.5083 58.0056 33.2407 58.4981C30.7449 58.8737 30.0755 60.6296 30.0037 61.6527L30.2214 62.6246L32.0935 62.9238C32.0935 62.9238 32.3112 60.7694 33.4563 60.7846C34.6013 60.7999 33.9711 62.8299 33.4356 63.6663C32.2524 65.5106 33.1439 67.4794 33.6108 68.2809Z" fill="#48081A"/>
<path d="M33.3411 67.0481C33.4467 67.2333 33.6076 67.3806 33.8012 67.4692C33.9947 67.5577 34.2111 67.5831 34.4198 67.5417C34.6799 67.486 34.9455 67.3014 35.1447 66.9138C35.6747 65.8786 34.0616 65.3217 35.4451 63.0592C36.8285 60.7967 36.2952 57.0338 33.0276 57.5263C29.7601 58.0188 30.0039 61.6528 30.0039 61.6528L31.876 61.9498C31.876 61.9498 32.0937 59.7954 33.2388 59.8107C34.3838 59.8259 33.7536 61.8559 33.2181 62.6923C32.0404 64.5388 32.8731 66.2466 33.3411 67.0481Z" fill="#FEF2F2"/>
<path d="M35.0494 69.8879C35.5973 69.8469 36.0083 69.368 35.9674 68.8183C35.9265 68.2687 35.4492 67.8563 34.9013 67.8974C34.3534 67.9384 33.9423 68.4173 33.9833 68.9669C34.0242 69.5166 34.5015 69.929 35.0494 69.8879Z" fill="#FEF2F2"/>
<path d="M65.2103 61.8143C65.1664 62.0067 65.0667 62.1817 64.9236 62.3173C64.7806 62.4528 64.6008 62.5427 64.4069 62.5757C64.2129 62.6088 64.0135 62.5833 63.834 62.5027C63.6544 62.4221 63.5027 62.2898 63.3981 62.1227C63.2934 61.9556 63.2405 61.7611 63.246 61.5639C63.2515 61.3666 63.3152 61.1754 63.429 61.0144C63.5428 60.8534 63.7016 60.7299 63.8854 60.6595C64.0691 60.589 64.2696 60.5748 64.4614 60.6186C64.7187 60.6777 64.942 60.8368 65.0825 61.061C65.2229 61.2852 65.2688 61.5562 65.2103 61.8143Z" fill="#48081A"/>
<path d="M63.4108 59.8183C63.4271 60.0306 63.5094 60.2326 63.646 60.3955C63.7827 60.5585 63.967 60.6744 64.1728 60.7268C64.4307 60.7879 64.7464 60.7541 65.0914 60.4887C66.0112 59.7801 65.0359 57.9347 67.2498 56.4824C69.4638 55.0301 70.4064 51.7706 67.24 50.8152C64.8237 50.0846 63.4696 51.3852 62.9689 52.2795L62.7512 53.2491L64.3208 54.3214C64.3208 54.3214 65.4365 52.4651 66.464 52.9718C67.4915 53.4784 66.058 55.041 65.2166 55.5684C63.3629 56.7302 63.3325 58.8923 63.4108 59.8183Z" fill="#48081A"/>
<path d="M63.6919 58.5877C63.708 58.8001 63.7902 59.0021 63.9269 59.1651C64.0637 59.3281 64.248 59.4439 64.4538 59.4962C64.7129 59.5584 65.0329 59.5049 65.378 59.2396C66.2977 58.5309 65.0764 57.3352 67.2915 55.8829C69.5065 54.4306 70.6254 50.8032 67.4689 49.8444C64.3123 48.8857 62.9768 52.2795 62.9768 52.2795L64.5464 53.3518C64.5464 53.3518 65.662 51.4955 66.6895 52.001C67.7171 52.5066 66.2836 54.0757 65.4433 54.5988C63.5842 55.7606 63.6103 57.6628 63.6919 58.5877Z" fill="#FEF2F2"/>
<path d="M65.3074 61.3233C65.5105 60.8111 65.2614 60.2307 64.7509 60.0269C64.2404 59.8231 63.6618 60.0731 63.4587 60.5852C63.2555 61.0974 63.5047 61.6778 64.0152 61.8816C64.5257 62.0854 65.1042 61.8354 65.3074 61.3233Z" fill="#FEF2F2"/>
<path d="M70.2616 70.7432C70.1772 70.8629 70.0594 70.9548 69.9229 71.0073C69.7865 71.0598 69.6376 71.0705 69.4951 71.0382C69.3526 71.0058 69.2228 70.9318 69.1222 70.8255C69.0216 70.7191 68.9547 70.5853 68.9299 70.4408C68.9051 70.2963 68.9236 70.1477 68.9829 70.0138C69.0423 69.8798 69.1399 69.7665 69.2635 69.6882C69.387 69.6099 69.5309 69.5701 69.677 69.5738C69.8231 69.5776 69.9648 69.6246 70.0842 69.7091C70.1636 69.7653 70.2312 69.8366 70.2831 69.919C70.3349 70.0014 70.3701 70.0932 70.3866 70.1893C70.4031 70.2853 70.4005 70.3837 70.3791 70.4787C70.3576 70.5738 70.3177 70.6636 70.2616 70.7432Z" fill="#48081A"/>
<path d="M69.5872 68.8607C69.5388 69.0117 69.539 69.174 69.5876 69.3249C69.6362 69.4758 69.7309 69.6075 69.8582 69.7015C69.959 69.7712 70.0748 69.8163 70.1961 69.8332C70.3174 69.8501 70.441 69.8382 70.557 69.7987C71.3896 69.5727 71.2383 68.0265 73.1693 67.6552C75.1002 67.2839 76.6665 65.3097 74.7595 63.7547C73.3042 62.5678 72.0068 63.0777 71.4103 63.5506L70.9847 64.1544L71.7619 65.3381C71.7619 65.3381 73.0517 64.3793 73.6123 65.017C74.1728 65.6547 72.7502 66.3274 72.0231 66.4497C70.4253 66.7227 69.7929 68.2001 69.5872 68.8607Z" fill="#48081A"/>
<path d="M70.1268 68.0931C70.0784 68.2442 70.0785 68.4068 70.1271 68.5578C70.1758 68.7089 70.2704 68.8408 70.3978 68.935C70.5578 69.0507 70.7929 69.1053 71.1042 69.0201C71.9369 68.7941 71.4308 67.6257 73.3671 67.2556C75.3035 66.8854 77.0929 64.7059 75.186 63.1509C73.279 61.596 71.4112 63.5506 71.4112 63.5506L72.1883 64.7332C72.1883 64.7332 73.4782 63.7744 74.0387 64.4132C74.5993 65.052 73.1767 65.7236 72.4496 65.8459C70.8506 66.1188 70.3325 67.4335 70.1268 68.0931Z" fill="#FEF2F2"/>
<path d="M70.5463 70.3356C70.7776 69.9975 70.6919 69.5353 70.3549 69.3032C70.0178 69.0712 69.5571 69.1572 69.3258 69.4953C69.0945 69.8334 69.1802 70.2956 69.5173 70.5277C69.8543 70.7597 70.315 70.6737 70.5463 70.3356Z" fill="#FEF2F2"/>
</g>
<defs>
<filter id="filter0_d_879_9779" x="0.5" y="0" width="105" height="105" filterUnits="userSpaceOnUse" color-interpolation-filters="sRGB">
<feFlood flood-opacity="0" result="BackgroundImageFix"/>
<feColorMatrix in="SourceAlpha" type="matrix" values="0 0 0 0 0 0 0 0 0 0 0 0 0 0 0 0 0 0 127 0" result="hardAlpha"/>
<feOffset dy="1"/>
<feGaussianBlur stdDeviation="10"/>
<feComposite in2="hardAlpha" operator="out"/>
<feColorMatrix type="matrix" values="0 0 0 0 0.141176 0 0 0 0 0.145098 0 0 0 0 0.156863 0 0 0 0.25 0"/>
<feBlend mode="normal" in2="BackgroundImageFix" result="effect1_dropShadow_879_9779"/>
<feBlend mode="normal" in="SourceGraphic" in2="effect1_dropShadow_879_9779" result="shape"/>
</filter>
<linearGradient id="paint0_linear_879_9779" x1="53" y1="19" x2="53" y2="84" gradientUnits="userSpaceOnUse">
<stop stop-color="#DC2678"/>
<stop offset="1" stop-color="#FAA7D4"/>
</linearGradient>
</defs>
</svg>
