<svg width="106" height="105" viewBox="0 0 106 105" fill="none" xmlns="http://www.w3.org/2000/svg">
<g filter="url(#filter0_d_879_9760)">
<rect x="20.5" y="19" width="65" height="65" rx="8" fill="url(#paint0_linear_879_9760)" shape-rendering="crispEdges"/>
<path d="M63.3254 42.6272H49.6475L50.5191 39.2971C50.7649 38.3584 51.6142 37.6879 52.5976 37.6879H60.3976C61.381 37.6879 62.2303 38.3584 62.4761 39.2971L63.3254 42.6272Z" fill="#510624"/>
<path d="M68.6447 65.3121H37.3775C36.3494 65.3121 35.5225 64.4851 35.5225 63.457V43.6776C35.5225 42.6495 36.3494 41.8226 37.3775 41.8226H68.6447C69.6728 41.8226 70.4997 42.6495 70.4997 43.6776V63.457C70.522 64.4851 69.6951 65.3121 68.6447 65.3121Z" fill="#9E164D"/>
<path d="M68.1752 41.8226H37.8467C36.5504 41.8226 35.5 42.1879 35.5 44.1693V47.7899H70.4996V44.1693C70.5 42.1879 69.4715 41.8226 68.1752 41.8226Z" fill="#FEF2F2"/>
<path d="M56.4863 62.7642C61.4483 62.7642 65.4708 58.7417 65.4708 53.7797C65.4708 48.8176 61.4483 44.7951 56.4863 44.7951C51.5243 44.7951 47.5017 48.8176 47.5017 53.7797C47.5017 58.7417 51.5243 62.7642 56.4863 62.7642Z" fill="#510624"/>
<path d="M56.4864 58.1826C58.918 58.1826 60.8893 56.2114 60.8893 53.7797C60.8893 51.3481 58.918 49.3768 56.4864 49.3768C54.0547 49.3768 52.0835 51.3481 52.0835 53.7797C52.0835 56.2114 54.0547 58.1826 56.4864 58.1826Z" fill="#FEF2F2"/>
<path d="M43.2329 42.9401V62.7642" stroke="#510624" stroke-width="0.798" stroke-miterlimit="10"/>
</g>
<defs>
<filter id="filter0_d_879_9760" x="0.5" y="0" width="105" height="105" filterUnits="userSpaceOnUse" color-interpolation-filters="sRGB">
<feFlood flood-opacity="0" result="BackgroundImageFix"/>
<feColorMatrix in="SourceAlpha" type="matrix" values="0 0 0 0 0 0 0 0 0 0 0 0 0 0 0 0 0 0 127 0" result="hardAlpha"/>
<feOffset dy="1"/>
<feGaussianBlur stdDeviation="10"/>
<feComposite in2="hardAlpha" operator="out"/>
<feColorMatrix type="matrix" values="0 0 0 0 0.141176 0 0 0 0 0.145098 0 0 0 0 0.156863 0 0 0 0.25 0"/>
<feBlend mode="normal" in2="BackgroundImageFix" result="effect1_dropShadow_879_9760"/>
<feBlend mode="normal" in="SourceGraphic" in2="effect1_dropShadow_879_9760" result="shape"/>
</filter>
<linearGradient id="paint0_linear_879_9760" x1="53" y1="19" x2="53" y2="84" gradientUnits="userSpaceOnUse">
<stop stop-color="#DC2678"/>
<stop offset="1" stop-color="#FAA7D4"/>
</linearGradient>
</defs>
</svg>
