<svg width="105" height="105" viewBox="0 0 105 105" fill="none" xmlns="http://www.w3.org/2000/svg">
<g filter="url(#filter0_d_879_11052)">
<rect x="20" y="19" width="65" height="65" rx="8" fill="url(#paint0_linear_879_11052)" shape-rendering="crispEdges"/>
<path d="M74.9999 36.2122H32.2559V68.3899H74.9999V36.2122Z" fill="#E5E7E8"/>
<path d="M30.0009 68.39H32.2559L32.2559 36.2122H30.0009L30.0009 68.39Z" fill="#ED4662"/>
<path d="M74.9999 36.2122H32.2559V39.6835H74.9999V36.2122Z" fill="#DC2678"/>
<path d="M41.0478 43.1385H36.8132V47.373H41.0478V43.1385Z" fill="#DC2678"/>
<path opacity="0.8" d="M41.0478 43.1385H36.8132V47.373H41.0478V43.1385Z" fill="#FEF2F2"/>
<path d="M45.9445 43.1385H41.71V47.373H45.9445V43.1385Z" fill="#FEF2F2"/>
<path d="M50.8464 43.1385H46.6118V47.373H50.8464V43.1385Z" fill="#FEF2F2"/>
<path d="M55.7446 43.1385H51.51V47.373H55.7446V43.1385Z" fill="#FEF2F2"/>
<path d="M60.644 43.1385H56.4094V47.373H60.644V43.1385Z" fill="#FEF2F2"/>
<path d="M65.5424 43.1385H61.3079V47.373H65.5424V43.1385Z" fill="#FEF2F2"/>
<path d="M70.4416 43.1385H66.207V47.373H70.4416V43.1385Z" fill="#FEF2F2"/>
<path d="M41.0478 47.9275H36.8132V52.162H41.0478V47.9275Z" fill="#DC2678"/>
<path opacity="0.8" d="M41.0478 47.9275H36.8132V52.162H41.0478V47.9275Z" fill="#FEF2F2"/>
<path d="M45.947 47.9275H41.7124V52.162H45.947V47.9275Z" fill="#FEF2F2"/>
<path d="M50.8454 47.9275H46.6108V52.162H50.8454V47.9275Z" fill="#FEF2F2"/>
<path d="M55.7446 47.9275H51.51V52.162H55.7446V47.9275Z" fill="#FEF2F2"/>
<path d="M60.644 47.9275H56.4094V52.162H60.644V47.9275Z" fill="#FEF2F2"/>
<path d="M65.5434 47.9275H61.3088V52.162H65.5434V47.9275Z" fill="#FEF2F2"/>
<path d="M70.4416 47.9275H66.207V52.162H70.4416V47.9275Z" fill="#FEF2F2"/>
<path d="M41.0478 52.7164H36.8132V56.951H41.0478V52.7164Z" fill="#DC2678"/>
<path opacity="0.8" d="M41.0478 52.7164H36.8132V56.951H41.0478V52.7164Z" fill="#FEF2F2"/>
<path d="M45.947 52.7164H41.7124V56.951H45.947V52.7164Z" fill="#FEF2F2"/>
<path d="M50.8464 52.7164H46.6118V56.951H50.8464V52.7164Z" fill="#FEF2F2"/>
<path d="M55.7446 52.7164H51.51V56.951H55.7446V52.7164Z" fill="#FEF2F2"/>
<path d="M60.644 52.7164H56.4094V56.951H60.644V52.7164Z" fill="#FEF2F2"/>
<path d="M65.5424 52.7164H61.3079V56.951H65.5424V52.7164Z" fill="#FEF2F2"/>
<path d="M70.4416 52.7164H66.207V56.951H70.4416V52.7164Z" fill="#FEF2F2"/>
<path d="M41.0478 57.5054H36.8132V61.7399H41.0478V57.5054Z" fill="#DC2678"/>
<path opacity="0.8" d="M41.0478 57.5054H36.8132V61.7399H41.0478V57.5054Z" fill="#FEF2F2"/>
<path d="M45.947 57.5054H41.7124V61.7399H45.947V57.5054Z" fill="#FEF2F2"/>
<path d="M50.8454 57.5054H46.6108V61.7399H50.8454V57.5054Z" fill="#FEF2F2"/>
<path d="M55.7446 57.5054H51.51V61.7399H55.7446V57.5054Z" fill="#FEF2F2"/>
<path d="M60.644 57.5054H56.4094V61.7399H60.644V57.5054Z" fill="#FEF2F2"/>
<path d="M65.5434 57.5054H61.3088V61.7399H65.5434V57.5054Z" fill="#FEF2F2"/>
<path d="M70.4416 57.5054H66.207V61.7399H70.4416V57.5054Z" fill="#FEF2F2"/>
<path d="M41.0478 62.2943H36.8132V66.5289H41.0478V62.2943Z" fill="#DC2678"/>
<path opacity="0.8" d="M41.0478 62.2943H36.8132V66.5289H41.0478V62.2943Z" fill="#FEF2F2"/>
<path d="M45.947 62.2952H41.7124V66.5298H45.947V62.2952Z" fill="#FEF2F2"/>
<path d="M50.8454 62.2943H46.6108V66.5289H50.8454V62.2943Z" fill="#FEF2F2"/>
<path d="M55.7446 62.2943H51.51V66.5289H55.7446V62.2943Z" fill="#FEF2F2"/>
<path d="M60.644 62.2943H56.4094V66.5289H60.644V62.2943Z" fill="#FEF2F2"/>
<path d="M65.5424 62.2943H61.3079V66.5289H65.5424V62.2943Z" fill="#FEF2F2"/>
<path d="M70.4416 62.2943H66.207V66.5289H70.4416V62.2943Z" fill="#FEF2F2"/>
<path d="M38.4281 42.0835C38.4082 42.062 38.3835 42.0455 38.3561 42.0352C38.324 42.0218 38.2896 42.0153 38.2549 42.016C38.2117 42.0125 38.1686 42.0237 38.1327 42.0479C38.1201 42.0583 38.1101 42.0714 38.1035 42.0863C38.0968 42.1012 38.0937 42.1174 38.0944 42.1336C38.0934 42.1501 38.0968 42.1664 38.1044 42.1811C38.1122 42.1942 38.1232 42.2052 38.1363 42.213C38.1535 42.223 38.1719 42.2306 38.191 42.2358L38.2694 42.2558C38.3004 42.2616 38.3308 42.2695 38.3606 42.2795C38.3853 42.2872 38.4086 42.2986 38.4299 42.3133C38.4484 42.3254 38.4634 42.342 38.4737 42.3616C38.4842 42.3838 38.4892 42.4082 38.4883 42.4327C38.4889 42.4592 38.4832 42.4854 38.4719 42.5093C38.4604 42.5304 38.4441 42.5485 38.4245 42.5622C38.4028 42.5775 38.3783 42.5884 38.3524 42.5941C38.3226 42.6012 38.2919 42.6046 38.2612 42.6041C38.1681 42.6062 38.0775 42.5737 38.0068 42.513L38.0378 42.4619C38.05 42.4745 38.0635 42.4858 38.078 42.4956C38.1127 42.5188 38.1518 42.5347 38.1928 42.5421C38.2159 42.547 38.2395 42.5494 38.2631 42.5494C38.3041 42.5517 38.3449 42.5422 38.3807 42.5221C38.3946 42.5134 38.406 42.5011 38.4135 42.4865C38.4211 42.4719 38.4245 42.4555 38.4235 42.4391C38.4238 42.422 38.4197 42.405 38.4117 42.3899C38.403 42.3751 38.3904 42.3631 38.3752 42.3552C38.3564 42.3441 38.3361 42.3355 38.315 42.3297C38.2913 42.3224 38.264 42.3151 38.2321 42.3078C38.2001 42.3005 38.1701 42.2923 38.1409 42.2841C38.1186 42.2767 38.0974 42.2663 38.078 42.2531C38.0616 42.2411 38.0482 42.2255 38.0387 42.2075C38.0298 42.1871 38.0254 42.165 38.026 42.1428C38.0256 42.1157 38.0312 42.0889 38.0424 42.0643C38.053 42.0416 38.0693 42.0221 38.0898 42.0078C38.111 41.9916 38.1351 41.9798 38.1609 41.9732C38.228 41.9542 38.2994 41.9564 38.3652 41.9795C38.3987 41.992 38.4296 42.0106 38.4564 42.0342L38.4281 42.0835Z" fill="#9A183A"/>
<path d="M38.8559 42.5476C38.8904 42.5485 38.9246 42.5407 38.9552 42.5248C38.9808 42.5101 39.0024 42.4895 39.0182 42.4647C39.0347 42.4391 39.0462 42.4106 39.0519 42.3808C39.0576 42.3492 39.0607 42.3171 39.061 42.285V41.965H39.123V42.285C39.1232 42.3258 39.1186 42.3665 39.1093 42.4063C39.1008 42.4431 39.085 42.4778 39.0628 42.5084C39.0415 42.5378 39.0133 42.5616 38.9808 42.5777C38.9413 42.5951 38.8986 42.6041 38.8554 42.6041C38.8122 42.6041 38.7695 42.5951 38.73 42.5777C38.6972 42.5612 38.669 42.5367 38.648 42.5066C38.6263 42.4759 38.6111 42.4412 38.6033 42.4045C38.5941 42.3659 38.5895 42.3265 38.5896 42.2868V41.9668H38.6507V42.2868C38.6508 42.3196 38.6542 42.3523 38.6607 42.3844C38.6669 42.4142 38.6783 42.4426 38.6945 42.4683C38.7103 42.4926 38.7319 42.5127 38.7574 42.5267C38.7878 42.5423 38.8218 42.5495 38.8559 42.5476Z" fill="#9A183A"/>
<path d="M39.3364 42.0817V42.5987H39.2734V41.965H39.3218L39.7412 42.4929V41.9659H39.8041V42.5987H39.7494L39.3364 42.0817Z" fill="#9A183A"/>
<path d="M43.3993 42.5987V42.0762L43.1677 42.4783H43.1313L42.8997 42.0762V42.5959H42.8376V41.9622H42.9015L43.1495 42.3963L43.3984 41.9622H43.4613V42.5959L43.3993 42.5987Z" fill="#9A183A"/>
<path d="M43.8765 42.6032C43.8345 42.6038 43.7929 42.5944 43.7552 42.5759C43.7201 42.5585 43.6891 42.534 43.664 42.5038C43.6375 42.4736 43.6167 42.4386 43.6029 42.4008C43.5885 42.363 43.5811 42.3228 43.5811 42.2823C43.5812 42.2408 43.5889 42.1997 43.6039 42.161C43.6186 42.1232 43.6399 42.0884 43.6668 42.058C43.6925 42.0289 43.7234 42.0047 43.758 41.9868C43.7947 41.9694 43.8349 41.9604 43.8756 41.9604C43.9177 41.9601 43.9592 41.9698 43.9969 41.9887C44.0316 42.0073 44.0626 42.0324 44.088 42.0625C44.1138 42.0932 44.1342 42.128 44.1482 42.1656C44.1627 42.2031 44.1701 42.243 44.1701 42.2832C44.1701 42.3657 44.1396 42.4453 44.0844 42.5066C44.0586 42.5357 44.0277 42.5598 43.9932 42.5777C43.9567 42.5947 43.9168 42.6034 43.8765 42.6032ZM43.6412 42.2823C43.641 42.3162 43.6469 42.3498 43.6586 42.3817C43.6692 42.4127 43.6856 42.4415 43.7069 42.4665C43.727 42.4913 43.7522 42.5115 43.7807 42.5257C43.8104 42.5406 43.8433 42.5481 43.8765 42.5476C43.9102 42.5479 43.9434 42.5397 43.9731 42.5239C44.0017 42.5088 44.0271 42.4884 44.0479 42.4637C44.0888 42.4118 44.111 42.3475 44.1108 42.2814C44.1111 42.2475 44.1052 42.2138 44.0935 42.182C44.0822 42.1512 44.0658 42.1226 44.0452 42.0972C44.0245 42.0728 43.9991 42.0529 43.9704 42.0388C43.9406 42.0241 43.9079 42.0164 43.8747 42.0164C43.8415 42.0164 43.8087 42.0241 43.7789 42.0388C43.7505 42.0537 43.7254 42.0742 43.7051 42.099C43.6843 42.1242 43.6683 42.1529 43.6576 42.1838C43.6466 42.2154 43.6411 42.2487 43.6412 42.2823Z" fill="#9A183A"/>
<path d="M44.3542 42.0817V42.5987H44.2913V41.965H44.3396L44.759 42.4929V41.9659H44.8219V42.5987H44.7672L44.3542 42.0817Z" fill="#9A183A"/>
<path d="M48.3771 42.0206H48.1509V42.5987H48.088V42.0206H47.8628V41.965H48.3771V42.0206Z" fill="#9A183A"/>
<path d="M48.728 42.5476C48.7628 42.5485 48.7973 42.5407 48.8283 42.5248C48.8538 42.5101 48.8754 42.4895 48.8912 42.4647C48.9071 42.4389 48.9183 42.4105 48.9241 42.3808C48.9306 42.3493 48.9339 42.3172 48.9341 42.285V41.965H48.9961V42.285C48.9965 42.3259 48.9916 42.3667 48.9815 42.4063C48.9733 42.443 48.9578 42.4778 48.9359 42.5084C48.9144 42.538 48.8859 42.5618 48.8529 42.5777C48.8142 42.596 48.7717 42.6048 48.7289 42.6033C48.6854 42.6048 48.6421 42.5954 48.6031 42.5759C48.57 42.5593 48.5415 42.5349 48.5201 42.5048C48.4989 42.4739 48.4837 42.4392 48.4754 42.4026C48.4666 42.3641 48.4623 42.3246 48.4627 42.285V41.965H48.521V42.285C48.5212 42.3178 48.5245 42.3505 48.5311 42.3826C48.5368 42.4125 48.5482 42.441 48.5648 42.4665C48.5806 42.4908 48.6022 42.5109 48.6277 42.5248C48.6583 42.5419 48.6931 42.5498 48.728 42.5476Z" fill="#9A183A"/>
<path d="M49.5716 42.544V42.5987H49.1458V41.965H49.5634V42.0206H49.2078V42.2495H49.5178V42.3014H49.2078V42.544H49.5716Z" fill="#9A183A"/>
<path d="M52.8871 41.9695H52.9463L53.0375 42.1948L53.1287 41.9695H53.188L53.0776 42.2431L53.1989 42.5294L53.4287 41.9677H53.4962L53.2281 42.6014H53.1716L53.0384 42.2887L52.9044 42.6014H52.8497L52.5825 41.9677H52.6491L52.8798 42.5294L53.0001 42.2431L52.8871 41.9695Z" fill="#9A183A"/>
<path d="M54.0086 42.544V42.5987H53.5828V41.965H54.0004V42.0206H53.6457V42.2495H53.9557V42.3014H53.6457V42.544H54.0086Z" fill="#9A183A"/>
<path d="M54.127 42.5987V41.965H54.3412C54.3869 41.9639 54.4323 41.9726 54.4744 41.9905C54.5091 42.0064 54.5402 42.0294 54.5655 42.058C54.5908 42.0874 54.6101 42.1215 54.6221 42.1583C54.6351 42.198 54.6415 42.2396 54.6412 42.2814C54.6422 42.3258 54.6351 42.37 54.6203 42.4118C54.6071 42.4491 54.5863 42.4833 54.5592 42.5121C54.5323 42.5401 54.4996 42.5619 54.4634 42.5759C54.4234 42.5918 54.3806 42.5995 54.3376 42.5987H54.127ZM54.5829 42.2814C54.5833 42.2458 54.5777 42.2103 54.5665 42.1766C54.5563 42.1462 54.5405 42.1181 54.52 42.0936C54.4989 42.0704 54.4731 42.052 54.4443 42.0398C54.4116 42.0265 54.3765 42.0199 54.3412 42.0206H54.189V42.544H54.3412C54.3772 42.5445 54.4129 42.5377 54.4461 42.524C54.4749 42.5113 54.5004 42.4923 54.5209 42.4683C54.5418 42.4441 54.5576 42.4159 54.5674 42.3854C54.5778 42.3517 54.583 42.3167 54.5829 42.2814Z" fill="#9A183A"/>
<path d="M58.1173 42.0206H57.8912V42.5987H57.8283V42.0206H57.603V41.965H58.1173V42.0206Z" fill="#9A183A"/>
<path d="M58.7118 41.965V42.5987H58.6498V42.3023H58.2778V42.5987H58.2148V41.965H58.2778V42.2476H58.6534V41.965H58.7118Z" fill="#9A183A"/>
<path d="M59.1278 42.5476C59.1624 42.5486 59.1966 42.5408 59.2272 42.5248C59.2531 42.5103 59.275 42.4896 59.291 42.4647C59.3069 42.4389 59.3181 42.4105 59.3239 42.3808C59.3301 42.3492 59.3331 42.3172 59.333 42.285V41.965H59.3959V42.285C59.3963 42.3259 59.3914 42.3667 59.3813 42.4063C59.3731 42.443 59.3576 42.4778 59.3357 42.5084C59.314 42.5378 59.2855 42.5616 59.2528 42.5777C59.214 42.596 59.1715 42.6048 59.1287 42.6033C59.0852 42.6048 59.0419 42.5954 59.0029 42.5759C58.9699 42.5593 58.9414 42.5349 58.9199 42.5048C58.8987 42.4739 58.8835 42.4392 58.8752 42.4026C58.8661 42.3641 58.8615 42.3246 58.8616 42.285V41.965H58.9236V42.285C58.9233 42.3178 58.9266 42.3505 58.9336 42.3826C58.9394 42.4123 58.9505 42.4407 58.9664 42.4665C58.984 42.4929 59.0081 42.5142 59.0364 42.5284C59.0647 42.5427 59.0962 42.5493 59.1278 42.5476Z" fill="#9A183A"/>
<path d="M62.8369 42.5987V41.965H63.2527V42.0206H62.8998V42.2586H63.2016V42.3096H62.9035V42.6032L62.8369 42.5987Z" fill="#9A183A"/>
<path d="M63.366 42.5987V41.965H63.634C63.66 41.965 63.6855 41.9709 63.7088 41.9823C63.7311 41.9938 63.7512 42.0093 63.7681 42.0279C63.802 42.0654 63.8208 42.1141 63.821 42.1647C63.8208 42.1872 63.8175 42.2096 63.8109 42.2312C63.8043 42.2513 63.7948 42.2704 63.7827 42.2878C63.7706 42.3047 63.7554 42.3193 63.738 42.3306C63.7205 42.3427 63.7006 42.3508 63.6796 42.3543L63.8356 42.5987H63.7644L63.6158 42.3653H63.428V42.5987H63.366ZM63.428 42.3096H63.635C63.6527 42.31 63.6703 42.306 63.686 42.2978C63.701 42.2897 63.714 42.2785 63.7243 42.265C63.7353 42.2509 63.7439 42.2352 63.7499 42.2185C63.7557 42.2011 63.7588 42.183 63.759 42.1647C63.7589 42.1456 63.7552 42.1267 63.748 42.109C63.736 42.0756 63.7115 42.0482 63.6796 42.0324C63.6644 42.0246 63.6475 42.0205 63.6304 42.0206H63.428V42.3096Z" fill="#9A183A"/>
<path d="M63.9485 42.5987V41.965H64.0114V42.5987H63.9485Z" fill="#9A183A"/>
<path d="M67.9788 42.0835C67.9588 42.062 67.9342 42.0455 67.9067 42.0352C67.8746 42.022 67.8402 42.0154 67.8055 42.0161C67.7621 42.0126 67.7187 42.0239 67.6824 42.048C67.6699 42.0583 67.6599 42.0715 67.6532 42.0863C67.6466 42.1012 67.6435 42.1174 67.6441 42.1337C67.6437 42.1494 67.6473 42.165 67.6547 42.1789C67.662 42.1928 67.6728 42.2045 67.6861 42.213C67.7036 42.2228 67.7223 42.2305 67.7417 42.2358L67.8201 42.2559C67.851 42.2617 67.8814 42.2697 67.9113 42.2796C67.9357 42.2873 67.9587 42.2987 67.9797 42.3133C67.9982 42.3257 68.0135 42.3422 68.0243 42.3616C68.0349 42.3838 68.0399 42.4082 68.0389 42.4328C68.0395 42.4592 68.0339 42.4855 68.0225 42.5094C68.011 42.5304 67.9948 42.5485 67.9751 42.5622C67.9531 42.5776 67.9283 42.5884 67.9022 42.5942C67.8723 42.6014 67.8417 42.6048 67.811 42.6042C67.7176 42.6061 67.6267 42.5737 67.5557 42.513L67.5876 42.4619C67.5997 42.4745 67.6132 42.4859 67.6277 42.4957C67.6624 42.5189 67.7015 42.5347 67.7426 42.5422C67.7654 42.547 67.7886 42.5494 67.8119 42.5495C67.8532 42.5518 67.8943 42.5424 67.9304 42.5221C67.9444 42.5134 67.9557 42.5011 67.9633 42.4865C67.9708 42.4719 67.9743 42.4556 67.9733 42.4391C67.9738 42.4219 67.9694 42.4048 67.9605 42.3899C67.9521 42.3753 67.9398 42.3633 67.925 42.3553C67.906 42.3443 67.8858 42.3357 67.8648 42.3297C67.8411 42.3224 67.8137 42.3151 67.7818 42.3078C67.7499 42.3005 67.7198 42.2923 67.6906 42.2841C67.6683 42.2768 67.6471 42.2663 67.6277 42.2531C67.6113 42.2411 67.5979 42.2255 67.5885 42.2075C67.5795 42.1872 67.5752 42.1651 67.5757 42.1428C67.5753 42.1158 67.5809 42.089 67.5921 42.0644C67.6027 42.0419 67.6186 42.0225 67.6386 42.0078C67.6602 41.9918 67.6847 41.9801 67.7107 41.9732C67.7403 41.9645 67.771 41.9602 67.8019 41.9604C67.8401 41.9598 67.8781 41.9663 67.914 41.9796C67.9476 41.9919 67.9785 42.0105 68.0052 42.0343L67.9788 42.0835Z" fill="#9A183A"/>
<path d="M68.3353 41.965H68.3882L68.6517 42.5987H68.5815L68.4994 42.4008H68.2167L68.1356 42.5987H68.0681L68.3353 41.965ZM68.4903 42.3498L68.3626 42.037L68.2322 42.3498H68.4903Z" fill="#9A183A"/>
<path d="M69.1288 42.0206H68.9026V42.5987H68.8406V42.0206H68.6145V41.965H69.1288V42.0206Z" fill="#9A183A"/>
<path d="M45.1884 43.9764H42.4666V44.188H45.1884V43.9764Z" fill="#FEE5E7"/>
<path d="M44.0066 44.4406H42.4666V44.6522H44.0066V44.4406Z" fill="#FEE5E7"/>
<path d="M50.0458 63.1223H47.324V63.3338H50.0458V63.1223Z" fill="#FEE5E7"/>
<path d="M48.8641 63.5855H47.324V63.7971H48.8641V63.5855Z" fill="#FEE5E7"/>
<path d="M59.8224 58.2485H57.1006V58.46H59.8224V58.2485Z" fill="#FEE5E7"/>
<path d="M58.5258 59.1768H57.1006V59.3883H58.5258V59.1768Z" fill="#FEE5E7"/>
<path d="M59.0629 58.7126H57.1006V58.9242H59.0629V58.7126Z" fill="#FEE5E7"/>
<path d="M48.6798 54.4362H47.2546V54.6477H48.6798V54.4362Z" fill="#FEE5E7"/>
<path d="M49.2169 53.9729H47.2546V54.1844H49.2169V53.9729Z" fill="#FEE5E7"/>
<path d="M50.6898 53.7535L50.6787 53.7303C50.7019 53.7794 50.6889 53.7526 50.6898 53.7535Z" fill="#841738"/>
<path d="M50.8665 54.2473L50.8638 54.2382L50.882 54.3139L50.8665 54.2473Z" fill="#841738"/>
<path d="M50.9167 54.7343C50.9209 54.646 50.9173 54.5575 50.9057 54.4699V54.4553C50.9042 54.4424 50.9017 54.4296 50.8984 54.417C50.9141 54.522 50.9202 54.6282 50.9167 54.7343Z" fill="#841738"/>
<path d="M50.8801 54.9924C50.8847 54.9769 50.8728 55.048 50.8911 54.9331V54.944C50.8865 54.9541 50.8847 54.9687 50.8801 54.9924Z" fill="#841738"/>
<path d="M50.892 54.9443C50.8855 54.9776 50.9013 54.8924 50.892 54.9443V54.9443Z" fill="#841738"/>
<path d="M50.8355 55.1738C50.8427 55.1526 50.8484 55.131 50.8528 55.1091C50.8489 55.1259 50.8434 55.1424 50.8364 55.1583C50.8163 55.224 50.8218 55.2112 50.8355 55.1738Z" fill="#841738"/>
<path d="M50.8198 55.2363L50.83 55.2029C50.8254 55.2137 50.822 55.2248 50.8198 55.2363Z" fill="#841738"/>
<path d="M50.8508 55.1318L50.8298 55.203C50.8348 55.1926 50.8379 55.1815 50.839 55.1701C50.839 55.1765 50.8417 55.1619 50.8508 55.1318Z" fill="#841738"/>
<path d="M50.8618 55.0908C50.8709 55.0543 50.8837 55.0069 50.8691 55.0735C50.8775 55.0437 50.883 55.0132 50.8855 54.9823C50.8846 54.9914 50.8773 55.0242 50.8618 55.0908Z" fill="#841738"/>
<path d="M50.9202 54.7598V54.7087V54.665C50.922 54.6869 50.9184 54.7635 50.9202 54.7598Z" fill="#841738"/>
<path d="M50.655 55.5503C50.655 55.5549 50.6696 55.533 50.6742 55.5294L50.6979 55.4865C50.6842 55.5075 50.6587 55.5485 50.655 55.5503Z" fill="#841738"/>
<path d="M50.6742 55.5294C50.6622 55.5515 50.6488 55.5728 50.634 55.5932C50.6742 55.5394 50.676 55.5267 50.6742 55.5294Z" fill="#841738"/>
<path d="M50.8207 55.2495L50.8554 55.1309C50.8408 55.1774 50.8298 55.2221 50.8125 55.2713L50.8207 55.2495Z" fill="#841738"/>
<path d="M50.4779 55.771L50.5044 55.7382L50.4561 55.7957L50.4779 55.771Z" fill="#841738"/>
<path d="M50.3449 55.8996C50.3658 55.8768 50.3093 55.9233 50.3321 55.8996L50.23 55.9853C50.2592 55.9598 50.2965 55.9361 50.3449 55.8996Z" fill="#841738"/>
<path d="M50.1753 56.0273C50.1933 56.0149 50.2107 56.0015 50.2273 55.9872C50.2109 56.0009 50.1926 56.0127 50.1753 56.0273Z" fill="#841738"/>
<path d="M50.558 55.6935C50.5429 55.7065 50.5289 55.7207 50.5164 55.7362L50.5386 55.7167L50.558 55.6935Z" fill="#841738"/>
<path d="M50.5388 55.7155C50.5259 55.7319 50.5119 55.7475 50.4968 55.762C50.5118 55.7474 50.5258 55.7318 50.5388 55.7155Z" fill="#841738"/>
<path d="M50.7388 55.4272C50.7224 55.4683 50.675 55.5467 50.7233 55.4728C50.737 55.4437 50.7096 55.4883 50.7388 55.4272Z" fill="#841738"/>
<path d="M50.5891 55.6626C50.6055 55.6425 50.6201 55.6206 50.6365 55.5987C50.6365 55.5987 50.6247 55.6106 50.6365 55.5923C50.6183 55.6161 50.6055 55.6398 50.5891 55.6626Z" fill="#841738"/>
<path d="M50.5654 55.694L50.5895 55.6625L50.5701 55.6857L50.5654 55.694Z" fill="#841738"/>
<path d="M50.2875 55.9516C50.261 55.9726 50.2328 55.9972 50.1963 56.0209C50.2355 55.9972 50.2711 55.9671 50.3075 55.9407C50.3121 55.9361 50.3258 55.9215 50.2875 55.9516Z" fill="#841738"/>
<path d="M49.8333 56.2205L49.8396 56.2187L49.8405 56.2169L49.8333 56.2205Z" fill="#841738"/>
<path d="M50.3147 55.9361C50.3344 55.9214 50.3527 55.9049 50.3694 55.8868C50.35 55.9056 50.3296 55.9232 50.3083 55.9397C50.3083 55.9397 50.3065 55.9434 50.3147 55.9361Z" fill="#841738"/>
<path d="M50.0786 56.0902C50.0963 56.082 50.1133 56.0726 50.1297 56.062L50.0786 56.0902Z" fill="#841738"/>
<path d="M50.4022 55.8559C50.3955 55.8593 50.3977 55.8593 50.4022 55.8559V55.8559Z" fill="#841738"/>
<path d="M50.4018 55.856L50.3694 55.8884L50.412 55.8495L50.4018 55.856Z" fill="#841738"/>
<path d="M49.7293 56.3009C49.78 56.272 49.833 56.2476 49.8879 56.2279C49.9563 56.1914 49.9034 56.1987 49.8396 56.2188C49.8396 56.2188 49.8396 56.2188 49.7676 56.2553C49.7949 56.2507 49.9299 56.1924 49.8715 56.2234C49.8311 56.2448 49.7882 56.2613 49.7438 56.2726C49.7657 56.2671 49.7356 56.2817 49.7028 56.2981C49.67 56.3145 49.6344 56.3273 49.6472 56.3291C49.6764 56.3182 49.7046 56.3072 49.7329 56.2936C49.7347 56.2945 49.7065 56.3091 49.7293 56.3009Z" fill="#841738"/>
<path d="M49.9746 56.155L50.0029 56.1385C49.9698 56.156 49.9353 56.1706 49.8998 56.1823C49.8791 56.1921 49.8593 56.2037 49.8406 56.217C49.888 56.1942 49.9372 56.1732 49.9837 56.1495L49.9746 56.155Z" fill="#841738"/>
<path d="M50.1278 56.0665C50.1105 56.0865 50.043 56.1248 50.0877 56.1066C50.1228 56.085 50.1564 56.0609 50.188 56.0346C50.0604 56.1194 50.2227 56.009 50.1287 56.0665L50.1971 56.0209L50.1297 56.0619C50.1297 56.0619 50.1297 56.0619 50.1251 56.0674C50.0877 56.0911 50.1187 56.0674 50.1297 56.0619C50.0886 56.092 50.0385 56.1139 49.9993 56.1403C50.0303 56.123 50.0713 56.1057 50.1278 56.0665Z" fill="#841738"/>
<path d="M50.6885 55.5477C50.6796 55.5636 50.6805 55.5601 50.6885 55.5477V55.5477Z" fill="#841738"/>
<path d="M50.6521 55.5996C50.6576 55.5896 50.664 55.5796 50.6822 55.5513C50.6922 55.5321 50.7187 55.4838 50.6822 55.5422L50.6767 55.5513C50.6525 55.5876 50.626 55.6223 50.5974 55.6552C50.6168 55.6379 50.6351 55.6193 50.6521 55.5996Z" fill="#841738"/>
<path d="M50.4115 55.865C50.3796 55.8933 50.3504 55.9243 50.3203 55.9507C50.3384 55.9387 50.3557 55.9256 50.3723 55.9115C50.4197 55.8641 50.406 55.8732 50.4115 55.865Z" fill="#841738"/>
<path d="M49.8188 56.2233L49.8316 56.2115L49.7668 56.2461L49.8188 56.2233Z" fill="#841738"/>
<path d="M49.6652 56.2836L49.6689 56.2771L49.6282 56.2938L49.6652 56.2836Z" fill="#841738"/>
<path d="M50.3817 53.5252H50.3738C50.3843 53.5313 50.3887 53.534 50.3817 53.5252Z" fill="#841738"/>
<path d="M46.4988 54.9495C46.5079 54.8957 46.5207 54.8374 46.5106 54.8437L46.5015 54.8592C46.5026 54.8894 46.5017 54.9195 46.4988 54.9495Z" fill="#841738"/>
<path d="M48.2422 53.0948H48.2258L48.1912 53.1122L48.2422 53.0948Z" fill="#841738"/>
<path d="M50.7853 55.2203L50.7771 55.2677C50.8008 55.1993 50.788 55.2276 50.7853 55.2203Z" fill="#841738"/>
<path d="M47.9904 56.4695C47.9439 56.4631 47.9084 56.4513 47.8765 56.4458C47.9126 56.4607 47.9513 56.4688 47.9904 56.4695Z" fill="#841738"/>
<path d="M50.4123 53.7222C50.4281 53.7379 50.4364 53.7444 50.4373 53.7426C50.4207 53.7259 50.4105 53.7166 50.4123 53.7222Z" fill="#841738"/>
<path d="M47.7451 56.4175L47.7688 56.4267C47.8017 56.4321 47.8363 56.4367 47.8764 56.4458C47.8333 56.4337 47.7894 56.4242 47.7451 56.4175Z" fill="#841738"/>
<path d="M46.6135 54.7931V54.7817C46.6129 54.7855 46.6129 54.7893 46.6135 54.7931Z" fill="#841738"/>
<path d="M49.0173 56.4366C49.0227 56.4366 49.0512 56.4304 49.0173 56.4366V56.4366Z" fill="#841738"/>
<path d="M49.19 56.434C49.183 56.434 49.1777 56.434 49.1777 56.4392C49.1815 56.4368 49.1856 56.435 49.19 56.434Z" fill="#841738"/>
<path d="M49.062 56.4294L49.0935 56.4248C49.0935 56.4248 49.0935 56.423 49.062 56.4294Z" fill="#841738"/>
<path d="M48.9688 56.444L49.0253 56.4367H49.0171L48.9688 56.444Z" fill="#841738"/>
<path d="M48.6273 56.371H48.6199C48.5838 56.3775 48.5995 56.3757 48.6273 56.371Z" fill="#841738"/>
<path d="M46.7093 53.9301C46.6931 53.9704 46.6717 54.0084 46.6455 54.0431L46.6929 54.0221C46.6975 53.9957 46.6975 53.9629 46.7093 53.9301Z" fill="#841738"/>
<path d="M50.8381 54.3586L50.8245 54.2674C50.8691 54.3723 50.8728 54.4562 50.871 54.3659C50.8414 54.3097 50.8194 54.25 50.8053 54.1881C50.778 54.0969 50.7369 54.0194 50.7214 54.0194C50.716 53.9993 50.7077 53.9811 50.7005 53.962L50.7187 53.9948C50.6786 53.8817 50.6612 53.9255 50.5856 53.7942C50.5564 53.7495 50.5391 53.7167 50.5628 53.744C50.539 53.712 50.5131 53.6815 50.4853 53.6528C50.4634 53.6255 50.4734 53.6282 50.4944 53.6528L50.436 53.5836L50.3722 53.5197C50.3512 53.5033 50.3029 53.4696 50.281 53.4541C50.25 53.4203 50.3002 53.4668 50.2947 53.4541C50.2673 53.4349 50.2418 53.413 50.2135 53.3957C50.1871 53.3638 50.2573 53.4076 50.3047 53.4559C50.2546 53.3711 50.2409 53.403 50.085 53.2735C50.1132 53.2883 50.1403 53.3051 50.1661 53.3237C50.1444 53.2958 50.1178 53.272 50.0877 53.2535C50.0549 53.2298 50.0175 53.2042 49.971 53.1741C49.9938 53.1887 50.1415 53.3109 50.0448 53.2589C50.01 53.2331 49.9716 53.2126 49.9309 53.1978C49.9363 53.1878 49.8853 53.1614 49.8187 53.1349L49.8287 53.1231C49.792 53.1084 49.7533 53.0995 49.7138 53.0966C49.6719 53.0858 49.6335 53.0641 49.6026 53.0337C49.4695 52.9954 49.6938 53.0766 49.5315 53.0337C49.4818 53.0164 49.4305 53.0042 49.3783 52.9972C49.321 52.9881 49.2631 52.9829 49.205 52.9817C49.1266 52.9671 49.2196 52.9735 49.1923 52.9662L49.1212 52.9708C49.1038 52.9708 49.1093 52.9662 49.112 52.9644C49.0528 52.9644 49.1066 52.979 49.0136 52.979C48.9889 52.9927 48.8221 52.9498 48.7081 52.979C48.6798 52.979 48.7209 52.969 48.7127 52.9635C48.6244 52.9734 48.5374 52.9921 48.4528 53.0191C48.4154 53.0191 48.3789 53.0191 48.3425 53.0264C48.4236 53.0219 48.3242 53.0547 48.2394 53.0848H48.3096L48.1719 53.1212C48.1546 53.1212 48.1674 53.1149 48.1884 53.1039L48.1637 53.113C48.1136 53.1203 48.1364 53.1039 48.1701 53.0875H48.223C48.2558 53.0711 48.2859 53.0547 48.2768 53.0474C48.2677 53.0401 48.2513 53.0556 48.2321 53.0611C48.2403 53.0565 48.2458 53.0529 48.2412 53.0519C48.2269 53.0557 48.2129 53.0606 48.1993 53.0665L48.1637 53.0565L48.1573 53.0647L47.975 53.103C47.8501 53.1577 47.7461 53.217 47.5546 53.3091C47.5984 53.2772 47.5546 53.2863 47.5546 53.2717C47.5933 53.2626 47.6305 53.2478 47.665 53.2279C47.7115 53.2022 47.7607 53.1817 47.8118 53.1668C47.7561 53.1833 47.7653 53.1732 47.7789 53.1668C47.7166 53.1923 47.6557 53.2212 47.5966 53.2535C47.5966 53.2416 47.5528 53.2589 47.5054 53.2799C47.5519 53.2854 47.3777 53.3574 47.3148 53.4103C47.3075 53.4103 47.3148 53.3857 47.406 53.341C47.3002 53.3775 47.2993 53.4377 47.2008 53.4814C47.22 53.4668 47.2327 53.4623 47.2382 53.4532C47.1935 53.4878 47.0832 53.5699 47.1042 53.5443L47.1233 53.5297C47.0834 53.5572 47.0456 53.5877 47.0103 53.6209C46.9689 53.6564 46.9299 53.6944 46.8935 53.7349C46.843 53.782 46.8024 53.8388 46.7741 53.9018C46.7708 53.888 46.7708 53.8736 46.7741 53.8598C46.732 53.9481 46.697 54.0396 46.6692 54.1334C46.6692 54.1042 46.5835 54.168 46.6437 54.0486C46.6108 54.0939 46.5844 54.1437 46.5653 54.1963C46.579 54.1735 46.6163 54.1489 46.6008 54.1808C46.5617 54.2311 46.5286 54.2859 46.5024 54.344C46.5215 54.3085 46.5252 54.3577 46.5078 54.4151C46.5078 54.4051 46.4823 54.4151 46.486 54.3896C46.4805 54.4425 46.4714 54.4936 46.4686 54.5455C46.4686 54.5063 46.4495 54.5337 46.4358 54.5665C46.4431 54.551 46.4084 54.6978 46.4103 54.7398L46.423 54.675C46.4021 54.8492 46.4394 54.8492 46.4458 55.0179C46.4385 54.9978 46.4103 54.9686 46.4148 55.0571C46.4221 55.0762 46.4404 55.1191 46.4668 55.1729C46.4932 55.2267 46.5206 55.2923 46.5452 55.3616C46.5452 55.3707 46.5452 55.3808 46.5452 55.3908L46.5926 55.4929C46.5172 55.3866 46.4591 55.2691 46.4203 55.1446C46.4202 55.1836 46.4245 55.2224 46.4331 55.2604C46.4331 55.2969 46.413 55.2103 46.4084 55.1811C46.42 55.2576 46.4371 55.3332 46.4595 55.4072C46.4686 55.3926 46.5343 55.5668 46.5443 55.5531C46.5065 55.479 46.4742 55.4022 46.4477 55.3233C46.4531 55.3169 46.4723 55.3489 46.496 55.4008C46.5197 55.4528 46.5534 55.523 46.5872 55.5941C46.6008 55.6324 46.5516 55.5777 46.5489 55.5823C46.5461 55.5868 46.5744 55.6242 46.5926 55.6571C46.6109 55.6899 46.6318 55.72 46.6337 55.7273C46.62 55.709 46.6045 55.6917 46.5917 55.6726C46.6346 55.7528 46.6829 55.7902 46.7376 55.8823C46.7577 55.9133 46.796 55.9789 46.8069 55.978C46.7768 55.9224 46.8069 55.8868 46.8425 55.9051L46.9054 55.9871C46.9382 56.0264 46.9765 56.0656 46.9893 56.0829C47.0267 56.1321 46.8981 56.0437 46.9346 56.0829C46.9501 56.0901 46.9647 56.099 46.9783 56.1093C47.0057 56.1367 46.9565 56.1093 47.0248 56.1595C47.0449 56.1595 47.1625 56.2625 47.0641 56.1741C47.1324 56.2206 47.1334 56.2279 47.2163 56.2771C47.2054 56.2662 47.2282 56.2707 47.2619 56.2835C47.2957 56.2963 47.344 56.3099 47.3805 56.3263C47.375 56.3263 47.3896 56.3391 47.3969 56.3455C47.4716 56.3801 47.5327 56.4011 47.5911 56.4257C47.6495 56.4504 47.7087 56.464 47.7853 56.4804C47.799 56.4859 47.8765 56.5032 47.8391 56.5023C47.8697 56.5038 47.9001 56.5071 47.9303 56.5124C48.0215 56.5379 47.8245 56.4959 47.892 56.5206C47.8993 56.5206 48.0178 56.5279 48.0862 56.5297C48.0117 56.5167 47.9365 56.5075 47.861 56.5023C47.861 56.495 47.8929 56.4923 47.9431 56.495C47.9932 56.4978 48.0634 56.495 48.1437 56.5005C48.2713 56.5005 48.1984 56.5115 48.2212 56.5096C48.294 56.5144 48.3671 56.5111 48.4391 56.4996C48.501 56.4905 48.5635 56.4863 48.626 56.4868C48.7063 56.4868 48.6306 56.5042 48.6488 56.5087C48.5449 56.5215 48.4874 56.5087 48.4163 56.5151H48.5075C48.4603 56.5204 48.4128 56.5228 48.3652 56.5224C48.5643 56.5227 48.7631 56.5109 48.9607 56.4868C48.9935 56.4804 49.0519 56.4668 49.0227 56.4686L48.9643 56.4786C48.9096 56.4786 49.0728 56.4531 48.999 56.4613C49.0756 56.4422 49.1622 56.4257 49.2725 56.4029L49.2944 56.4075C49.2598 56.4109 49.2256 56.4176 49.1923 56.4276C49.2654 56.4162 49.3376 56.3997 49.4084 56.3783C49.3829 56.3829 49.3573 56.3884 49.3309 56.3911L49.5926 56.3063C49.5479 56.3118 49.5725 56.3163 49.5014 56.3254C49.5634 56.3254 49.2588 56.3893 49.3564 56.3774C49.2835 56.3774 49.2342 56.4011 49.1403 56.4066C49.1403 56.4066 49.174 56.4066 49.0929 56.4184L49.0756 56.4239C49.0898 56.4228 49.1042 56.4228 49.1184 56.4239C49.0481 56.4416 48.9769 56.4553 48.9051 56.4649C48.8567 56.4649 48.9251 56.4595 48.8987 56.4595L48.833 56.4722C48.8257 56.4668 48.7026 56.4722 48.8166 56.4586C48.782 56.4631 48.7473 56.464 48.7136 56.4668C48.6516 56.4668 48.5686 56.4722 48.5166 56.475C48.4646 56.4777 48.3935 56.4868 48.4355 56.4804C48.3818 56.4847 48.3279 56.4862 48.2741 56.485H48.1528C48.1118 56.485 48.0707 56.4786 48.0279 56.475C47.9407 56.4672 47.8546 56.4507 47.7707 56.4257C47.7064 56.4115 47.6431 56.3932 47.5811 56.371L47.5665 56.3583C47.5346 56.3464 47.4871 56.3282 47.4452 56.309C47.4162 56.2917 47.3857 56.277 47.354 56.2653C47.3239 56.2425 47.2565 56.1978 47.1817 56.1531L47.0759 56.0756C47.0471 56.0533 47.0197 56.0292 46.9938 56.0036L46.9838 56.0081C46.9518 55.981 46.9214 55.9521 46.8926 55.9215C46.8598 55.8894 46.8293 55.855 46.8015 55.8185V55.8294C46.7259 55.7328 46.6645 55.626 46.6191 55.5121C46.632 55.5317 46.6424 55.5528 46.6501 55.575C46.5954 55.4191 46.5097 55.2513 46.506 55.0972C46.5007 55.0671 46.4983 55.0366 46.4987 55.006V55.0151V54.9996C46.4987 54.9832 46.4987 54.9659 46.4987 54.9477C46.497 54.9622 46.497 54.9769 46.4987 54.9914C46.4942 54.9632 46.4987 54.9185 46.4932 54.8756L46.5042 54.8574V54.8483C46.5042 54.8063 46.5042 54.8136 46.4905 54.8355C46.4905 54.8136 46.4905 54.7945 46.4905 54.7781C46.5106 54.7461 46.4951 54.6641 46.5252 54.6221C46.517 54.5902 46.5708 54.4106 46.5625 54.3823C46.5625 54.3823 46.5717 54.3705 46.5625 54.3923C46.5832 54.3501 46.6003 54.3062 46.6136 54.261L46.6355 54.2483L46.6674 54.1462C46.7048 54.0933 46.7267 54.075 46.7011 54.1334C46.7383 54.0563 46.7803 53.9817 46.827 53.91V53.9209C46.8522 53.8783 46.8829 53.839 46.9182 53.8042C46.94 53.7878 46.971 53.7541 47.0157 53.7176C47.066 53.6723 47.1187 53.6296 47.1735 53.5899C47.2947 53.4977 47.427 53.4211 47.5674 53.362C47.5081 53.362 47.6878 53.3237 47.6896 53.3009C47.7069 53.3009 47.7425 53.2899 47.7042 53.3118C47.7548 53.2886 47.8072 53.2697 47.861 53.2553C47.9044 53.2424 47.9468 53.2262 47.9877 53.207C48.0042 53.207 47.9613 53.2234 47.9759 53.2234C47.9937 53.2156 48.0124 53.2101 48.0315 53.207C48.0461 53.207 48.0142 53.217 47.9932 53.2261C48.1291 53.1887 48.1382 53.165 48.1437 53.144C48.1976 53.1415 48.2506 53.1285 48.2996 53.1057C48.3251 53.1057 48.3671 53.1057 48.2814 53.1249C48.3297 53.1112 48.5804 53.0839 48.5841 53.0693C48.6116 53.0697 48.6391 53.0672 48.6662 53.062C48.7765 53.052 48.7865 53.0556 48.8959 53.0519H48.8649C48.9087 53.031 48.9561 53.0456 49.0473 53.0519C49.1476 53.062 49.1686 53.0675 49.1905 53.0675C49.2378 53.0696 49.2847 53.0779 49.33 53.0921L49.3208 53.0784C49.3318 53.0684 49.3756 53.0784 49.4294 53.0957C49.486 53.1174 49.5439 53.136 49.6026 53.1513C49.5906 53.1444 49.5781 53.1383 49.5652 53.1331C49.6401 53.1619 49.7107 53.2009 49.7749 53.2489C49.7868 53.2562 49.754 53.2434 49.7366 53.2371C49.8789 53.3164 49.7631 53.2298 49.8734 53.2799C49.8898 53.2972 49.8388 53.2799 49.9099 53.3237C50.0157 53.3695 50.1141 53.431 50.2017 53.506C50.1871 53.4851 50.1725 53.4641 50.2181 53.4978C50.2883 53.5507 50.3695 53.6802 50.4324 53.7249C50.4388 53.7349 50.4397 53.7386 50.4388 53.7404C50.4606 53.7659 50.4944 53.8079 50.5245 53.848C50.5465 53.8811 50.5702 53.9131 50.5956 53.9437C50.6168 54.0181 50.6475 54.0895 50.6868 54.1562C50.7251 54.2474 50.7515 54.3285 50.7342 54.3322C50.7437 54.3648 50.7513 54.398 50.757 54.4316C50.764 54.4647 50.7692 54.4982 50.7725 54.5319V54.5264C50.778 54.5911 50.7825 54.634 50.7853 54.6686C50.788 54.7033 50.7926 54.7233 50.7962 54.748C50.7998 54.7726 50.7907 54.7562 50.7889 54.7534C50.787 54.7917 50.7827 54.8297 50.7761 54.8674C50.7716 54.8984 50.7698 54.9239 50.7652 54.9467C50.7579 54.9951 50.7543 55.0379 50.7378 55.1182L50.7223 55.1309C50.7043 55.1871 50.6798 55.2409 50.6494 55.2914C50.6261 55.3313 50.6009 55.3699 50.5737 55.4072C50.5487 55.4484 50.5216 55.4882 50.4926 55.5267C50.4926 55.5267 50.4926 55.5203 50.5026 55.5084C50.3813 55.6853 50.1169 55.8248 50.0713 55.8941L50.0148 55.9361L49.9546 55.9726C50.1178 55.8905 49.9382 55.999 50.0075 55.9726C49.9445 56.0081 49.8369 56.0482 49.9163 56.0063L49.93 56.0008C49.94 55.9853 49.8889 56.0099 49.8388 56.0364C49.8035 56.0568 49.7649 56.0707 49.7248 56.0774C49.3966 56.207 49.0495 56.2825 48.6972 56.3008L48.7364 56.3108L48.6196 56.32C48.5886 56.32 48.5777 56.3127 48.6616 56.3063C48.6138 56.3072 48.5662 56.3124 48.5193 56.3218C48.3552 56.3218 48.5832 56.3063 48.533 56.3063H48.4646H48.4801C48.4273 56.3163 48.3734 56.3197 48.3197 56.3163C48.2558 56.3099 48.2868 56.3063 48.2622 56.3045C48.2495 56.3028 48.2366 56.3028 48.2239 56.3045C48.1756 56.2999 48.1254 56.3045 48.0771 56.2917C48.0963 56.2972 48.1154 56.3036 48.1346 56.3072C48.0689 56.3072 47.9978 56.2881 48.0634 56.3072C48.0151 56.2908 47.8811 56.2744 47.7498 56.2397C47.6898 56.2272 47.6309 56.2098 47.5738 56.1877L47.4726 56.1522C47.3806 56.119 47.2935 56.0736 47.2136 56.0172C47.2355 56.0346 47.2446 56.0519 47.1653 55.9963C47.1753 55.9963 47.1717 55.9908 47.1598 55.9808C47.1412 55.9664 47.1238 55.9505 47.1078 55.9333C47.0658 55.8959 47.0276 55.8544 46.9938 55.8093C47.0294 55.8695 46.8261 55.5951 46.8826 55.6881C46.8425 55.6179 46.8826 55.6808 46.858 55.6261C46.7421 55.4388 46.6741 55.2258 46.6601 55.006C46.6601 55.006 46.6601 55.0425 46.6519 54.9923V54.9294L46.6583 54.8674C46.6545 54.8246 46.6545 54.7816 46.6583 54.7388C46.6537 54.7689 46.6583 54.7507 46.6583 54.7388C46.6858 54.5035 46.7642 54.277 46.8881 54.075L46.9893 53.9273L47.1124 53.796C47.1529 53.752 47.1978 53.7123 47.2464 53.6775C47.2919 53.639 47.3397 53.6034 47.3896 53.5708C47.333 53.6027 47.3704 53.5808 47.4124 53.5553C47.385 53.5717 47.4124 53.5553 47.4069 53.5553L47.5783 53.4541C47.6084 53.4331 47.7735 53.3674 47.7917 53.3574L47.7343 53.3829C47.8108 53.3492 47.6248 53.4276 47.6358 53.4212C47.5814 53.4456 47.5287 53.4736 47.478 53.5051C47.4111 53.5384 47.348 53.579 47.2902 53.6264C47.2628 53.6465 47.313 53.6073 47.2975 53.6182C47.2674 53.6437 47.23 53.6729 47.1607 53.7258L47.168 53.7194C47.0085 53.8579 46.8769 54.0257 46.7805 54.2136L46.7887 54.2036L46.7404 54.2948C46.7139 54.3577 46.8179 54.1443 46.7942 54.2036C46.7358 54.2647 46.6428 54.5966 46.6346 54.6504C46.6182 54.7416 46.6446 54.6249 46.6282 54.7151C46.6252 54.7231 46.6231 54.7313 46.6218 54.7398V54.7626C46.6217 54.7933 46.618 54.8239 46.6109 54.8537V54.7954C46.6109 54.8346 46.6045 54.8866 46.6036 54.9394C46.6027 54.9923 46.6127 55.0306 46.6136 55.0443L46.6081 54.9531C46.6145 55.016 46.6191 55.0826 46.6282 55.1501C46.6373 55.2176 46.6574 55.2859 46.6756 55.3525C46.6939 55.4191 46.7239 55.4838 46.7522 55.5449C46.7805 55.606 46.816 55.6616 46.8498 55.7127C46.8461 55.7074 46.8434 55.7015 46.8416 55.6954C46.9067 55.7956 46.9839 55.8874 47.0714 55.9689L47.065 55.9643C47.0814 55.9762 47.0978 55.9944 47.1197 56.009L47.1872 56.0546C47.1425 56.0282 47.2637 56.1166 47.2054 56.0811C47.2436 56.11 47.286 56.1327 47.3312 56.1485C47.3476 56.154 47.3558 56.1549 47.4178 56.1786L47.4434 56.1978C47.4925 56.2088 47.5409 56.2228 47.5884 56.2397C47.5081 56.2169 47.6467 56.2698 47.5564 56.2443C47.6337 56.2778 47.7149 56.3014 47.7981 56.3145C47.8619 56.3291 47.9112 56.3346 47.9586 56.351C48.0087 56.351 47.9631 56.3409 47.9121 56.3327C47.8849 56.3312 47.8581 56.3253 47.8327 56.3154C47.8109 56.3072 47.8327 56.309 47.8656 56.3154C47.8984 56.3218 47.9476 56.3245 47.9805 56.3309C48.0725 56.3582 48.1673 56.3754 48.2631 56.382H48.2276C48.2923 56.3911 48.3534 56.382 48.4327 56.3911C48.4765 56.3801 48.5348 56.3911 48.5476 56.3774H48.3899C48.481 56.3719 48.5622 56.3628 48.709 56.3564C48.6972 56.3564 48.6543 56.3665 48.6242 56.371C48.6671 56.371 48.7063 56.3619 48.751 56.3628C48.6568 56.3804 48.5613 56.3893 48.4655 56.3893C48.5121 56.3956 48.6479 56.3774 48.5987 56.3893C48.6662 56.3637 48.7683 56.382 48.8823 56.3528L48.8759 56.3628C48.8941 56.3583 48.9315 56.3491 48.9671 56.3446L48.9078 56.3646C48.999 56.3391 49.0902 56.351 49.1813 56.3227C48.999 56.361 49.1376 56.3227 49.0582 56.3291C49.1178 56.3126 49.1789 56.3026 49.2406 56.299C49.3111 56.2977 49.3808 56.2841 49.4467 56.2589C49.4129 56.2707 49.3172 56.2917 49.3692 56.2716C49.4211 56.2516 49.4822 56.2434 49.5132 56.2397C49.6792 56.1868 49.4841 56.2397 49.5534 56.2105C49.6145 56.206 49.6318 56.1777 49.7011 56.1467L49.7056 56.1558C49.888 56.0865 49.7485 56.123 49.9108 56.0501L49.8497 56.0966L49.9309 56.051L49.919 56.0701C50.0056 56.0154 50.0366 56.0072 50.1214 55.9534C50.0977 55.9598 50.1214 55.9306 50.1953 55.8832C50.2482 55.8531 50.1761 55.9133 50.2737 55.8358C50.2517 55.8684 50.2197 55.893 50.1825 55.906C50.1825 55.9115 50.1625 55.9261 50.1597 55.9315C50.1916 55.9145 50.2221 55.895 50.2509 55.8732L50.3248 55.8093C50.3122 55.8197 50.2991 55.8295 50.2856 55.8385C50.3293 55.7957 50.3768 55.7546 50.416 55.7109C50.4378 55.6926 50.426 55.7109 50.4105 55.7291C50.4369 55.7036 50.4497 55.6799 50.4862 55.6379C50.4862 55.6534 50.4916 55.6571 50.4415 55.7172L50.5536 55.5814C50.5664 55.5814 50.6166 55.5166 50.6056 55.5367C50.6387 55.4892 50.6692 55.4399 50.6968 55.389C50.726 55.3324 50.7533 55.2695 50.7789 55.2066C50.7821 55.1908 50.7863 55.1753 50.7916 55.1601C50.8385 55.0441 50.8638 54.9205 50.8664 54.7954L50.8856 54.7142C50.8856 54.6012 50.8682 54.8236 50.8582 54.6367C50.8473 54.5054 50.8691 54.5866 50.8701 54.5401C50.8573 54.4744 50.8236 54.365 50.8035 54.2446C50.8226 54.2948 50.8281 54.3221 50.8381 54.3586ZM50.0503 53.2644C50.0807 53.2776 50.1092 53.2948 50.1351 53.3155C50.1032 53.3073 50.074 53.291 50.0503 53.2681V53.2644ZM48.0443 53.1158C48.0704 53.1058 48.0976 53.0993 48.1254 53.0966C48.0993 53.1062 48.0725 53.1138 48.0452 53.1194L48.0443 53.1158ZM48.6333 56.4832C48.5731 56.4832 48.5941 56.4832 48.6333 56.4832V56.4832ZM48.7528 56.4777C48.7646 56.4777 48.7637 56.4777 48.7592 56.4777C48.7375 56.4814 48.7155 56.4836 48.6935 56.4841C48.7136 56.4843 48.7335 56.4815 48.7528 56.4759V56.4777ZM48.2485 56.3136H48.2722C48.2194 56.3145 48.2339 56.3136 48.2476 56.3118L48.2485 56.3136Z" fill="#841738"/>
<path d="M48.2678 53.0501C48.2715 53.0489 48.2755 53.0489 48.2791 53.0501C48.2887 53.0501 48.2887 53.0484 48.2678 53.0501Z" fill="#841738"/>
<path d="M46.9716 56.1254C46.9591 56.1143 46.948 56.1019 46.9382 56.0884C46.9382 56.0884 46.9419 56.0986 46.9716 56.1254Z" fill="#841738"/>
<path d="M49.3728 56.3646C49.349 56.3719 49.3244 56.3774 49.2998 56.3829C49.3354 56.3747 49.349 56.3747 49.3673 56.371C49.3645 56.3692 49.35 56.371 49.3728 56.3646Z" fill="#841738"/>
<path d="M50.0063 56.1695L50.0364 56.1513C49.9908 56.1741 49.9634 56.1933 50.0063 56.1695Z" fill="#841738"/>
<path d="M49.4475 56.3683C49.4832 56.3642 49.5182 56.3553 49.5515 56.3418H49.5423C49.5551 56.3327 49.5013 56.351 49.4475 56.3683Z" fill="#841738"/>
<path d="M49.5632 56.3373L49.6097 56.3218C49.6152 56.3164 49.5906 56.3273 49.5632 56.3373Z" fill="#841738"/>
<path d="M48.903 56.4558C48.9285 56.4558 48.9176 56.4467 48.9322 56.4476C48.9467 56.4485 48.7653 56.4759 48.903 56.4558Z" fill="#841738"/>
<path d="M49.4941 56.3747L49.4741 56.3729L49.4458 56.3865L49.4941 56.3747Z" fill="#841738"/>
<path d="M49.0785 56.4622L49.1642 56.4504C49.1642 56.4504 49.1733 56.4504 49.1861 56.444C49.1341 56.4522 49.0757 56.4604 49.0785 56.4622Z" fill="#841738"/>
<path d="M49.1858 56.444C49.2131 56.4385 49.2387 56.4321 49.2533 56.4276L49.1858 56.444Z" fill="#841738"/>
<path d="M49.381 56.4084L49.3564 56.413L49.2971 56.4258L49.381 56.4084Z" fill="#841738"/>
<path d="M48.1564 56.5197C48.1245 56.5197 48.0935 56.5197 48.0652 56.5133C48.0552 56.5133 48.0807 56.5206 48.1153 56.5224C48.15 56.5242 48.171 56.5224 48.1564 56.5197Z" fill="#841738"/>
<path d="M48.4416 56.5444C48.4275 56.5442 48.4135 56.5424 48.3999 56.5388V56.5499L48.4416 56.5444Z" fill="#841738"/>
<path d="M48.1656 56.5461C48.1565 56.5516 48.028 56.5461 48.1483 56.5534C48.1565 56.5507 48.2532 56.5507 48.1656 56.5461Z" fill="#841738"/>
<path d="M46.8853 55.9999L46.9019 56.0175L46.914 56.0008L46.8853 55.9999Z" fill="#841738"/>
<path d="M46.3856 54.8638C46.381 54.9796 46.3966 54.8911 46.3947 54.9951C46.3947 55.0088 46.3947 54.9869 46.3947 54.9659C46.3947 54.9449 46.3947 54.924 46.3993 54.9376C46.3975 54.8692 46.4002 54.8319 46.3856 54.8638Z" fill="#841738"/>
<path d="M47.6931 53.4048L47.7588 53.3757L47.7159 53.3939L47.6931 53.4048Z" fill="#841738"/>
<path d="M47.8188 53.3493L47.8344 53.3429L47.8736 53.3256L47.8188 53.3493Z" fill="#841738"/>
<path d="M49.8836 53.1413H49.8772C49.8948 53.1532 49.9131 53.1642 49.9319 53.1741C49.9165 53.1622 49.9004 53.1512 49.8836 53.1413Z" fill="#841738"/>
<path d="M50.6277 53.8127L50.6184 53.7979L50.624 53.8331L50.6277 53.8127Z" fill="#841738"/>
<path d="M50.9013 54.613C50.9013 54.5775 50.8921 54.5373 50.8894 54.5018C50.9013 54.5775 50.8858 54.623 50.9013 54.613Z" fill="#841738"/>
<path d="M32.255 36.2122H30V39.6835H32.255V36.2122Z" fill="#DC2678"/>
<path opacity="0.1" d="M32.255 36.2122H30V39.6835H32.255V36.2122Z" fill="#48081A"/>
<path d="M30.196 39.6835H30.1504V68.3899H30.196V39.6835Z" fill="#FEE5E7"/>
<path d="M30.4684 39.6835H30.4229V68.3899H30.4684V39.6835Z" fill="#FEE5E7"/>
<path d="M30.7414 39.6835H30.6958V68.3899H30.7414V39.6835Z" fill="#FEE5E7"/>
<path d="M31.0139 39.6835H30.9683V68.3899H31.0139V39.6835Z" fill="#FEE5E7"/>
<path d="M31.2875 39.6835H31.2419V68.3899H31.2875V39.6835Z" fill="#FEE5E7"/>
<path d="M31.5602 39.6835H31.5146V68.3899H31.5602V39.6835Z" fill="#FEE5E7"/>
<path d="M31.8329 39.6835H31.7874V68.3899H31.8329V39.6835Z" fill="#FEE5E7"/>
<path d="M32.1064 39.6835H32.0608V68.3899H32.1064V39.6835Z" fill="#FEE5E7"/>
<path opacity="0.1" d="M36.3564 37.6939C36.3564 37.8114 36.3216 37.9261 36.2564 38.0237C36.1911 38.1214 36.0984 38.1974 35.99 38.2424C35.8815 38.2873 35.7621 38.299 35.647 38.2761C35.5318 38.2532 35.4261 38.1967 35.3431 38.1137C35.26 38.0307 35.2035 37.9249 35.1806 37.8098C35.1577 37.6946 35.1694 37.5753 35.2144 37.4668C35.2593 37.3583 35.3354 37.2656 35.433 37.2004C35.5306 37.1352 35.6454 37.1003 35.7628 37.1003C35.8408 37.1002 35.918 37.1155 35.9901 37.1453C36.0622 37.1751 36.1277 37.2188 36.1828 37.2739C36.2379 37.3291 36.2817 37.3946 36.3115 37.4666C36.3412 37.5387 36.3565 37.616 36.3564 37.6939Z" fill="#48081A"/>
<path d="M36.1204 37.6939C36.1204 37.765 36.0993 37.8344 36.0598 37.8935C36.0204 37.9526 35.9642 37.9986 35.8986 38.0258C35.833 38.053 35.7607 38.0601 35.691 38.0463C35.6213 38.0324 35.5573 37.9982 35.5071 37.948C35.4568 37.8977 35.4226 37.8337 35.4088 37.764C35.3949 37.6943 35.402 37.6221 35.4292 37.5564C35.4564 37.4908 35.5024 37.4347 35.5615 37.3952C35.6206 37.3557 35.6901 37.3347 35.7611 37.3347C35.8083 37.3345 35.8551 37.3437 35.8987 37.3618C35.9424 37.3798 35.982 37.4062 36.0154 37.4396C36.0488 37.473 36.0753 37.5127 36.0933 37.5563C36.1113 37.5999 36.1205 37.6467 36.1204 37.6939Z" fill="#841738"/>
<path opacity="0.1" d="M38.8605 38.2876C39.1883 38.2876 39.4541 38.0218 39.4541 37.6939C39.4541 37.3661 39.1883 37.1003 38.8605 37.1003C38.5326 37.1003 38.2668 37.3661 38.2668 37.6939C38.2668 38.0218 38.5326 38.2876 38.8605 38.2876Z" fill="#48081A"/>
<path d="M39.2205 37.6939C39.2205 37.765 39.1994 37.8344 39.1599 37.8935C39.1205 37.9526 39.0643 37.9986 38.9987 38.0258C38.9331 38.053 38.8608 38.0601 38.7911 38.0463C38.7214 38.0324 38.6574 37.9982 38.6072 37.948C38.5569 37.8977 38.5227 37.8337 38.5089 37.764C38.495 37.6943 38.5021 37.6221 38.5293 37.5564C38.5565 37.4908 38.6025 37.4347 38.6616 37.3952C38.7207 37.3557 38.7902 37.3347 38.8612 37.3347C38.9084 37.3345 38.9552 37.3437 38.9988 37.3618C39.0425 37.3798 39.0821 37.4062 39.1155 37.4396C39.1489 37.473 39.1754 37.5127 39.1934 37.5563C39.2114 37.5999 39.2206 37.6467 39.2205 37.6939Z" fill="#841738"/>
<path opacity="0.1" d="M42.5515 37.6939C42.5515 37.8114 42.5167 37.9261 42.4514 38.0237C42.3862 38.1214 42.2935 38.1974 42.185 38.2424C42.0766 38.2873 41.9572 38.299 41.8421 38.2761C41.7269 38.2532 41.6211 38.1967 41.5381 38.1137C41.4551 38.0307 41.3986 37.9249 41.3757 37.8098C41.3528 37.6946 41.3645 37.5753 41.4094 37.4668C41.4544 37.3583 41.5305 37.2656 41.6281 37.2004C41.7257 37.1352 41.8405 37.1003 41.9579 37.1003C42.1153 37.1003 42.2663 37.1629 42.3776 37.2742C42.4889 37.3855 42.5515 37.5365 42.5515 37.6939Z" fill="#48081A"/>
<path d="M42.3208 37.694C42.3208 37.7648 42.2999 37.834 42.2606 37.893C42.2214 37.9519 42.1656 37.998 42.1003 38.0253C42.0349 38.0527 41.963 38.0601 41.8935 38.0467C41.8239 38.0332 41.7599 37.9996 41.7094 37.9499C41.659 37.9002 41.6244 37.8367 41.6099 37.7673C41.5954 37.698 41.6017 37.626 41.6281 37.5602C41.6545 37.4945 41.6996 37.438 41.758 37.3979C41.8164 37.3578 41.8853 37.3358 41.9561 37.3347C42.0037 37.334 42.051 37.3427 42.0953 37.3605C42.1395 37.3782 42.1797 37.4045 42.2137 37.438C42.2476 37.4714 42.2746 37.5113 42.293 37.5552C42.3114 37.5991 42.3208 37.6463 42.3208 37.694Z" fill="#841738"/>
<path opacity="0.1" d="M45.6569 37.6939C45.6569 37.8114 45.6221 37.9261 45.5569 38.0237C45.4917 38.1214 45.399 38.1974 45.2905 38.2424C45.182 38.2873 45.0627 38.299 44.9475 38.2761C44.8324 38.2532 44.7266 38.1967 44.6436 38.1137C44.5606 38.0307 44.504 37.9249 44.4811 37.8098C44.4582 37.6946 44.47 37.5753 44.5149 37.4668C44.5598 37.3583 44.6359 37.2656 44.7335 37.2004C44.8312 37.1352 44.9459 37.1003 45.0633 37.1003C45.1413 37.1002 45.2186 37.1155 45.2906 37.1453C45.3627 37.1751 45.4282 37.2188 45.4833 37.2739C45.5385 37.3291 45.5822 37.3946 45.612 37.4666C45.6418 37.5387 45.6571 37.616 45.6569 37.6939Z" fill="#48081A"/>
<path d="M45.4209 37.6939C45.4209 37.765 45.3998 37.8344 45.3604 37.8935C45.3209 37.9526 45.2648 37.9986 45.1991 38.0258C45.1335 38.053 45.0613 38.0601 44.9916 38.0463C44.9219 38.0324 44.8579 37.9982 44.8076 37.948C44.7574 37.8977 44.7232 37.8337 44.7093 37.764C44.6954 37.6943 44.7025 37.6221 44.7297 37.5564C44.7569 37.4908 44.803 37.4347 44.8621 37.3952C44.9211 37.3557 44.9906 37.3347 45.0617 37.3347C45.1089 37.3345 45.1556 37.3437 45.1993 37.3618C45.2429 37.3798 45.2826 37.4062 45.316 37.4396C45.3493 37.473 45.3758 37.5127 45.3938 37.5563C45.4118 37.5999 45.421 37.6467 45.4209 37.6939Z" fill="#841738"/>
<path opacity="0.1" d="M48.172 38.2876C48.4998 38.2876 48.7656 38.0218 48.7656 37.6939C48.7656 37.3661 48.4998 37.1003 48.172 37.1003C47.8441 37.1003 47.5784 37.3661 47.5784 37.6939C47.5784 38.0218 47.8441 38.2876 48.172 38.2876Z" fill="#48081A"/>
<path d="M48.5313 37.6939C48.5313 37.765 48.5102 37.8344 48.4707 37.8935C48.4312 37.9526 48.3751 37.9986 48.3095 38.0258C48.2438 38.053 48.1716 38.0601 48.1019 38.0463C48.0322 38.0324 47.9682 37.9982 47.918 37.948C47.8677 37.8977 47.8335 37.8337 47.8196 37.764C47.8058 37.6943 47.8129 37.6221 47.8401 37.5564C47.8673 37.4908 47.9133 37.4347 47.9724 37.3952C48.0315 37.3557 48.101 37.3347 48.172 37.3347C48.2673 37.3347 48.3587 37.3725 48.426 37.4399C48.4934 37.5073 48.5313 37.5986 48.5313 37.6939Z" fill="#841738"/>
<path opacity="0.1" d="M51.2621 38.2876C51.5899 38.2876 51.8557 38.0218 51.8557 37.6939C51.8557 37.3661 51.5899 37.1003 51.2621 37.1003C50.9342 37.1003 50.6685 37.3661 50.6685 37.6939C50.6685 38.0218 50.9342 38.2876 51.2621 38.2876Z" fill="#48081A"/>
<path d="M51.6214 37.6939C51.6214 37.765 51.6003 37.8344 51.5608 37.8935C51.5213 37.9526 51.4652 37.9986 51.3996 38.0258C51.3339 38.053 51.2617 38.0601 51.192 38.0463C51.1223 38.0324 51.0583 37.9982 51.0081 37.948C50.9578 37.8977 50.9236 37.8337 50.9097 37.764C50.8959 37.6943 50.903 37.6221 50.9302 37.5564C50.9574 37.4908 51.0034 37.4347 51.0625 37.3952C51.1216 37.3557 51.191 37.3347 51.2621 37.3347C51.3093 37.3345 51.3561 37.3437 51.3997 37.3618C51.4434 37.3798 51.483 37.4062 51.5164 37.4396C51.5498 37.473 51.5762 37.5127 51.5943 37.5563C51.6123 37.5999 51.6215 37.6467 51.6214 37.6939Z" fill="#841738"/>
<path opacity="0.1" d="M54.3622 38.2876C54.69 38.2876 54.9558 38.0218 54.9558 37.6939C54.9558 37.3661 54.69 37.1003 54.3622 37.1003C54.0343 37.1003 53.7686 37.3661 53.7686 37.6939C53.7686 38.0218 54.0343 38.2876 54.3622 38.2876Z" fill="#48081A"/>
<path d="M54.7217 37.6939C54.7217 37.765 54.7006 37.8344 54.6612 37.8935C54.6217 37.9526 54.5656 37.9986 54.4999 38.0258C54.4343 38.053 54.362 38.0601 54.2923 38.0463C54.2227 38.0324 54.1586 37.9982 54.1084 37.948C54.0582 37.8977 54.0239 37.8337 54.0101 37.764C53.9962 37.6943 54.0033 37.6221 54.0305 37.5564C54.0577 37.4908 54.1038 37.4347 54.1628 37.3952C54.2219 37.3557 54.2914 37.3347 54.3624 37.3347C54.4577 37.3347 54.5491 37.3725 54.6165 37.4399C54.6838 37.5073 54.7217 37.5986 54.7217 37.6939Z" fill="#841738"/>
<path opacity="0.1" d="M57.4728 38.2876C57.8006 38.2876 58.0664 38.0218 58.0664 37.6939C58.0664 37.3661 57.8006 37.1003 57.4728 37.1003C57.1449 37.1003 56.8792 37.3661 56.8792 37.6939C56.8792 38.0218 57.1449 38.2876 57.4728 38.2876Z" fill="#48081A"/>
<path d="M57.8318 37.6939C57.8318 37.765 57.8107 37.8344 57.7713 37.8935C57.7318 37.9526 57.6757 37.9986 57.61 38.0258C57.5444 38.053 57.4721 38.0601 57.4025 38.0463C57.3328 38.0324 57.2688 37.9982 57.2185 37.948C57.1683 37.8977 57.134 37.8337 57.1202 37.764C57.1063 37.6943 57.1134 37.6221 57.1406 37.5564C57.1678 37.4908 57.2139 37.4347 57.2729 37.3952C57.332 37.3557 57.4015 37.3347 57.4725 37.3347C57.5678 37.3347 57.6592 37.3725 57.7266 37.4399C57.794 37.5073 57.8318 37.5986 57.8318 37.6939Z" fill="#841738"/>
<path opacity="0.1" d="M61.1584 37.6939C61.1584 37.8114 61.1236 37.9261 61.0584 38.0237C60.9931 38.1214 60.9004 38.1974 60.792 38.2424C60.6835 38.2873 60.5641 38.299 60.449 38.2761C60.3338 38.2532 60.2281 38.1967 60.1451 38.1137C60.062 38.0307 60.0055 37.9249 59.9826 37.8098C59.9597 37.6946 59.9714 37.5753 60.0164 37.4668C60.0613 37.3583 60.1374 37.2656 60.235 37.2004C60.3326 37.1352 60.4474 37.1003 60.5648 37.1003C60.7222 37.1003 60.8732 37.1629 60.9845 37.2742C61.0959 37.3855 61.1584 37.5365 61.1584 37.6939Z" fill="#48081A"/>
<path d="M60.9221 37.6939C60.9221 37.765 60.9011 37.8344 60.8616 37.8935C60.8221 37.9526 60.766 37.9986 60.7004 38.0258C60.6347 38.053 60.5625 38.0601 60.4928 38.0463C60.4231 38.0324 60.3591 37.9982 60.3088 37.948C60.2586 37.8977 60.2244 37.8337 60.2105 37.764C60.1967 37.6943 60.2038 37.6221 60.231 37.5564C60.2582 37.4908 60.3042 37.4347 60.3633 37.3952C60.4224 37.3557 60.4918 37.3347 60.5629 37.3347C60.6582 37.3347 60.7495 37.3725 60.8169 37.4399C60.8843 37.5073 60.9221 37.5986 60.9221 37.6939Z" fill="#841738"/>
<path opacity="0.1" d="M64.2631 37.6939C64.2631 37.8114 64.2283 37.9261 64.1631 38.0237C64.0979 38.1214 64.0052 38.1974 63.8967 38.2424C63.7882 38.2873 63.6689 38.299 63.5537 38.2761C63.4386 38.2532 63.3328 38.1967 63.2498 38.1137C63.1668 38.0307 63.1102 37.9249 63.0873 37.8098C63.0644 37.6946 63.0762 37.5753 63.1211 37.4668C63.166 37.3583 63.2421 37.2656 63.3397 37.2004C63.4374 37.1352 63.5521 37.1003 63.6695 37.1003C63.7475 37.1002 63.8248 37.1155 63.8968 37.1453C63.9689 37.1751 64.0344 37.2188 64.0895 37.2739C64.1447 37.3291 64.1884 37.3946 64.2182 37.4666C64.248 37.5387 64.2633 37.616 64.2631 37.6939Z" fill="#48081A"/>
<path d="M64.0288 37.6939C64.0288 37.765 64.0078 37.8344 63.9683 37.8935C63.9288 37.9526 63.8727 37.9986 63.807 38.0258C63.7414 38.053 63.6692 38.0601 63.5995 38.0463C63.5298 38.0324 63.4658 37.9982 63.4155 37.948C63.3653 37.8977 63.3311 37.8337 63.3172 37.764C63.3033 37.6943 63.3105 37.6221 63.3377 37.5564C63.3648 37.4908 63.4109 37.4347 63.47 37.3952C63.529 37.3557 63.5985 37.3347 63.6696 37.3347C63.7168 37.3345 63.7635 37.3437 63.8072 37.3618C63.8508 37.3798 63.8905 37.4062 63.9239 37.4396C63.9573 37.473 63.9837 37.5127 64.0017 37.5563C64.0197 37.5999 64.0289 37.6467 64.0288 37.6939Z" fill="#841738"/>
<path opacity="0.1" d="M67.3552 37.6939C67.3552 37.8114 67.3204 37.9261 67.2551 38.0237C67.1899 38.1214 67.0972 38.1974 66.9887 38.2424C66.8803 38.2873 66.7609 38.299 66.6458 38.2761C66.5306 38.2532 66.4248 38.1967 66.3418 38.1137C66.2588 38.0307 66.2023 37.9249 66.1794 37.8098C66.1565 37.6946 66.1682 37.5753 66.2132 37.4668C66.2581 37.3583 66.3342 37.2656 66.4318 37.2004C66.5294 37.1352 66.6442 37.1003 66.7616 37.1003C66.8396 37.1002 66.9168 37.1155 66.9889 37.1453C67.061 37.1751 67.1264 37.2188 67.1816 37.2739C67.2367 37.3291 67.2804 37.3946 67.3102 37.4666C67.34 37.5387 67.3553 37.616 67.3552 37.6939Z" fill="#48081A"/>
<path d="M67.1228 37.6939C67.1228 37.7647 67.1019 37.834 67.0626 37.8929C67.0234 37.9519 66.9676 37.9979 66.9023 38.0253C66.8369 38.0526 66.765 38.06 66.6955 38.0466C66.6259 38.0332 66.5619 37.9995 66.5114 37.9498C66.461 37.9001 66.4264 37.8366 66.4119 37.7673C66.3974 37.698 66.4037 37.6259 66.4301 37.5602C66.4565 37.4944 66.5016 37.438 66.56 37.3978C66.6184 37.3577 66.6873 37.3357 66.7581 37.3347C66.8058 37.3338 66.8531 37.3425 66.8974 37.3602C66.9417 37.3778 66.982 37.4042 67.0159 37.4376C67.0499 37.4711 67.0769 37.511 67.0952 37.555C67.1136 37.599 67.123 37.6462 67.1228 37.6939Z" fill="#841738"/>
<path opacity="0.1" d="M70.4599 37.6939C70.4599 37.8114 70.4251 37.9261 70.3599 38.0237C70.2946 38.1214 70.2019 38.1974 70.0935 38.2424C69.985 38.2873 69.8656 38.299 69.7505 38.2761C69.6354 38.2532 69.5296 38.1967 69.4466 38.1137C69.3636 38.0307 69.307 37.9249 69.2841 37.8098C69.2612 37.6946 69.273 37.5753 69.3179 37.4668C69.3628 37.3583 69.4389 37.2656 69.5365 37.2004C69.6341 37.1352 69.7489 37.1003 69.8663 37.1003C69.9443 37.1002 70.0215 37.1155 70.0936 37.1453C70.1657 37.1751 70.2312 37.2188 70.2863 37.2739C70.3415 37.3291 70.3852 37.3946 70.415 37.4666C70.4448 37.5387 70.46 37.616 70.4599 37.6939Z" fill="#48081A"/>
<path d="M70.2229 37.6939C70.2229 37.765 70.2019 37.8344 70.1624 37.8935C70.1229 37.9526 70.0668 37.9986 70.0011 38.0258C69.9355 38.053 69.8633 38.0601 69.7936 38.0463C69.7239 38.0324 69.6599 37.9982 69.6096 37.948C69.5594 37.8977 69.5252 37.8337 69.5113 37.764C69.4974 37.6943 69.5046 37.6221 69.5317 37.5564C69.5589 37.4908 69.605 37.4347 69.6641 37.3952C69.7231 37.3557 69.7926 37.3347 69.8637 37.3347C69.9109 37.3345 69.9576 37.3437 70.0013 37.3618C70.0449 37.3798 70.0846 37.4062 70.118 37.4396C70.1513 37.473 70.1778 37.5127 70.1958 37.5563C70.2138 37.5999 70.223 37.6467 70.2229 37.6939Z" fill="#841738"/>
<path opacity="0.1" d="M72.9647 38.2876C73.2925 38.2876 73.5583 38.0218 73.5583 37.6939C73.5583 37.3661 73.2925 37.1003 72.9647 37.1003C72.6369 37.1003 72.3711 37.3661 72.3711 37.6939C72.3711 38.0218 72.6369 38.2876 72.9647 38.2876Z" fill="#48081A"/>
<path d="M73.3233 37.6939C73.3233 37.765 73.3022 37.8344 73.2627 37.8935C73.2232 37.9526 73.1671 37.9986 73.1015 38.0258C73.0358 38.053 72.9636 38.0601 72.8939 38.0463C72.8242 38.0324 72.7602 37.9982 72.71 37.948C72.6597 37.8977 72.6255 37.8337 72.6116 37.764C72.5978 37.6943 72.6049 37.6221 72.6321 37.5564C72.6593 37.4908 72.7053 37.4347 72.7644 37.3952C72.8235 37.3557 72.8929 37.3347 72.964 37.3347C73.0112 37.3345 73.058 37.3437 73.1016 37.3618C73.1453 37.3798 73.1849 37.4062 73.2183 37.4396C73.2517 37.473 73.2781 37.5127 73.2962 37.5563C73.3142 37.5999 73.3234 37.6467 73.3233 37.6939Z" fill="#841738"/>
<path d="M36.0544 36.4392C36.0544 36.7356 36.0216 37.7003 36.0216 37.7003C36.0216 38.0359 35.5028 38.035 35.5028 37.7003V36.2286C35.5028 35.4864 35.1791 35.2192 34.8581 35.2192C34.4569 35.2192 34.2198 35.7025 34.2198 36.2113H33.6982C33.6982 35.056 34.2508 34.6101 34.8189 34.6101C35.6824 34.6101 36.0544 35.1864 36.0544 36.4392Z" fill="#9A183A"/>
<path d="M39.1546 36.4392C39.1546 36.7356 39.1218 37.7003 39.1218 37.7003C39.1218 38.0359 38.6038 38.035 38.6038 37.7003C38.6038 37.3657 38.6038 36.773 38.6038 36.2286C38.6038 35.4864 38.281 35.2192 37.9592 35.2192C37.558 35.2192 37.3209 35.7025 37.3209 36.2113H36.7993C36.7993 35.056 37.3519 34.6101 37.92 34.6101C38.7826 34.6101 39.1546 35.1864 39.1546 36.4392Z" fill="#9A183A"/>
<path d="M42.256 36.4392C42.256 36.7356 42.2232 37.7003 42.2232 37.7003C42.2232 38.0359 41.7044 38.035 41.7044 37.7003V36.2286C41.7044 35.4864 41.3807 35.2192 41.0588 35.2192C40.6576 35.2192 40.4205 35.7025 40.4205 36.2113H39.8989C39.8989 35.056 40.4515 34.6101 41.0196 34.6101C41.8831 34.6101 42.256 35.1864 42.256 36.4392Z" fill="#9A183A"/>
<path d="M45.3562 36.4392C45.3562 36.7356 45.3234 37.7003 45.3234 37.7003C45.3234 38.0359 44.8045 38.035 44.8045 37.7003V36.2286C44.8045 35.4864 44.4808 35.2192 44.1599 35.2192C43.7586 35.2192 43.5216 35.7025 43.5216 36.2113H43C43 35.056 43.5526 34.6101 44.1206 34.6101C44.9841 34.6101 45.3562 35.1864 45.3562 36.4392Z" fill="#9A183A"/>
<path d="M48.4563 36.4392C48.4563 36.7356 48.4235 37.7003 48.4235 37.7003C48.4235 38.0359 47.9046 38.035 47.9046 37.7003V36.2286C47.9046 35.4864 47.5818 35.2192 47.26 35.2192C46.8587 35.2192 46.6217 35.7025 46.6217 36.2113H46.1001C46.1001 35.056 46.6527 34.6101 47.2207 34.6101C48.0842 34.6101 48.4563 35.1864 48.4563 36.4392Z" fill="#9A183A"/>
<path d="M51.5575 36.4392C51.5575 36.7356 51.5238 37.7003 51.5238 37.7003C51.5238 38.0359 51.0059 38.035 51.0059 37.7003V36.2286C51.0059 35.4864 50.6822 35.2192 50.3603 35.2192C49.9591 35.2192 49.722 35.7025 49.722 36.2113H49.2004C49.2004 35.056 49.7521 34.6101 50.3211 34.6101C51.1846 34.6101 51.5575 35.1864 51.5575 36.4392Z" fill="#9A183A"/>
<path d="M54.6579 36.4392C54.6579 36.7356 54.625 37.7003 54.625 37.7003C54.625 38.0359 54.1062 38.035 54.1062 37.7003V36.2286C54.1062 35.4864 53.7825 35.2192 53.4606 35.2192C53.0594 35.2192 52.8224 35.7025 52.8224 36.2113H52.3008C52.3008 35.056 52.8534 34.6101 53.4214 34.6101C54.2858 34.6101 54.6579 35.1864 54.6579 36.4392Z" fill="#9A183A"/>
<path d="M57.758 36.4392C57.758 36.7356 57.7252 37.7003 57.7252 37.7003C57.7252 38.0359 57.2064 38.035 57.2064 37.7003V36.2286C57.2064 35.4864 56.8836 35.2192 56.5617 35.2192C56.1605 35.2192 55.9234 35.7025 55.9234 36.2113H55.4019C55.4019 35.056 55.9544 34.6101 56.5225 34.6101C57.386 34.6101 57.758 35.1864 57.758 36.4392Z" fill="#9A183A"/>
<path d="M60.859 36.4392C60.859 36.7356 60.8253 37.7003 60.8253 37.7003C60.8253 38.0359 60.3074 38.035 60.3074 37.7003C60.3074 37.3657 60.3074 36.773 60.3074 36.2286C60.3074 35.4864 59.9846 35.2192 59.6627 35.2192C59.2615 35.2192 59.0244 35.7025 59.0244 36.2113H58.502C58.502 35.056 59.0545 34.6101 59.6235 34.6101C60.4861 34.6101 60.859 35.1864 60.859 36.4392Z" fill="#9A183A"/>
<path d="M63.9594 36.4392C63.9594 36.7356 63.9266 37.7003 63.9266 37.7003C63.9266 38.0359 63.4077 38.035 63.4077 37.7003V36.2286C63.4077 35.4864 63.084 35.2192 62.7621 35.2192C62.3609 35.2192 62.1239 35.7025 62.1239 36.2113H61.6023C61.6023 35.056 62.1549 34.6101 62.7229 34.6101C63.5874 34.6101 63.9594 35.1864 63.9594 36.4392Z" fill="#9A183A"/>
<path d="M67.0598 36.4392C67.0598 36.7356 67.027 37.7003 67.027 37.7003C67.027 38.0359 66.5081 38.035 66.5081 37.7003V36.2286C66.5081 35.4864 66.1853 35.2192 65.8635 35.2192C65.4623 35.2192 65.2252 35.7025 65.2252 36.2113H64.7036C64.7036 35.056 65.2562 34.6101 65.8243 34.6101C66.6878 34.6101 67.0598 35.1864 67.0598 36.4392Z" fill="#9A183A"/>
<path d="M70.1608 36.4392C70.1608 36.7356 70.1271 37.7003 70.1271 37.7003C70.1271 38.0359 69.6091 38.035 69.6091 37.7003C69.6091 37.3657 69.6091 36.773 69.6091 36.2286C69.6091 35.4864 69.2864 35.2192 68.9645 35.2192C68.5633 35.2192 68.3262 35.7025 68.3262 36.2113H67.8037C67.8037 35.056 68.3563 34.6101 68.9244 34.6101C69.7879 34.6101 70.1608 35.1864 70.1608 36.4392Z" fill="#9A183A"/>
<path d="M73.2609 36.4392C73.2609 36.7356 73.2281 37.7003 73.2281 37.7003C73.2281 38.0359 72.7092 38.035 72.7092 37.7003V36.2286C72.7092 35.4864 72.3855 35.2192 72.0637 35.2192C71.6625 35.2192 71.4254 35.7025 71.4254 36.2113H70.9038C70.9038 35.056 71.4564 34.6101 72.0245 34.6101C72.8889 34.6101 73.2609 35.1864 73.2609 36.4392Z" fill="#9A183A"/>
</g>
<defs>
<filter id="filter0_d_879_11052" x="0" y="0" width="105" height="105" filterUnits="userSpaceOnUse" color-interpolation-filters="sRGB">
<feFlood flood-opacity="0" result="BackgroundImageFix"/>
<feColorMatrix in="SourceAlpha" type="matrix" values="0 0 0 0 0 0 0 0 0 0 0 0 0 0 0 0 0 0 127 0" result="hardAlpha"/>
<feOffset dy="1"/>
<feGaussianBlur stdDeviation="10"/>
<feComposite in2="hardAlpha" operator="out"/>
<feColorMatrix type="matrix" values="0 0 0 0 0.141176 0 0 0 0 0.145098 0 0 0 0 0.156863 0 0 0 0.25 0"/>
<feBlend mode="normal" in2="BackgroundImageFix" result="effect1_dropShadow_879_11052"/>
<feBlend mode="normal" in="SourceGraphic" in2="effect1_dropShadow_879_11052" result="shape"/>
</filter>
<linearGradient id="paint0_linear_879_11052" x1="52.5" y1="19" x2="52.5" y2="84" gradientUnits="userSpaceOnUse">
<stop stop-color="#DC2678"/>
<stop offset="1" stop-color="#FAA7D4"/>
</linearGradient>
</defs>
</svg>
