<svg width="105" height="105" viewBox="0 0 105 105" fill="none" xmlns="http://www.w3.org/2000/svg">
<g filter="url(#filter0_d_879_10088)">
<rect x="20" y="19" width="65" height="65" rx="8" fill="url(#paint0_linear_879_10088)" shape-rendering="crispEdges"/>
<path d="M62.3917 77H40.6357C39.5721 77 38.7058 76.138 38.7058 75.0701V27.9299C38.7058 26.8663 39.5678 26 40.6357 26H62.3917C63.4553 26 64.3216 26.862 64.3216 27.9299V75.0701C64.3216 76.1337 63.4596 77 62.3917 77Z" fill="#48081A"/>
<path d="M64.3644 77H42.6083C41.5448 77 40.6785 76.138 40.6785 75.0701V27.9299C40.6785 26.8663 41.5405 26 42.6083 26H64.3644C65.428 26 66.2943 26.862 66.2943 27.9299V75.0701C66.2943 76.1337 65.428 77 64.3644 77Z" fill="#DB284E"/>
<path d="M55.5214 27.8484H51.4558C51.3014 27.8484 51.177 27.724 51.177 27.5696C51.177 27.4152 51.3014 27.2909 51.4558 27.2909H55.5214C55.6757 27.2909 55.8001 27.4152 55.8001 27.5696C55.7958 27.724 55.6715 27.8484 55.5214 27.8484Z" fill="#48081A"/>
<path d="M50.7695 27.5696C50.7695 27.784 50.5937 27.9599 50.3793 27.9599C50.1648 27.9599 49.989 27.784 49.989 27.5696C49.989 27.3552 50.1648 27.1794 50.3793 27.1794C50.5937 27.1794 50.7695 27.3552 50.7695 27.5696Z" fill="#48081A"/>
<path d="M39.6877 46.5681C39.4561 46.5681 39.2717 46.3794 39.2717 46.1521V40.4354C39.2717 40.2038 39.4604 40.0194 39.6877 40.0194C39.9193 40.0194 40.1037 40.2081 40.1037 40.4354V46.1521C40.1037 46.3837 39.915 46.5681 39.6877 46.5681Z" fill="#DB284E"/>
<mask id="mask0_879_10088" style="mask-type:luminance" maskUnits="userSpaceOnUse" x="41" y="26" width="25" height="51">
<path d="M62.5077 26.7848H59.2741C58.8023 26.7848 58.3949 27.1108 58.2834 27.5696L58.2663 27.6383C58.1462 28.1443 57.6959 28.5003 57.177 28.5003H49.7963C49.2774 28.5003 48.8271 28.1443 48.707 27.6383L48.6898 27.5696C48.5826 27.1108 48.1709 26.7848 47.6992 26.7848H44.4656C42.9088 26.7848 41.6479 28.0457 41.6479 29.6024V73.3933C41.6479 74.9501 42.9088 76.2109 44.4656 76.2109H62.5077C64.0644 76.2109 65.3253 74.9501 65.3253 73.3933V29.6067C65.3296 28.05 64.0644 26.7848 62.5077 26.7848Z" fill="white"/>
</mask>
<g mask="url(#mask0_879_10088)">
<path d="M62.5077 26.7848H59.2741C58.8023 26.7848 58.3949 27.1108 58.2834 27.5696L58.2663 27.6383C58.1462 28.1443 57.6959 28.5003 57.177 28.5003H49.7963C49.2774 28.5003 48.8271 28.1443 48.707 27.6383L48.6898 27.5696C48.5826 27.1108 48.1709 26.7848 47.6992 26.7848H44.4656C42.9088 26.7848 41.6479 28.0457 41.6479 29.6024V73.3933C41.6479 74.9501 42.9088 76.2109 44.4656 76.2109H62.5077C64.0644 76.2109 65.3253 74.9501 65.3253 73.3933V29.6067C65.3296 28.05 64.0644 26.7848 62.5077 26.7848Z" fill="#FEF2F2"/>
</g>
<mask id="mask1_879_10088" style="mask-type:luminance" maskUnits="userSpaceOnUse" x="41" y="26" width="25" height="51">
<path d="M62.5077 26.7848H59.2741C58.8023 26.7848 58.3949 27.1108 58.2834 27.5696L58.2663 27.6383C58.1462 28.1443 57.6959 28.5003 57.177 28.5003H49.7963C49.2774 28.5003 48.8271 28.1443 48.707 27.6383L48.6898 27.5696C48.5826 27.1108 48.1709 26.7848 47.6992 26.7848H44.4656C42.9088 26.7848 41.6479 28.0457 41.6479 29.6024V73.3933C41.6479 74.9501 42.9088 76.2109 44.4656 76.2109H62.5077C64.0644 76.2109 65.3253 74.9501 65.3253 73.3933V29.6067C65.3296 28.05 64.0644 26.7848 62.5077 26.7848Z" fill="white"/>
</mask>
<g mask="url(#mask1_879_10088)">
<path d="M43.6207 36.8159C42.5314 36.8159 41.6479 35.9324 41.6479 34.8431V26.5961H45.5935V34.8431C45.5935 35.9324 44.71 36.8159 43.6207 36.8159Z" fill="#9A183A"/>
<path d="M47.566 36.8158C46.4767 36.8158 45.5933 35.9324 45.5933 34.8431V26.5961H49.5388V34.8431C49.5388 35.9324 48.6553 36.8158 47.566 36.8158Z" fill="#F67688"/>
<path d="M51.5113 36.8158C50.422 36.8158 49.5386 35.9324 49.5386 34.8431V26.5961H53.4841V34.8431C53.4884 35.9324 52.6006 36.8158 51.5113 36.8158Z" fill="#9A183A"/>
<path d="M55.4613 36.8158C54.372 36.8158 53.4885 35.9324 53.4885 34.8431V26.5961H57.434V34.8431C57.434 35.9324 56.5506 36.8158 55.4613 36.8158Z" fill="#F67688"/>
<path d="M59.4066 36.8158C58.3173 36.8158 57.4338 35.9324 57.4338 34.8431V26.5961H61.3793V34.8431C61.3793 35.9324 60.4959 36.8158 59.4066 36.8158Z" fill="#9A183A"/>
<path d="M63.3524 36.8158C62.2631 36.8158 61.3796 35.9324 61.3796 34.8431V26.5961H65.3251V34.8431C65.3294 35.9324 64.4417 36.8158 63.3524 36.8158Z" fill="#F67688"/>
</g>
<mask id="mask2_879_10088" style="mask-type:luminance" maskUnits="userSpaceOnUse" x="41" y="26" width="25" height="51">
<path d="M62.5077 26.7848H59.2741C58.8023 26.7848 58.3949 27.1108 58.2834 27.5696L58.2663 27.6383C58.1462 28.1443 57.6959 28.5003 57.177 28.5003H49.7963C49.2774 28.5003 48.8271 28.1443 48.707 27.6383L48.6898 27.5696C48.5826 27.1108 48.1709 26.7848 47.6992 26.7848H44.4656C42.9088 26.7848 41.6479 28.0457 41.6479 29.6024V73.3933C41.6479 74.9501 42.9088 76.2109 44.4656 76.2109H62.5077C64.0644 76.2109 65.3253 74.9501 65.3253 73.3933V29.6067C65.3296 28.05 64.0644 26.7848 62.5077 26.7848Z" fill="white"/>
</mask>
<g mask="url(#mask2_879_10088)">
<path d="M51.3614 48.3179H45.0958C44.6926 48.3179 44.3667 47.9919 44.3667 47.5888V41.3189C44.3667 40.9157 44.6926 40.5898 45.0958 40.5898H51.3657C51.7688 40.5898 52.0948 40.9157 52.0948 41.3189V47.5888C52.0948 47.9919 51.7645 48.3179 51.3614 48.3179Z" fill="#DB284E"/>
<path d="M49.1228 43.2916H47.3345L47.4503 42.8585C47.4846 42.7341 47.5918 42.6483 47.7204 42.6483H48.7411C48.8698 42.6483 48.9813 42.7341 49.0113 42.8585L49.1228 43.2916Z" fill="#48081A"/>
<path d="M50.1693 46.2551H46.2924C46.0995 46.2551 45.9451 46.1007 45.9451 45.9077V43.5318C45.9451 43.3388 46.0995 43.1844 46.2924 43.1844H50.1693C50.3623 43.1844 50.5167 43.3388 50.5167 43.5318V45.9077C50.5167 46.1007 50.3623 46.2551 50.1693 46.2551Z" fill="#FEF2F2"/>
<path d="M49.4056 44.7498C49.4056 45.3973 48.8824 45.9248 48.2305 45.9248C47.5786 45.9248 47.0554 45.4016 47.0554 44.7498C47.0554 44.0979 47.5786 43.5747 48.2305 43.5747C48.8824 43.5747 49.4056 44.1022 49.4056 44.7498Z" stroke="#DB284E" stroke-width="0.948" stroke-miterlimit="10"/>
<path d="M48.8053 44.7498C48.8053 45.0671 48.548 45.3244 48.2307 45.3244C47.9133 45.3244 47.656 45.0671 47.656 44.7498C47.656 44.4324 47.9133 44.1751 48.2307 44.1751C48.548 44.1751 48.8053 44.4324 48.8053 44.7498Z" fill="#48081A"/>
<path d="M59.7114 42.0522H53.3342V42.5969H59.7114V42.0522Z" fill="#FEE5E7"/>
<path d="M59.7114 43.3388H53.3342V43.8835H59.7114V43.3388Z" fill="#FEE5E7"/>
<path d="M59.7114 44.6254H53.3342V45.17H59.7114V44.6254Z" fill="#FEE5E7"/>
<path d="M59.5097 48.3179H54.269C53.7501 48.3179 53.3298 47.8976 53.3298 47.3787C53.3298 46.8597 53.7501 46.4395 54.269 46.4395H59.5097C60.0286 46.4395 60.4489 46.8597 60.4489 47.3787C60.4446 47.8976 60.0286 48.3179 59.5097 48.3179Z" fill="#DB284E"/>
<path d="M55.873 47.7861V47.25L55.6071 47.696H55.5385L55.2726 47.2586V47.7861H55.1311V46.9798H55.2555L55.5771 47.5159L55.8945 46.9798H56.0188V47.7861H55.873Z" fill="#FEF2F2"/>
<path d="M56.1731 47.3787C56.1731 47.1385 56.3575 46.9627 56.6105 46.9627C56.8593 46.9627 57.048 47.1385 57.048 47.3787C57.048 47.6188 56.8636 47.7947 56.6105 47.7947C56.3575 47.7947 56.1731 47.6188 56.1731 47.3787ZM56.8936 47.3787C56.8936 47.2157 56.7735 47.0956 56.6105 47.0956C56.4476 47.0956 56.3275 47.2157 56.3275 47.3787C56.3275 47.5459 56.4476 47.6617 56.6105 47.6617C56.7735 47.6617 56.8936 47.5459 56.8936 47.3787Z" fill="#FEF2F2"/>
<path d="M57.7301 47.7861L57.5629 47.5502C57.5543 47.5502 57.5414 47.5502 57.5329 47.5502H57.3527V47.7861H57.2026V46.9798H57.5329C57.7473 46.9798 57.8759 47.087 57.8759 47.2672C57.8759 47.3872 57.8159 47.4816 57.7044 47.5245L57.8888 47.7904H57.7301V47.7861ZM57.5243 47.1042H57.3485V47.4258H57.5243C57.6572 47.4258 57.7258 47.3658 57.7258 47.2629C57.7258 47.1599 57.6572 47.1042 57.5243 47.1042Z" fill="#FEF2F2"/>
<path d="M58.6477 47.6574V47.7818H58.043V46.9755H58.6348V47.0999H58.1974V47.31H58.5876V47.4344H58.1974V47.6574H58.6477Z" fill="#FEF2F2"/>
<path d="M51.3614 58.6019H45.0958C44.6926 58.6019 44.3667 58.276 44.3667 57.8728V51.6072C44.3667 51.2041 44.6926 50.8781 45.0958 50.8781H51.3657C51.7688 50.8781 52.0948 51.2041 52.0948 51.6072V57.8771C52.0948 58.276 51.7645 58.6019 51.3614 58.6019Z" fill="#DB284E"/>
<path d="M59.7114 52.3363H53.3342V52.8809H59.7114V52.3363Z" fill="#FEE5E7"/>
<path d="M59.7114 53.6272H53.3342V54.1718H59.7114V53.6272Z" fill="#FEE5E7"/>
<path d="M59.7114 54.9137H53.3342V55.4584H59.7114V54.9137Z" fill="#FEE5E7"/>
<path d="M59.5097 58.6019H54.269C53.7501 58.6019 53.3298 58.1816 53.3298 57.6627C53.3298 57.1438 53.7501 56.7235 54.269 56.7235H59.5097C60.0286 56.7235 60.4489 57.1438 60.4489 57.6627C60.4446 58.1859 60.0286 58.6019 59.5097 58.6019Z" fill="#DB284E"/>
<path d="M55.873 58.0701V57.5341L55.6071 57.9801H55.5385L55.2726 57.5426V58.0701H55.1311V57.2639H55.2555L55.5771 57.8L55.8945 57.2639H56.0188V58.0701H55.873Z" fill="#FEF2F2"/>
<path d="M56.1731 57.667C56.1731 57.4268 56.3575 57.251 56.6105 57.251C56.8593 57.251 57.048 57.4268 57.048 57.667C57.048 57.9072 56.8636 58.083 56.6105 58.083C56.3575 58.083 56.1731 57.9029 56.1731 57.667ZM56.8936 57.667C56.8936 57.504 56.7735 57.384 56.6105 57.384C56.4476 57.384 56.3275 57.504 56.3275 57.667C56.3275 57.8343 56.4476 57.95 56.6105 57.95C56.7735 57.95 56.8936 57.83 56.8936 57.667Z" fill="#FEF2F2"/>
<path d="M57.7299 58.0701L57.5626 57.8343C57.5541 57.8343 57.5412 57.8343 57.5326 57.8343H57.3525V58.0701H57.2024V57.2639H57.5326C57.747 57.2639 57.8757 57.3711 57.8757 57.5512C57.8757 57.6713 57.8157 57.7657 57.7042 57.8085L57.8886 58.0744L57.7299 58.0701ZM57.524 57.3883H57.3482V57.7099H57.524C57.657 57.7099 57.7256 57.6499 57.7256 57.5469C57.7256 57.4483 57.657 57.3883 57.524 57.3883Z" fill="#FEF2F2"/>
<path d="M58.6477 57.9458V58.0701H58.043V57.2639H58.6348V57.3883H58.1974V57.5984H58.5876V57.7228H58.1974V57.9458H58.6477Z" fill="#FEF2F2"/>
<path d="M51.3614 68.8903H45.0958C44.6926 68.8903 44.3667 68.5643 44.3667 68.1612V61.8913C44.3667 61.4881 44.6926 61.1622 45.0958 61.1622H51.3657C51.7688 61.1622 52.0948 61.4881 52.0948 61.8913V68.1612C52.0948 68.5643 51.7645 68.8903 51.3614 68.8903Z" fill="#DB284E"/>
<path d="M59.7114 62.6246H53.3342V63.1693H59.7114V62.6246Z" fill="#FEE5E7"/>
<path d="M59.7114 63.9112H53.3342V64.4558H59.7114V63.9112Z" fill="#FEE5E7"/>
<path d="M59.7114 65.1978H53.3342V65.7424H59.7114V65.1978Z" fill="#FEE5E7"/>
<path d="M59.5097 68.8902H54.269C53.7501 68.8902 53.3298 68.47 53.3298 67.951C53.3298 67.4321 53.7501 67.0118 54.269 67.0118H59.5097C60.0286 67.0118 60.4489 67.4321 60.4489 67.951C60.4446 68.47 60.0286 68.8902 59.5097 68.8902Z" fill="#DB284E"/>
<path d="M55.873 68.3585V67.8224L55.6071 68.2684H55.5385L55.2726 67.831V68.3585H55.1311V67.5522H55.2555L55.5771 68.0883L55.8945 67.5522H56.0188V68.3585H55.873Z" fill="#FEF2F2"/>
<path d="M56.1731 67.9554C56.1731 67.7152 56.3575 67.5394 56.6105 67.5394C56.8593 67.5394 57.048 67.7152 57.048 67.9554C57.048 68.1955 56.8636 68.3714 56.6105 68.3714C56.3575 68.3671 56.1731 68.1912 56.1731 67.9554ZM56.8936 67.9554C56.8936 67.7924 56.7735 67.6723 56.6105 67.6723C56.4476 67.6723 56.3275 67.7924 56.3275 67.9554C56.3275 68.1183 56.4476 68.2384 56.6105 68.2384C56.7692 68.2384 56.8936 68.1183 56.8936 67.9554Z" fill="#FEF2F2"/>
<path d="M57.7299 68.3585L57.5626 68.1226C57.5541 68.1226 57.5412 68.1226 57.5326 68.1226H57.3525V68.3585H57.2024V67.5522H57.5326C57.747 67.5522 57.8757 67.6595 57.8757 67.8396C57.8757 67.9597 57.8157 68.054 57.7042 68.0969L57.8886 68.3628L57.7299 68.3585ZM57.524 67.6766H57.3482V67.9983H57.524C57.657 67.9983 57.7256 67.9382 57.7256 67.8353C57.7256 67.7367 57.657 67.6766 57.524 67.6766Z" fill="#FEF2F2"/>
<path d="M58.6477 68.2298V68.3542H58.043V67.5479H58.6348V67.6723H58.1974V67.8825H58.5876V68.0068H58.1974V68.2298H58.6477Z" fill="#FEF2F2"/>
<path d="M46.6526 54.9352V56.6892C46.6526 57.0194 47.3602 57.2853 48.2308 57.2853C49.1014 57.2853 49.809 57.0194 49.809 56.6892V54.9352H46.6526Z" fill="#48081A"/>
<path d="M46.3867 52.8895V54.9395C46.3867 55.3212 47.2144 55.6342 48.2308 55.6342C49.2472 55.6342 50.0749 55.3254 50.0749 54.9395V52.8895H46.3867Z" fill="#FEF2F2"/>
<path d="M50.0749 52.8895C50.0749 53.2712 49.2472 53.5843 48.2308 53.5843C47.2144 53.5843 46.3867 53.2755 46.3867 52.8895C46.3867 52.5078 47.2144 52.1948 48.2308 52.1948C49.2472 52.1948 50.0749 52.5035 50.0749 52.8895Z" fill="#48081A"/>
<path d="M49.809 52.8895C49.809 53.1812 49.1014 53.417 48.2308 53.417C47.3602 53.417 46.6526 53.1812 46.6526 52.8895C46.6526 52.5979 47.3602 52.362 48.2308 52.362C49.1014 52.362 49.809 52.5979 49.809 52.8895Z" stroke="#FEF2F2" stroke-width="0.771" stroke-miterlimit="10"/>
<path d="M49.1228 63.864H47.3345L47.4503 63.4309C47.4846 63.3065 47.5918 63.2207 47.7204 63.2207H48.7411C48.8698 63.2207 48.9813 63.3065 49.0113 63.4309L49.1228 63.864Z" fill="#48081A"/>
<path d="M50.1693 66.8317H46.2924C46.0995 66.8317 45.9451 66.6774 45.9451 66.4844V64.1085C45.9451 63.9155 46.0995 63.7611 46.2924 63.7611H50.1693C50.3623 63.7611 50.5167 63.9155 50.5167 64.1085V66.4844C50.5167 66.6731 50.3623 66.8317 50.1693 66.8317Z" fill="#FEF2F2"/>
<path d="M49.4056 65.3222C49.4056 65.9697 48.8824 66.4972 48.2305 66.4972C47.5786 66.4972 47.0554 65.974 47.0554 65.3222C47.0554 64.6746 47.5786 64.1471 48.2305 64.1471C48.8824 64.1471 49.4056 64.6746 49.4056 65.3222Z" stroke="#DB284E" stroke-width="0.948" stroke-miterlimit="10"/>
<path d="M48.8053 65.3222C48.8053 65.6395 48.548 65.8968 48.2307 65.8968C47.9133 65.8968 47.656 65.6395 47.656 65.3222C47.656 65.0048 47.9133 64.7475 48.2307 64.7475C48.548 64.7475 48.8053 65.0048 48.8053 65.3222Z" fill="#48081A"/>
</g>
<mask id="mask3_879_10088" style="mask-type:luminance" maskUnits="userSpaceOnUse" x="41" y="26" width="25" height="51">
<path d="M62.5077 26.7848H59.2741C58.8023 26.7848 58.3949 27.1108 58.2834 27.5696L58.2663 27.6383C58.1462 28.1443 57.6959 28.5003 57.177 28.5003H49.7963C49.2774 28.5003 48.8271 28.1443 48.707 27.6383L48.6898 27.5696C48.5826 27.1108 48.1709 26.7848 47.6992 26.7848H44.4656C42.9088 26.7848 41.6479 28.0457 41.6479 29.6024V73.3933C41.6479 74.9501 42.9088 76.2109 44.4656 76.2109H62.5077C64.0644 76.2109 65.3253 74.9501 65.3253 73.3933V29.6067C65.3296 28.05 64.0644 26.7848 62.5077 26.7848Z" fill="white"/>
</mask>
<g mask="url(#mask3_879_10088)">
<path d="M62.9277 39.3033V72.6728" stroke="#B7193E" stroke-width="0.948" stroke-miterlimit="10"/>
</g>
<mask id="mask4_879_10088" style="mask-type:luminance" maskUnits="userSpaceOnUse" x="41" y="26" width="25" height="51">
<path d="M62.5077 26.7848H59.2741C58.8023 26.7848 58.3949 27.1108 58.2834 27.5696L58.2663 27.6383C58.1462 28.1443 57.6959 28.5003 57.177 28.5003H49.7963C49.2774 28.5003 48.8271 28.1443 48.707 27.6383L48.6898 27.5696C48.5826 27.1108 48.1709 26.7848 47.6992 26.7848H44.4656C42.9088 26.7848 41.6479 28.0457 41.6479 29.6024V73.3933C41.6479 74.9501 42.9088 76.2109 44.4656 76.2109H62.5077C64.0644 76.2109 65.3253 74.9501 65.3253 73.3933V29.6067C65.3296 28.05 64.0644 26.7848 62.5077 26.7848Z" fill="white"/>
</mask>
<g mask="url(#mask4_879_10088)">
<path d="M62.9278 51.1441C62.6062 51.1441 62.3489 50.8825 62.3489 50.5651V47.9619C62.3489 47.6403 62.6105 47.383 62.9278 47.383C63.2495 47.383 63.5068 47.6446 63.5068 47.9619V50.5651C63.5111 50.8825 63.2495 51.1441 62.9278 51.1441Z" fill="#FEE5E7"/>
</g>
<mask id="mask5_879_10088" style="mask-type:luminance" maskUnits="userSpaceOnUse" x="41" y="26" width="25" height="51">
<path d="M62.5077 26.7848H59.2741C58.8023 26.7848 58.3949 27.1108 58.2834 27.5696L58.2663 27.6383C58.1462 28.1443 57.6959 28.5003 57.177 28.5003H49.7963C49.2774 28.5003 48.8271 28.1443 48.707 27.6383L48.6898 27.5696C48.5826 27.1108 48.1709 26.7848 47.6992 26.7848H44.4656C42.9088 26.7848 41.6479 28.0457 41.6479 29.6024V73.3933C41.6479 74.9501 42.9088 76.2109 44.4656 76.2109H62.5077C64.0644 76.2109 65.3253 74.9501 65.3253 73.3933V29.6067C65.3296 28.05 64.0644 26.7848 62.5077 26.7848Z" fill="white"/>
</mask>
<g mask="url(#mask5_879_10088)">
<path d="M41.6479 70.3098V73.3976C41.6479 74.9544 42.9088 76.2152 44.4656 76.2152H62.5077C64.0644 76.2152 65.3253 74.9544 65.3253 73.3976V70.3098H41.6479Z" fill="#9A183A"/>
</g>
<mask id="mask6_879_10088" style="mask-type:luminance" maskUnits="userSpaceOnUse" x="41" y="26" width="25" height="51">
<path d="M62.5077 26.7848H59.2741C58.8023 26.7848 58.3949 27.1108 58.2834 27.5696L58.2663 27.6383C58.1462 28.1443 57.6959 28.5003 57.177 28.5003H49.7963C49.2774 28.5003 48.8271 28.1443 48.707 27.6383L48.6898 27.5696C48.5826 27.1108 48.1709 26.7848 47.6992 26.7848H44.4656C42.9088 26.7848 41.6479 28.0457 41.6479 29.6024V73.3933C41.6479 74.9501 42.9088 76.2109 44.4656 76.2109H62.5077C64.0645 76.2109 65.3253 74.9501 65.3253 73.3933V29.6067C65.3296 28.05 64.0645 26.7848 62.5077 26.7848Z" fill="white"/>
</mask>
<g mask="url(#mask6_879_10088)">
<path opacity="0.31" d="M65.3296 26.5961H41.6479V33.6723H65.3296V26.5961Z" fill="#48081A"/>
</g>
</g>
<defs>
<filter id="filter0_d_879_10088" x="0" y="0" width="105" height="105" filterUnits="userSpaceOnUse" color-interpolation-filters="sRGB">
<feFlood flood-opacity="0" result="BackgroundImageFix"/>
<feColorMatrix in="SourceAlpha" type="matrix" values="0 0 0 0 0 0 0 0 0 0 0 0 0 0 0 0 0 0 127 0" result="hardAlpha"/>
<feOffset dy="1"/>
<feGaussianBlur stdDeviation="10"/>
<feComposite in2="hardAlpha" operator="out"/>
<feColorMatrix type="matrix" values="0 0 0 0 0.141176 0 0 0 0 0.145098 0 0 0 0 0.156863 0 0 0 0.25 0"/>
<feBlend mode="normal" in2="BackgroundImageFix" result="effect1_dropShadow_879_10088"/>
<feBlend mode="normal" in="SourceGraphic" in2="effect1_dropShadow_879_10088" result="shape"/>
</filter>
<linearGradient id="paint0_linear_879_10088" x1="52.5" y1="19" x2="52.5" y2="84" gradientUnits="userSpaceOnUse">
<stop stop-color="#DC2678"/>
<stop offset="1" stop-color="#FAA7D4"/>
</linearGradient>
</defs>
</svg>
